<svg xmlns="http://www.w3.org/2000/svg" xmlns:xlink="http://www.w3.org/1999/xlink" viewBox="0 0 368.15 299.65"><defs><style>.cls-1{fill:none;stroke:#c1c1c1;stroke-width:5px;}.cls-1,.cls-3{stroke-miterlimit:10;}.cls-2{fill:#c1c1c1;}.cls-3{fill:#1a1a1a;stroke:#fff;}.cls-4{fill:#ff2751;}.cls-5{fill:#db0f40;}.cls-6{fill:url(#linear-gradient);}.cls-7{fill:#e5c31a;}.cls-8{fill:#c9a409;}.cls-9{fill:url(#linear-gradient-2);}.cls-10{fill:#43dd51;}.cls-11{fill:#1cba24;}.cls-12{fill:url(#linear-gradient-3);}.cls-13{fill:url(#linear-gradient-4);}.cls-14{fill:url(#linear-gradient-5);}.cls-15{fill:#4ad8ac;}.cls-16{fill:#2ebc8d;}.cls-17{fill:url(#linear-gradient-6);}.cls-18{fill:url(#linear-gradient-7);}.cls-19{fill:url(#linear-gradient-8);}.cls-20{fill:url(#linear-gradient-9);}.cls-21{fill:url(#linear-gradient-10);}.cls-22{fill:url(#linear-gradient-11);}.cls-23{fill:url(#linear-gradient-12);}.cls-24{fill:#3550d8;}.cls-25{fill:#1d3eb7;}.cls-26{fill:url(#linear-gradient-13);}.cls-27{fill:#3393db;}.cls-28{fill:#157dbc;}.cls-29{fill:url(#linear-gradient-14);}.cls-30{fill:url(#linear-gradient-15);}.cls-31{fill:#8338e5;}.cls-32{fill:#5e19cc;}.cls-33{fill:url(#linear-gradient-16);}.cls-34{fill:#e2e2e2;}.cls-35{fill:#ccc;}.cls-36{fill:url(#linear-gradient-17);}.cls-37{font-size:7px;}.cls-37,.cls-39,.cls-47,.cls-50,.cls-56,.cls-58,.cls-60,.cls-67,.cls-70,.cls-76,.cls-81{fill:#fff;font-family:MyriadPro-Regular, Myriad Pro;}.cls-38{letter-spacing:-0.03em;}.cls-39{font-size:5.67px;}.cls-40{letter-spacing:0.01em;}.cls-41{letter-spacing:0em;}.cls-42{letter-spacing:0em;}.cls-43{letter-spacing:0.01em;}.cls-44{letter-spacing:0em;}.cls-45{letter-spacing:-0.01em;}.cls-46{letter-spacing:-0.01em;}.cls-47{font-size:4.72px;}.cls-48{letter-spacing:0.01em;}.cls-49{letter-spacing:0em;}.cls-50{font-size:8.5px;}.cls-51{letter-spacing:-0.01em;}.cls-52{letter-spacing:-0.01em;}.cls-53{letter-spacing:0em;}.cls-54{letter-spacing:-0.01em;}.cls-55{letter-spacing:0em;}.cls-56{font-size:6px;}.cls-57{letter-spacing:0.01em;}.cls-58{font-size:8px;letter-spacing:-0.01em;}.cls-59{letter-spacing:0em;}.cls-60{font-size:5px;}.cls-61{letter-spacing:0em;}.cls-62{letter-spacing:0em;}.cls-63{letter-spacing:-0.05em;}.cls-64{letter-spacing:0em;}.cls-65{letter-spacing:0.01em;}.cls-66{fill:url(#linear-gradient-18);}.cls-67{font-size:5.53px;}.cls-68{letter-spacing:0em;}.cls-69{letter-spacing:-0.01em;}.cls-70,.cls-76{font-size:6.93px;}.cls-70{letter-spacing:-0.01em;}.cls-71{letter-spacing:-0.01em;}.cls-72{letter-spacing:0em;}.cls-73{letter-spacing:0em;}.cls-74{letter-spacing:0.01em;}.cls-75{letter-spacing:0em;}.cls-77{letter-spacing:0em;}.cls-78{letter-spacing:-0.01em;}.cls-79{fill:url(#linear-gradient-19);}.cls-80{fill:url(#linear-gradient-20);}.cls-81{font-size:4.3px;}.cls-82{letter-spacing:-0.02em;}.cls-83{letter-spacing:0em;}.cls-84{letter-spacing:0em;}</style><linearGradient id="linear-gradient" x1="587.45" y1="350.52" x2="587.45" y2="362.79" gradientTransform="translate(-316.8 623.2) rotate(-90)" gradientUnits="userSpaceOnUse"><stop offset="0" stop-color="#fff"/><stop offset="1" stop-color="#fff" stop-opacity="0"/></linearGradient><linearGradient id="linear-gradient-2" x1="315.41" y1="412.59" x2="315.41" y2="431.76" gradientTransform="translate(-252.48 599.03) rotate(-90)" xlink:href="#linear-gradient"/><linearGradient id="linear-gradient-3" x1="313.14" y1="428.95" x2="313.14" y2="448.12" gradientTransform="translate(-252.42 594.97) rotate(-90)" xlink:href="#linear-gradient"/><linearGradient id="linear-gradient-4" x1="358.17" y1="401.83" x2="358.17" y2="417.17" gradientTransform="translate(-262.51 603.4) rotate(-90)" xlink:href="#linear-gradient"/><linearGradient id="linear-gradient-5" x1="355.87" y1="413.64" x2="355.87" y2="428.97" gradientTransform="translate(-262.31 600.46) rotate(-90)" xlink:href="#linear-gradient"/><linearGradient id="linear-gradient-6" x1="343.87" y1="457.64" x2="343.87" y2="472.97" gradientTransform="translate(-260.71 589.37) rotate(-90)" xlink:href="#linear-gradient"/><linearGradient id="linear-gradient-7" x1="436.18" y1="396.52" x2="436.18" y2="408.79" gradientTransform="translate(-281.32 607.43) rotate(-90)" xlink:href="#linear-gradient"/><linearGradient id="linear-gradient-8" x1="397.18" y1="363.52" x2="397.18" y2="375.79" gradientTransform="translate(-270.82 614.29) rotate(-90)" xlink:href="#linear-gradient"/><linearGradient id="linear-gradient-9" x1="391.18" y1="329.52" x2="391.18" y2="341.79" gradientTransform="translate(-268.33 622.4) rotate(-90)" xlink:href="#linear-gradient"/><linearGradient id="linear-gradient-10" x1="587.88" y1="430.37" x2="587.88" y2="442.64" gradientTransform="translate(-319.32 603.75) rotate(-90)" xlink:href="#linear-gradient"/><linearGradient id="linear-gradient-11" x1="474.88" y1="420.37" x2="474.88" y2="432.64" gradientTransform="translate(-291.47 602.78) rotate(-90)" xlink:href="#linear-gradient"/><linearGradient id="linear-gradient-12" x1="416.58" y1="482.35" x2="416.58" y2="494.62" gradientTransform="translate(-279.13 585.92) rotate(-90)" xlink:href="#linear-gradient"/><linearGradient id="linear-gradient-13" x1="432.58" y1="537.35" x2="432.58" y2="549.62" gradientTransform="translate(-284.69 572.99) rotate(-90)" xlink:href="#linear-gradient"/><linearGradient id="linear-gradient-14" x1="454.58" y1="495.35" x2="454.58" y2="507.62" gradientTransform="translate(-288.79 583.89) rotate(-90)" xlink:href="#linear-gradient"/><linearGradient id="linear-gradient-15" x1="503.58" y1="570.35" x2="503.58" y2="582.62" gradientTransform="translate(-302.99 567.09) rotate(-90)" xlink:href="#linear-gradient"/><linearGradient id="linear-gradient-16" x1="-1515.02" y1="2259.23" x2="-1515.02" y2="2271.5" gradientTransform="translate(2592.35 1590.27) rotate(90)" xlink:href="#linear-gradient"/><linearGradient id="linear-gradient-17" x1="391.28" y1="439.68" x2="391.28" y2="451.95" gradientTransform="translate(-271.68 595.55) rotate(-90)" xlink:href="#linear-gradient"/><linearGradient id="linear-gradient-18" x1="370.58" y1="492.35" x2="370.58" y2="504.62" gradientTransform="translate(-268.22 582.09) rotate(-90)" xlink:href="#linear-gradient"/><linearGradient id="linear-gradient-19" x1="387.88" y1="449.37" x2="387.88" y2="461.64" gradientTransform="translate(-271.14 593.09) rotate(-90)" xlink:href="#linear-gradient"/><linearGradient id="linear-gradient-20" x1="469.88" y1="358.37" x2="469.88" y2="370.64" gradientTransform="translate(-288.38 617.74) rotate(-90)" xlink:href="#linear-gradient"/></defs><title>Asset 12</title><g id="Layer_2" data-name="Layer 2"><g id="Layer_5" data-name="Layer 5"><polyline class="cls-1" points="158.65 244.97 183.46 279.95 209.91 245.47"/><path class="cls-1" d="M358.95,97.16a362,362,0,0,0-78.79-34.43"/><polygon class="cls-2" points="360.92 89.65 368.15 102.75 353.19 102.46 360.92 89.65"/><path class="cls-1" d="M104.27,215.62a204.51,204.51,0,0,0-31.95,15.2"/><path class="cls-1" d="M122.38,15.22a401.24,401.24,0,0,0-112.67,33"/><polygon class="cls-2" points="8.61 40.65 0 52.88 14.9 54.22 8.61 40.65"/><line class="cls-1" x1="154.04" y1="243.03" x2="80.93" y2="149.02"/><polyline class="cls-1" points="125.33 169.82 156.57 243.14 104.27 215.62"/><polyline class="cls-1" points="121.99 12.9 158.65 244.97 183.23 202.61 209.91 245.47 216.72 127.27"/><polyline class="cls-1" points="210.31 245.39 236.21 210.02 249.9 175.63 265.36 138.82 279.56 62.56"/><rect class="cls-3" x="129.82" y="116.37" width="21" height="21" transform="translate(-40.6 182.14) rotate(-59.11)"/><rect class="cls-3" x="203.12" y="157.76" width="21" height="21" transform="translate(-40.45 265.17) rotate(-59.11)"/><rect class="cls-3" x="313.5" y="68.99" width="21" height="21" transform="translate(620.92 -72.58) rotate(139.1)"/><rect class="cls-3" x="69.94" y="136.58" width="21" height="21" transform="translate(-87.07 140.59) rotate(-59.11)"/><rect class="cls-3" x="178.18" y="193.93" width="21" height="21" transform="translate(-83.62 261.37) rotate(-59.11)"/><rect class="cls-3" x="168.48" y="192.24" width="21" height="21" transform="translate(-86.89 252.23) rotate(-59.11)"/><rect class="cls-3" x="111.01" y="4.59" width="21" height="21" transform="translate(46.17 111.61) rotate(-59.11)"/><circle class="cls-4" cx="44.42" cy="34.54" r="11.42" transform="translate(-7.08 11.87) rotate(-14.11)"/><circle class="cls-5" cx="45.42" cy="34.29" r="9.14" transform="translate(-6.99 12.1) rotate(-14.11)"/><ellipse class="cls-6" cx="39.85" cy="35.75" rx="6.14" ry="8.37" transform="translate(-7.51 10.79) rotate(-14.11)"/><circle class="cls-7" cx="176.66" cy="281.8" r="17.85" transform="translate(-63.35 51.55) rotate(-14.11)"/><circle class="cls-8" cx="178.23" cy="281.4" r="14.28" transform="translate(-63.21 51.92) rotate(-14.11)"/><ellipse class="cls-9" cx="169.7" cy="283.61" rx="9.59" ry="13.07" transform="translate(-64.01 49.91) rotate(-14.11)"/><circle class="cls-10" cx="193.38" cy="279.96" r="17.85" transform="translate(-62.4 55.57) rotate(-14.11)"/><circle class="cls-11" cx="194.95" cy="279.57" r="14.28" transform="translate(-62.26 55.94) rotate(-14.11)"/><ellipse class="cls-12" cx="186.12" cy="281.83" rx="9.59" ry="13.07" transform="translate(-63.08 53.86) rotate(-14.11)"/><circle class="cls-7" cx="152.55" cy="243.79" r="14.28" transform="translate(-54.82 44.53) rotate(-14.11)"/><circle class="cls-8" cx="153.81" cy="243.47" r="11.42" transform="translate(-54.7 44.83) rotate(-14.11)"/><ellipse class="cls-13" cx="146.98" cy="245.24" rx="7.67" ry="10.46" transform="translate(-55.34 43.22) rotate(-14.11)"/><circle class="cls-10" cx="164.8" cy="243.09" r="14.28" transform="translate(-54.28 47.5) rotate(-14.11)"/><circle class="cls-11" cx="166.06" cy="242.78" r="11.42" transform="translate(-54.16 47.79) rotate(-14.11)"/><ellipse class="cls-14" cx="158.99" cy="244.59" rx="7.67" ry="10.46" transform="translate(-54.82 46.13) rotate(-14.11)"/><circle class="cls-15" cx="210.4" cy="244.01" r="14.28" transform="translate(-53.13 58.64) rotate(-14.11)"/><circle class="cls-16" cx="211.66" cy="243.69" r="11.42" transform="translate(-53.01 58.93) rotate(-14.11)"/><ellipse class="cls-17" cx="204.59" cy="245.5" rx="7.67" ry="10.46" transform="translate(-53.67 57.27) rotate(-14.11)"/><circle class="cls-7" cx="125.78" cy="170.09" r="11.42" transform="translate(-37.66 35.79) rotate(-14.11)"/><circle class="cls-8" cx="126.79" cy="169.84" r="9.14" transform="translate(-37.57 36.02) rotate(-14.11)"/><ellipse class="cls-18" cx="121.33" cy="171.25" rx="6.14" ry="8.37" transform="translate(-38.08 34.73) rotate(-14.11)"/><circle class="cls-7" cx="103.28" cy="215.96" r="11.42" transform="translate(-49.52 31.68) rotate(-14.11)"/><circle class="cls-8" cx="104.29" cy="215.71" r="9.14" transform="translate(-49.43 31.92) rotate(-14.11)"/><ellipse class="cls-19" cx="98.83" cy="217.12" rx="6.14" ry="8.37" transform="translate(-49.94 30.63) rotate(-14.11)"/><circle class="cls-7" cx="71.77" cy="230.06" r="11.42" transform="translate(-53.91 24.43) rotate(-14.11)"/><circle class="cls-8" cx="72.77" cy="229.81" r="9.14" transform="translate(-53.82 24.67) rotate(-14.11)"/><ellipse class="cls-20" cx="67.32" cy="231.22" rx="6.14" ry="8.37" transform="translate(-54.32 23.38) rotate(-14.11)"/><circle class="cls-10" cx="121.84" cy="14.68" r="11.42" transform="translate(0.1 30.14) rotate(-14.11)"/><circle class="cls-11" cx="122.84" cy="14.42" r="9.14" transform="translate(0.19 30.37) rotate(-14.11)"/><ellipse class="cls-21" cx="117.19" cy="15.87" rx="6.14" ry="8.37" transform="translate(-0.33 29.04) rotate(-14.11)"/><circle class="cls-10" cx="139.68" cy="126.71" r="11.42" transform="translate(-26.67 37.86) rotate(-14.11)"/><circle class="cls-11" cx="140.68" cy="126.45" r="9.14" transform="translate(-26.58 38.1) rotate(-14.11)"/><ellipse class="cls-22" cx="135.03" cy="127.9" rx="6.14" ry="8.37" transform="translate(-27.1 36.77) rotate(-14.11)"/><circle class="cls-15" cx="213.96" cy="168.16" r="11.42" transform="translate(-34.53 57.22) rotate(-14.11)"/><circle class="cls-16" cx="214.96" cy="167.91" r="9.14" transform="translate(-34.44 57.45) rotate(-14.11)"/><ellipse class="cls-23" cx="209.35" cy="169.34" rx="6.14" ry="8.37" transform="translate(-34.96 56.13) rotate(-14.11)"/><circle class="cls-24" cx="263.4" cy="139.24" r="11.42" transform="translate(-25.99 68.4) rotate(-14.11)"/><circle class="cls-25" cx="264.41" cy="138.99" r="9.14" transform="translate(-25.9 68.63) rotate(-14.11)"/><ellipse class="cls-26" cx="258.79" cy="140.42" rx="6.14" ry="8.37" transform="translate(-26.42 67.31) rotate(-14.11)"/><circle class="cls-27" cx="217.31" cy="128.14" r="11.42" transform="translate(-24.68 56.83) rotate(-14.11)"/><circle class="cls-28" cx="218.31" cy="127.89" r="9.14" transform="translate(-24.59 57.06) rotate(-14.11)"/><ellipse class="cls-29" cx="212.7" cy="129.32" rx="6.14" ry="8.37" transform="translate(-25.1 55.74) rotate(-14.11)"/><circle class="cls-27" cx="278.1" cy="62.34" r="11.42" transform="translate(-6.81 69.66) rotate(-14.11)"/><circle class="cls-28" cx="279.11" cy="62.09" r="9.14" transform="translate(-6.72 69.9) rotate(-14.11)"/><ellipse class="cls-30" cx="273.49" cy="63.51" rx="6.14" ry="8.37" transform="translate(-7.23 68.57) rotate(-14.11)"/><circle class="cls-31" cx="324.41" cy="79.23" r="11.42" transform="translate(81.81 308.73) rotate(-57.13)"/><circle class="cls-32" cx="323.85" cy="80.1" r="9.14" transform="translate(80.83 308.65) rotate(-57.13)"/><ellipse class="cls-33" cx="326.98" cy="75.25" rx="6.14" ry="8.37" transform="translate(86.33 309.06) rotate(-57.13)"/><circle class="cls-34" cx="178.69" cy="203.05" r="11.42" transform="translate(-44.1 49.67) rotate(-14.11)"/><circle class="cls-35" cx="179.69" cy="202.8" r="9.14" transform="translate(-44.01 49.91) rotate(-14.11)"/><ellipse class="cls-36" cx="174.13" cy="204.27" rx="6.14" ry="8.37" transform="translate(-44.53 48.6) rotate(-14.11)"/><text class="cls-37" transform="translate(130.98 179.33) rotate(-104.11)"><tspan class="cls-38">W</tspan><tspan x="5.69" y="0">ealth</tspan></text><text class="cls-39" transform="translate(75.62 239.64) rotate(-104.11)"><tspan class="cls-40">M</tspan><tspan class="cls-41" x="4.59" y="0">a</tspan><tspan x="7.3" y="0">tu</tspan><tspan class="cls-42" x="12.3" y="0">r</tspan><tspan x="14.17" y="0">i</tspan><tspan class="cls-43" x="15.5" y="0">t</tspan><tspan class="cls-44" x="17.43" y="0">y</tspan></text><text class="cls-37" transform="translate(107.27 224.47) rotate(-104.11)"><tspan class="cls-45">A</tspan><tspan class="cls-46" x="4.2" y="0">g</tspan><tspan x="8.07" y="0">ing</tspan></text><text class="cls-47" transform="matrix(0.84, 0.54, -0.54, 0.84, 315.02, 74.65)"><tspan class="cls-48">I</tspan><tspan x="1.17" y="0">nspi</tspan><tspan class="cls-49" x="9.45" y="0">ra</tspan><tspan x="13.22" y="0">tion</tspan></text><text class="cls-50" transform="translate(168.88 255.42) rotate(-104.11)">G<tspan class="cls-51" x="5.49" y="0">r</tspan><tspan class="cls-52" x="8.19" y="0">o</tspan><tspan x="12.79" y="0">wth</tspan></text><text class="cls-50" transform="translate(199.46 292.2) rotate(-104.11)">N<tspan class="cls-53" x="5.59" y="0">a</tspan><tspan x="9.66" y="0">tu</tspan><tspan class="cls-54" x="17.15" y="0">r</tspan><tspan class="cls-55" x="19.85" y="0">e</tspan></text><text class="cls-56" transform="translate(126.18 24.84) rotate(-104.11)">Jealousy</text><text class="cls-37" transform="translate(144.75 135.66) rotate(-104.11)">Naivi<tspan class="cls-57" x="14.62" y="0">t</tspan><tspan x="17" y="0">y</tspan></text><text class="cls-58" transform="translate(215.18 257.05) rotate(-104.11)">C<tspan class="cls-59" x="4.58" y="0">alming</tspan></text><text class="cls-60" transform="translate(218.76 178.54) rotate(-104.11)"><tspan class="cls-61">R</tspan><tspan x="2.71" y="0">elax</tspan><tspan class="cls-62" x="11.12" y="0">a</tspan><tspan x="13.51" y="0">tion</tspan></text><text class="cls-60" transform="translate(222.24 138.48) rotate(-104.11)"><tspan class="cls-63">T</tspan><tspan class="cls-64" x="2.26" y="0">r</tspan><tspan x="3.87" y="0">anquili</tspan><tspan class="cls-65" x="18.14" y="0">t</tspan><tspan x="19.84" y="0">y</tspan></text><circle class="cls-27" cx="234.87" cy="210.34" r="11.42" transform="translate(-44.18 63.59) rotate(-14.11)"/><circle class="cls-28" cx="235.87" cy="210.09" r="9.14" transform="translate(-44.09 63.82) rotate(-14.11)"/><ellipse class="cls-66" cx="230.26" cy="211.51" rx="6.14" ry="8.37" transform="translate(-44.61 62.5) rotate(-14.11)"/><text class="cls-60" transform="translate(239.8 220.69) rotate(-104.11)">Openness</text><text class="cls-67" transform="translate(282.82 72.34) rotate(-104.11)"><tspan class="cls-68">D</tspan><tspan x="3.7" y="0">e</tspan><tspan class="cls-69" x="6.47" y="0">v</tspan><tspan x="9.08" y="0">otion</tspan></text><text class="cls-70" transform="translate(268.65 149.11) rotate(-104.11)">L<tspan class="cls-71" x="3.18" y="0">o</tspan><tspan class="cls-72" x="6.93" y="0">y</tspan><tspan class="cls-73" x="10.17" y="0">al</tspan><tspan class="cls-74" x="15.15" y="0">t</tspan><tspan class="cls-75" x="17.51" y="0">y</tspan></text><text class="cls-76" transform="translate(48.71 41.98) rotate(-104.11)"><tspan class="cls-77">D</tspan><tspan class="cls-75" x="4.65" y="0">esi</tspan><tspan class="cls-78" x="12.49" y="0">r</tspan><tspan x="14.69" y="0">e</tspan></text><circle class="cls-10" cx="189.01" cy="204.01" r="11.42" transform="translate(-44.02 52.22) rotate(-14.11)"/><circle class="cls-11" cx="190.01" cy="203.76" r="9.14" transform="translate(-43.93 52.45) rotate(-14.11)"/><ellipse class="cls-79" cx="184.36" cy="205.21" rx="6.14" ry="8.37" transform="translate(-44.46 51.12) rotate(-14.11)"/><circle class="cls-10" cx="80.77" cy="146.67" r="11.42" transform="translate(-33.31 24.11) rotate(-14.11)"/><circle class="cls-11" cx="81.77" cy="146.41" r="9.14" transform="translate(-33.22 24.34) rotate(-14.11)"/><ellipse class="cls-80" cx="76.12" cy="147.86" rx="6.14" ry="8.37" transform="translate(-33.74 23.01) rotate(-14.11)"/><text class="cls-37" transform="translate(192.63 211.27) rotate(-104.11)">Hope</text><text class="cls-81" transform="translate(84.1 156.05) rotate(-104.11)"><tspan class="cls-82">F</tspan><tspan x="2.02" y="0">lou</tspan><tspan class="cls-83" x="7.77" y="0">r</tspan><tspan class="cls-84" x="9.2" y="0">ishing</tspan></text></g></g></svg>