<svg xmlns="http://www.w3.org/2000/svg" xmlns:xlink="http://www.w3.org/1999/xlink" viewBox="0 0 423.11 286.42"><defs><style>.cls-1{fill:none;stroke:#c1c1c1;stroke-width:5px;}.cls-1,.cls-3{stroke-miterlimit:10;}.cls-2{fill:#c1c1c1;}.cls-3{fill:#1a1a1a;stroke:#fff;}.cls-4{fill:#ff2751;}.cls-5{fill:#db0f40;}.cls-6{fill:url(#linear-gradient);}.cls-7{fill:url(#linear-gradient-2);}.cls-8{fill:url(#linear-gradient-3);}.cls-9{fill:url(#linear-gradient-4);}.cls-10{fill:url(#linear-gradient-5);}.cls-11{fill:url(#linear-gradient-6);}.cls-12{fill:url(#linear-gradient-7);}.cls-13{fill:url(#linear-gradient-8);}.cls-14{fill:url(#linear-gradient-9);}.cls-15{fill:url(#linear-gradient-10);}.cls-16{fill:url(#linear-gradient-11);}.cls-17{fill:url(#linear-gradient-12);}.cls-18{fill:url(#linear-gradient-13);}.cls-19{fill:url(#linear-gradient-14);}.cls-20{fill:url(#linear-gradient-15);}.cls-21{fill:url(#linear-gradient-16);}.cls-22{fill:url(#linear-gradient-17);}.cls-23{fill:url(#linear-gradient-18);}.cls-24{fill:#2d2d2d;}.cls-25{fill:#121212;}.cls-26{fill:url(#linear-gradient-19);}.cls-27{fill:url(#linear-gradient-20);}.cls-28{fill:url(#linear-gradient-21);}.cls-29{fill:#ede148;}.cls-30{fill:#ddc626;}.cls-31{fill:url(#linear-gradient-22);}.cls-32{fill:url(#linear-gradient-23);}.cls-33{fill:#43dd51;}.cls-34{fill:#1cba24;}.cls-35{fill:url(#linear-gradient-24);}.cls-36{font-size:6.93px;}.cls-36,.cls-39,.cls-40,.cls-42,.cls-45,.cls-50,.cls-56,.cls-61,.cls-69,.cls-72,.cls-82,.cls-94,.cls-96{fill:#fff;font-family:MyriadPro-Regular, Myriad Pro;}.cls-37{letter-spacing:-0.01em;}.cls-38{letter-spacing:0em;}.cls-39{font-size:6px;}.cls-40{font-size:12px;}.cls-41{letter-spacing:-0.01em;}.cls-42,.cls-94{font-size:7.52px;}.cls-42{letter-spacing:-0.02em;}.cls-43{letter-spacing:0em;}.cls-44{letter-spacing:0.01em;}.cls-45{font-size:6.93px;}.cls-46{letter-spacing:-0.03em;}.cls-47{letter-spacing:0em;}.cls-48{letter-spacing:-0.01em;}.cls-49{fill:url(#linear-gradient-25);}.cls-50{font-size:4.32px;}.cls-51{letter-spacing:-0.01em;}.cls-52{letter-spacing:0em;}.cls-53{letter-spacing:-0.01em;}.cls-54{letter-spacing:0em;}.cls-55{fill:url(#linear-gradient-26);}.cls-56{font-size:4.99px;}.cls-57{letter-spacing:0.01em;}.cls-58{letter-spacing:-0.01em;}.cls-59{letter-spacing:0em;}.cls-60{letter-spacing:0em;}.cls-61{font-size:3.9px;letter-spacing:-0.01em;}.cls-62{letter-spacing:0em;}.cls-63{letter-spacing:-0.01em;}.cls-64{letter-spacing:0em;}.cls-65{letter-spacing:0em;}.cls-66{letter-spacing:0.01em;}.cls-67{letter-spacing:-0.02em;}.cls-68{letter-spacing:-0.01em;}.cls-69{font-size:4.9px;}.cls-70{letter-spacing:-0.03em;}.cls-71{letter-spacing:-0.01em;}.cls-72{font-size:4.8px;letter-spacing:-0.02em;}.cls-73{letter-spacing:-0.01em;}.cls-74{letter-spacing:0em;}.cls-75{letter-spacing:-0.01em;}.cls-76{letter-spacing:0em;}.cls-77{letter-spacing:0em;}.cls-78{letter-spacing:0em;}.cls-79{letter-spacing:-0.01em;}.cls-80{letter-spacing:-0.01em;}.cls-81{letter-spacing:-0.01em;}.cls-82{font-size:5px;}.cls-83{letter-spacing:-0.01em;}.cls-84{letter-spacing:0em;}.cls-85{letter-spacing:-0.01em;}.cls-86{letter-spacing:0em;}.cls-87{letter-spacing:0em;}.cls-88{letter-spacing:0em;}.cls-89{letter-spacing:0em;}.cls-90{letter-spacing:0.01em;}.cls-91{letter-spacing:0em;}.cls-92{letter-spacing:-0.01em;}.cls-93{letter-spacing:-0.01em;}.cls-95{letter-spacing:-0.03em;}.cls-96{font-size:5.38px;}.cls-97{letter-spacing:-0.01em;}.cls-98{letter-spacing:0em;}</style><linearGradient id="linear-gradient" x1="155.34" y1="228.6" x2="155.34" y2="243.94" gradientTransform="translate(459.58 75.83) rotate(90)" gradientUnits="userSpaceOnUse"><stop offset="0" stop-color="#fff"/><stop offset="1" stop-color="#fff" stop-opacity="0"/></linearGradient><linearGradient id="linear-gradient-2" x1="159.36" y1="188.31" x2="159.36" y2="200.58" gradientTransform="translate(446.25 40.94) rotate(90)" xlink:href="#linear-gradient"/><linearGradient id="linear-gradient-3" x1="148.36" y1="153.31" x2="148.36" y2="165.58" gradientTransform="translate(423.66 17.42) rotate(90)" xlink:href="#linear-gradient"/><linearGradient id="linear-gradient-4" x1="135.36" y1="115.31" x2="135.36" y2="127.58" gradientTransform="translate(398.29 -7.71) rotate(90)" xlink:href="#linear-gradient"/><linearGradient id="linear-gradient-5" x1="124.36" y1="78.31" x2="124.36" y2="90.58" gradientTransform="translate(374.91 -32.83) rotate(90)" xlink:href="#linear-gradient"/><linearGradient id="linear-gradient-6" x1="167.5" y1="27.75" x2="167.5" y2="40.02" gradientTransform="translate(389.29 -90.15) rotate(90)" xlink:href="#linear-gradient"/><linearGradient id="linear-gradient-7" x1="45.36" y1="67.31" x2="45.36" y2="79.58" gradientTransform="translate(307.65 -10.37) rotate(90)" xlink:href="#linear-gradient"/><linearGradient id="linear-gradient-8" x1="102.34" y1="263.6" x2="102.34" y2="278.94" gradientTransform="translate(431.21 124.65) rotate(90)" xlink:href="#linear-gradient"/><linearGradient id="linear-gradient-9" x1="89.36" y1="178.31" x2="89.36" y2="190.58" gradientTransform="translate(386.56 60.64) rotate(90)" xlink:href="#linear-gradient"/><linearGradient id="linear-gradient-10" x1="56.36" y1="150.31" x2="56.36" y2="162.58" gradientTransform="translate(349.21 51.39) rotate(90)" xlink:href="#linear-gradient"/><linearGradient id="linear-gradient-11" x1="26.36" y1="125.31" x2="26.36" y2="137.58" gradientTransform="translate(315.44 43.33) rotate(90)" xlink:href="#linear-gradient"/><linearGradient id="linear-gradient-12" x1="81.36" y1="228.31" x2="81.36" y2="240.58" gradientTransform="translate(399.94 103.62) rotate(90)" xlink:href="#linear-gradient"/><linearGradient id="linear-gradient-13" x1="45.36" y1="212.31" x2="45.36" y2="224.58" gradientTransform="translate(364.95 105.11) rotate(90)" xlink:href="#linear-gradient"/><linearGradient id="linear-gradient-14" x1="21.36" y1="238.31" x2="21.36" y2="250.58" gradientTransform="translate(356.11 135.3) rotate(90)" xlink:href="#linear-gradient"/><linearGradient id="linear-gradient-15" x1="56.36" y1="257.31" x2="56.36" y2="269.58" gradientTransform="translate(391.5 136.6) rotate(90)" xlink:href="#linear-gradient"/><linearGradient id="linear-gradient-16" x1="36.36" y1="285.31" x2="36.36" y2="297.58" gradientTransform="translate(386.63 166.8) rotate(90)" xlink:href="#linear-gradient"/><linearGradient id="linear-gradient-17" x1="22.36" y1="316.31" x2="22.36" y2="328.58" gradientTransform="translate(387.74 197.02) rotate(90)" xlink:href="#linear-gradient"/><linearGradient id="linear-gradient-18" x1="155.32" y1="266.21" x2="155.32" y2="285.38" gradientTransform="translate(475.19 107.32) rotate(90)" xlink:href="#linear-gradient"/><linearGradient id="linear-gradient-19" x1="172.61" y1="60.61" x2="172.61" y2="72.88" gradientTransform="translate(406.34 -66) rotate(90)" xlink:href="#linear-gradient"/><linearGradient id="linear-gradient-20" x1="183.16" y1="144.7" x2="183.16" y2="156.97" gradientTransform="translate(447.98 -3.2) rotate(90)" xlink:href="#linear-gradient"/><linearGradient id="linear-gradient-21" x1="191.16" y1="182.7" x2="191.16" y2="194.97" gradientTransform="translate(469.37 23.9) rotate(90)" xlink:href="#linear-gradient"/><linearGradient id="linear-gradient-22" x1="-1343.38" y1="-1081.72" x2="-1343.38" y2="-1069.45" gradientTransform="translate(-965 1457.02) rotate(90)" xlink:href="#linear-gradient"/><linearGradient id="linear-gradient-23" x1="-202.87" y1="-30.52" x2="-202.87" y2="-18.25" gradientTransform="translate(5.42 223.62) rotate(90)" xlink:href="#linear-gradient"/><linearGradient id="linear-gradient-24" x1="219.87" y1="25.27" x2="219.87" y2="37.54" gradientTransform="translate(430.01 -112.82) rotate(90)" xlink:href="#linear-gradient"/><linearGradient id="linear-gradient-25" x1="26.36" y1="172.31" x2="26.36" y2="184.58" gradientTransform="translate(334.01 80.76) rotate(90)" xlink:href="#linear-gradient"/><linearGradient id="linear-gradient-26" x1="-98.64" y1="142.31" x2="-98.64" y2="154.58" gradientTransform="translate(222.61 106.27) rotate(90)" xlink:href="#linear-gradient"/></defs><title>Asset 8</title><g id="Layer_2" data-name="Layer 2"><g id="Layer_5" data-name="Layer 5"><path class="cls-1" d="M415.19,126.73q-10.84-9.7-22.63-18.66A358.9,358.9,0,0,0,230.33,38.94"/><polygon class="cls-2" points="418.59 119.76 423.11 134.02 408.5 130.81 418.59 119.76"/><path class="cls-1" d="M187.24,111.92A285.09,285.09,0,0,0,86.78,125.56"/><polygon class="cls-2" points="86.47 117.83 76.61 129.07 91.28 132 86.47 117.83"/><path class="cls-1" d="M122.69,196.3A205.12,205.12,0,0,0,62.24,223"/><polyline class="cls-1" points="352.61 82.65 337.7 110.54 340.99 129.22"/><polygon class="cls-2" points="333.25 128.37 342.86 139.83 347.98 125.77 333.25 128.37"/><line class="cls-1" x1="295.31" y1="182.38" x2="311.84" y2="158.21"/><polygon class="cls-2" points="316.78 164.23 317.91 149.32 304.43 155.79 316.78 164.23"/><path class="cls-1" d="M248.77,203.48a204.53,204.53,0,0,1,30.7,15l15.84-36.07"/><path class="cls-1" d="M143,154.2a244.38,244.38,0,0,0-34.31,7"/><path class="cls-1" d="M294.06,183.54a241.68,241.68,0,0,0-32.77-15.45"/><line class="cls-1" x1="220.59" y1="236.14" x2="179.96" y2="74.69"/><polyline class="cls-1" points="161.46 189.98 155.9 230.13 124.02 197.96"/><polyline class="cls-1" points="156.22 229.95 195.09 268.88 220.68 235.58 248.38 204.5 287.07 95.4"/><line class="cls-1" x1="161.46" y1="189.98" x2="142.47" y2="155.47"/><line class="cls-1" x1="220.59" y1="236.14" x2="230.17" y2="39.99"/><line class="cls-1" x1="266.52" y1="245.41" x2="276.89" y2="219.87"/><polygon class="cls-2" points="274.27 246.2 262.47 255.39 260.41 240.57 274.27 246.2"/><path class="cls-1" d="M152.93,111.93,71.22,12.34A397,397,0,0,0,9.73,34.45"/><polygon class="cls-2" points="8.65 26.84 0 39.05 14.89 40.43 8.65 26.84"/><rect class="cls-3" x="385.23" y="99.86" width="21" height="21" transform="translate(451.46 -296.67) rotate(82.21)"/><rect class="cls-3" x="238.48" y="193.21" width="21" height="21" transform="translate(417.08 -70.58) rotate(82.21)"/><rect class="cls-3" x="283.6" y="173.48" width="21" height="21" transform="translate(436.54 -132.34) rotate(82.21)"/><rect class="cls-3" x="267.6" y="207.78" width="21" height="21" transform="translate(456.69 -86.82) rotate(82.21)"/><rect class="cls-3" x="326.06" y="100.13" width="21" height="21" transform="translate(400.57 -237.82) rotate(82.21)"/><rect class="cls-3" x="263.52" y="120.56" width="21" height="21" transform="translate(366.74 -158.19) rotate(82.21)"/><rect class="cls-3" x="81.86" y="196.07" width="21" height="21" transform="translate(284.51 87.07) rotate(82.21)"/><rect class="cls-3" x="51.96" y="212.29" width="21" height="21" transform="translate(274.74 130.72) rotate(82.21)"/><rect class="cls-3" x="133.18" y="143.37" width="21" height="21" transform="translate(276.67 -9.33) rotate(82.21)"/><rect class="cls-3" x="188.78" y="142.91" width="21" height="21" transform="translate(324.28 -64.82) rotate(82.21)"/><rect class="cls-3" x="142.24" y="100.03" width="21" height="21" transform="translate(241.56 -55.78) rotate(82.21)"/><circle class="cls-4" cx="219.81" cy="235.92" r="14.28" transform="translate(-101.01 268.29) rotate(-52.79)"/><circle class="cls-5" cx="219.03" cy="236.95" r="11.42" transform="translate(-102.14 268.07) rotate(-52.79)"/><ellipse class="cls-6" cx="223.32" cy="231.17" rx="7.67" ry="10.46" transform="translate(-95.85 269.21) rotate(-52.79)"/><circle class="cls-4" cx="249" cy="204.09" r="11.42" transform="translate(-64.13 278.96) rotate(-52.79)"/><circle class="cls-5" cx="248.38" cy="204.92" r="9.14" transform="translate(-65.03 278.79) rotate(-52.79)"/><ellipse class="cls-7" cx="251.81" cy="200.3" rx="6.14" ry="8.37" transform="translate(-60 279.69) rotate(-52.79)"/><circle class="cls-4" cx="261.41" cy="169.57" r="11.42" transform="translate(-31.73 275.2) rotate(-52.79)"/><circle class="cls-5" cx="260.79" cy="170.39" r="9.14" transform="translate(-32.63 275.02) rotate(-52.79)"/><ellipse class="cls-8" cx="264.21" cy="165.77" rx="6.14" ry="8.37" transform="translate(-27.6 275.93) rotate(-52.79)"/><circle class="cls-4" cx="274.04" cy="131.44" r="11.42" transform="translate(3.62 270.19) rotate(-52.79)"/><circle class="cls-5" cx="273.41" cy="132.26" r="9.14" transform="translate(2.72 270.01) rotate(-52.79)"/><ellipse class="cls-9" cx="276.84" cy="127.65" rx="6.14" ry="8.37" transform="translate(7.76 270.92) rotate(-52.79)"/><circle class="cls-4" cx="287.66" cy="95.32" r="11.42" transform="translate(37.77 266.76) rotate(-52.79)"/><circle class="cls-5" cx="287.03" cy="96.15" r="9.14" transform="translate(36.87 266.58) rotate(-52.79)"/><ellipse class="cls-10" cx="290.46" cy="91.53" rx="6.14" ry="8.37" transform="translate(41.9 267.49) rotate(-52.79)"/><circle class="cls-4" cx="352.6" cy="81.15" r="11.42" transform="translate(74.72 312.88) rotate(-52.79)"/><circle class="cls-5" cx="351.98" cy="81.97" r="9.14" transform="translate(73.82 312.7) rotate(-52.79)"/><ellipse class="cls-11" cx="355.4" cy="77.35" rx="6.14" ry="8.37" transform="translate(78.85 313.61) rotate(-52.79)"/><circle class="cls-4" cx="231.4" cy="38.78" r="11.42" transform="translate(60.56 199.61) rotate(-52.79)"/><circle class="cls-5" cx="230.77" cy="39.61" r="9.14" transform="translate(59.66 199.43) rotate(-52.79)"/><ellipse class="cls-12" cx="234.2" cy="34.99" rx="6.14" ry="8.37" transform="translate(64.69 200.34) rotate(-52.79)"/><circle class="cls-4" cx="156.44" cy="231.74" r="14.28" transform="translate(-122.73 216.17) rotate(-52.79)"/><circle class="cls-5" cx="155.65" cy="232.77" r="11.42" transform="translate(-123.86 215.95) rotate(-52.79)"/><ellipse class="cls-13" cx="159.94" cy="226.99" rx="7.67" ry="10.46" transform="translate(-117.56 217.08) rotate(-52.79)"/><circle class="cls-4" cx="199.3" cy="153.79" r="11.42" transform="translate(-43.71 219.5) rotate(-52.79)"/><circle class="cls-5" cx="198.68" cy="154.62" r="9.14" transform="translate(-44.61 219.33) rotate(-52.79)"/><ellipse class="cls-14" cx="202.11" cy="150" rx="6.14" ry="8.37" transform="translate(-39.58 220.24) rotate(-52.79)"/><circle class="cls-4" cx="189.96" cy="111.54" r="11.42" transform="translate(-13.75 195.36) rotate(-52.79)"/><circle class="cls-5" cx="189.33" cy="112.36" r="9.14" transform="translate(-14.66 195.19) rotate(-52.79)"/><ellipse class="cls-15" cx="192.76" cy="107.74" rx="6.14" ry="8.37" transform="translate(-9.62 196.09) rotate(-52.79)"/><circle class="cls-4" cx="181.19" cy="73.48" r="11.42" transform="translate(13.09 173.33) rotate(-52.79)"/><circle class="cls-5" cx="180.56" cy="74.31" r="9.14" transform="translate(12.18 173.16) rotate(-52.79)"/><ellipse class="cls-16" cx="183.99" cy="69.69" rx="6.14" ry="8.37" transform="translate(17.22 174.07) rotate(-52.79)"/><circle class="cls-4" cx="162.69" cy="188.77" r="11.42" transform="translate(-86.04 204.17) rotate(-52.79)"/><circle class="cls-5" cx="162.07" cy="189.6" r="9.14" transform="translate(-86.94 204) rotate(-52.79)"/><ellipse class="cls-17" cx="165.5" cy="184.98" rx="6.14" ry="8.37" transform="translate(-81.91 204.9) rotate(-52.79)"/><circle class="cls-4" cx="143.7" cy="154.26" r="11.42" transform="translate(-66.06 175.4) rotate(-52.79)"/><circle class="cls-5" cx="143.07" cy="155.08" r="9.14" transform="translate(-66.96 175.23) rotate(-52.79)"/><ellipse class="cls-18" cx="146.5" cy="150.46" rx="6.14" ry="8.37" transform="translate(-61.93 176.14) rotate(-52.79)"/><circle class="cls-4" cx="108.86" cy="160.45" r="11.42" transform="translate(-84.76 150.11) rotate(-52.79)"/><circle class="cls-5" cx="108.24" cy="161.27" r="9.14" transform="translate(-85.66 149.93) rotate(-52.79)"/><ellipse class="cls-19" cx="111.67" cy="156.65" rx="6.14" ry="8.37" transform="translate(-80.63 150.84) rotate(-52.79)"/><circle class="cls-4" cx="125.24" cy="196.75" r="11.42" transform="translate(-107.19 177.5) rotate(-52.79)"/><circle class="cls-5" cx="124.62" cy="197.57" r="9.14" transform="translate(-108.09 177.33) rotate(-52.79)"/><ellipse class="cls-20" cx="128.05" cy="192.95" rx="6.14" ry="8.37" transform="translate(-103.06 178.23) rotate(-52.79)"/><circle class="cls-4" cx="92.38" cy="206.95" r="11.42" transform="translate(-128.3 155.36) rotate(-52.79)"/><circle class="cls-5" cx="91.76" cy="207.78" r="9.14" transform="translate(-129.21 155.19) rotate(-52.79)"/><ellipse class="cls-21" cx="95.19" cy="203.16" rx="6.14" ry="8.37" transform="translate(-124.17 156.09) rotate(-52.79)"/><circle class="cls-4" cx="62.49" cy="223.17" r="11.42" transform="translate(-153.04 137.96) rotate(-52.79)"/><circle class="cls-5" cx="61.86" cy="224" r="9.14" transform="translate(-153.94 137.79) rotate(-52.79)"/><ellipse class="cls-22" cx="65.29" cy="219.38" rx="6.14" ry="8.37" transform="translate(-148.91 138.69) rotate(-52.79)"/><circle class="cls-4" cx="195.01" cy="268.57" r="17.85" transform="translate(-136.81 261.45) rotate(-52.79)"/><circle class="cls-5" cx="194.04" cy="269.86" r="14.28" transform="translate(-138.22 261.18) rotate(-52.79)"/><ellipse class="cls-23" cx="199.4" cy="262.64" rx="9.59" ry="13.07" transform="translate(-130.36 262.59) rotate(-52.79)"/><circle class="cls-24" cx="336.72" cy="110.42" r="11.42" transform="translate(45.14 311.8) rotate(-52.79)"/><circle class="cls-25" cx="336.1" cy="111.25" r="9.14" transform="translate(44.23 311.63) rotate(-52.79)"/><ellipse class="cls-26" cx="339.6" cy="106.61" rx="6.14" ry="8.37" transform="translate(49.31 312.58) rotate(-52.79)"/><circle class="cls-24" cx="294.27" cy="183.77" r="11.42" transform="translate(-30.06 306.98) rotate(-52.79)"/><circle class="cls-25" cx="293.64" cy="184.6" r="9.14" transform="translate(-30.96 306.8) rotate(-52.79)"/><ellipse class="cls-27" cx="297.14" cy="179.96" rx="6.14" ry="8.37" transform="translate(-25.89 307.76) rotate(-52.79)"/><circle class="cls-24" cx="277.66" cy="218.87" r="11.42" transform="translate(-64.58 307.62) rotate(-52.79)"/><circle class="cls-25" cx="277.03" cy="219.7" r="9.14" transform="translate(-65.48 307.45) rotate(-52.79)"/><ellipse class="cls-28" cx="280.53" cy="215.06" rx="6.14" ry="8.37" transform="translate(-60.41 308.4) rotate(-52.79)"/><circle class="cls-29" cx="109.71" cy="118.26" r="11.42" transform="translate(-27.64 202.85) rotate(-78.78)"/><circle class="cls-30" cx="109.51" cy="119.27" r="9.14" transform="translate(-28.8 203.47) rotate(-78.78)"/><ellipse class="cls-31" cx="110.58" cy="113.64" rx="6.14" ry="8.37" transform="translate(-22.41 199.99) rotate(-78.78)"/><circle class="cls-29" cx="29.2" cy="25.41" r="11.42" transform="translate(0.01 50.83) rotate(-82.09)"/><circle class="cls-30" cx="29.06" cy="26.43" r="9.14" transform="translate(-1.12 51.58) rotate(-82.09)"/><ellipse class="cls-32" cx="29.81" cy="20.75" rx="6.14" ry="8.37" transform="translate(5.15 47.42) rotate(-82.09)"/><circle class="cls-33" cx="395.73" cy="110.89" r="11.42" transform="translate(68.09 358.97) rotate(-52.79)"/><circle class="cls-34" cx="395.1" cy="111.71" r="9.14" transform="translate(67.18 358.8) rotate(-52.79)"/><ellipse class="cls-35" cx="398.61" cy="107.05" rx="6.14" ry="8.37" transform="translate(72.28 359.75) rotate(-52.79)"/><text class="cls-36" transform="translate(104.2 119.1) rotate(11.22)">J<tspan class="cls-37" x="2.56" y="0">o</tspan><tspan class="cls-38" x="6.32" y="0">y</tspan></text><text class="cls-39" transform="matrix(0.8, 0.6, -0.6, 0.8, 385.97, 105.62)">Jealousy</text><text class="cls-40" transform="matrix(0.8, 0.6, -0.6, 0.8, 178.74, 260.63)">Ene<tspan class="cls-41" x="18.58" y="0">r</tspan><tspan x="22.4" y="0">gy</tspan></text><text class="cls-42" transform="matrix(0.8, 0.6, -0.6, 0.8, 146.35, 226.75)">V<tspan class="cls-43" x="4.08" y="0">itali</tspan><tspan class="cls-44" x="15.49" y="0">t</tspan><tspan class="cls-43" x="18.05" y="0">y</tspan></text><text class="cls-45" transform="matrix(0.8, 0.6, -0.6, 0.8, 193.68, 151.36)"><tspan class="cls-46">F</tspan><tspan class="cls-47" x="3.2" y="0">i</tspan><tspan class="cls-48" x="4.82" y="0">r</tspan><tspan x="7.02" y="0">e</tspan></text><circle class="cls-4" cx="152.76" cy="110.91" r="11.42" transform="translate(-27.96 165.49) rotate(-52.79)"/><circle class="cls-5" cx="152.14" cy="111.74" r="9.14" transform="translate(-28.86 165.32) rotate(-52.79)"/><ellipse class="cls-49" cx="155.56" cy="107.12" rx="6.14" ry="8.37" transform="translate(-23.83 166.22) rotate(-52.79)"/><text class="cls-50" transform="matrix(0.8, 0.6, -0.6, 0.8, 143.62, 104.84)">E<tspan class="cls-51" x="2.13" y="0">x</tspan><tspan class="cls-52" x="4.06" y="0">ci</tspan><tspan class="cls-53" x="7.01" y="0">t</tspan><tspan x="8.41" y="0">eme</tspan><tspan class="cls-54" x="16.35" y="0">n</tspan><tspan x="18.73" y="0">t</tspan></text><circle class="cls-4" cx="71.36" cy="11.42" r="11.42" transform="translate(19.1 61.34) rotate(-52.79)"/><circle class="cls-5" cx="70.73" cy="12.25" r="9.14" transform="translate(18.2 61.17) rotate(-52.79)"/><ellipse class="cls-55" cx="74.16" cy="7.63" rx="6.14" ry="8.37" transform="translate(23.24 62.07) rotate(-52.79)"/><text class="cls-56" transform="matrix(0.8, 0.6, -0.6, 0.8, 62.1, 5.51)"><tspan class="cls-57">I</tspan><tspan x="1.24" y="0">mpulsi</tspan><tspan class="cls-58" x="15.31" y="0">v</tspan><tspan class="cls-59" x="17.66" y="0">e</tspan></text><text class="cls-45" transform="matrix(0.8, 0.6, -0.6, 0.8, 182.51, 109.86)">He<tspan class="cls-60" x="8" y="0">a</tspan><tspan x="11.31" y="0">t</tspan></text><text class="cls-61" transform="matrix(0.8, 0.6, -0.6, 0.8, 171.42, 68.24)">C<tspan class="cls-62" x="2.22" y="0">onsequen</tspan><tspan class="cls-63" x="18.49" y="0">c</tspan><tspan class="cls-64" x="20.21" y="0">e</tspan></text><text class="cls-45" transform="matrix(0.8, 0.6, -0.6, 0.8, 240.96, 201.08)"><tspan class="cls-65">A</tspan><tspan x="4.22" y="0">nger</tspan></text><text class="cls-45" transform="matrix(0.8, 0.6, -0.6, 0.8, 253.74, 167.72)"><tspan class="cls-66">R</tspan><tspan x="3.81" y="0">age</tspan></text><text class="cls-39" transform="matrix(0.8, 0.6, -0.6, 0.8, 278.64, 90.29)"><tspan class="cls-67">V</tspan><tspan x="3.25" y="0">iolen</tspan><tspan class="cls-68" x="15.7" y="0">c</tspan><tspan x="18.35" y="0">e</tspan></text><text class="cls-69" transform="matrix(0.8, 0.6, -0.6, 0.8, 264.05, 126.03)"><tspan class="cls-70">V</tspan><tspan x="2.57" y="0">engean</tspan><tspan class="cls-71" x="18.02" y="0">c</tspan><tspan x="20.19" y="0">e</tspan></text><text class="cls-45" transform="matrix(0.8, 0.6, -0.6, 0.8, 134.68, 151.2)">Blood</text><text class="cls-72" transform="matrix(0.8, 0.6, -0.6, 0.8, 52.68, 217.9)">P<tspan class="cls-73" x="2.48" y="0">r</tspan><tspan class="cls-74" x="4" y="0">ohibition</tspan></text><text class="cls-39" transform="matrix(0.8, 0.6, -0.6, 0.8, 83.2, 202.51)"><tspan class="cls-75">C</tspan><tspan x="3.41" y="0">ou</tspan><tspan class="cls-76" x="10.01" y="0">n</tspan><tspan class="cls-68" x="13.32" y="0">t</tspan><tspan x="15.27" y="0">er</tspan></text><text class="cls-39" transform="matrix(0.8, 0.6, -0.6, 0.8, 115, 192.05)"><tspan class="cls-77">S</tspan><tspan class="cls-78" x="2.94" y="0">t</tspan><tspan class="cls-79" x="4.93" y="0">r</tspan><tspan x="6.83" y="0">ength</tspan></text><text class="cls-39" transform="matrix(0.8, 0.6, -0.6, 0.8, 153.03, 183.26)">Li<tspan class="cls-80" x="4.24" y="0">f</tspan><tspan x="5.91" y="0">e</tspan><tspan class="cls-80" x="8.92" y="0">f</tspan><tspan x="10.59" y="0">o</tspan><tspan class="cls-79" x="13.88" y="0">r</tspan><tspan class="cls-81" x="15.79" y="0">c</tspan><tspan x="18.44" y="0">e</tspan></text><text class="cls-82" transform="matrix(0.8, 0.6, -0.6, 0.8, 101.59, 154.58)"><tspan class="cls-83">T</tspan><tspan class="cls-84" x="2.45" y="0">h</tspan><tspan class="cls-85" x="5.22" y="0">r</tspan><tspan class="cls-86" x="6.81" y="0">e</tspan><tspan class="cls-87" x="9.32" y="0">a</tspan><tspan x="11.71" y="0">t of</tspan><tspan x="1.59" y="6">Danger</tspan></text><text class="cls-45" transform="matrix(0.8, 0.6, -0.6, 0.8, 270.17, 214.95)"><tspan class="cls-88">D</tspan><tspan class="cls-89" x="4.65" y="0">e</tspan><tspan class="cls-60" x="8.12" y="0">a</tspan><tspan x="11.43" y="0">th</tspan></text><text class="cls-82" transform="matrix(0.8, 0.6, -0.6, 0.8, 285.62, 178.07)"><tspan class="cls-90">M</tspan><tspan x="4.05" y="0">ou</tspan><tspan class="cls-91" x="9.55" y="0">r</tspan><tspan class="cls-84" x="11.21" y="0">ning</tspan></text><text class="cls-45" transform="matrix(0.8, 0.6, -0.6, 0.8, 225.41, 37.9)"><tspan class="cls-92">L</tspan><tspan x="3.17" y="0">ust</tspan></text><text class="cls-45" transform="matrix(0.8, 0.6, -0.6, 0.8, 344.58, 77.98)"><tspan class="cls-88">D</tspan><tspan class="cls-89" x="4.65" y="0">esi</tspan><tspan class="cls-48" x="12.49" y="0">r</tspan><tspan x="14.69" y="0">e</tspan></text><text class="cls-45" transform="matrix(0.8, 0.6, -0.6, 0.8, 329.17, 106.45)">U<tspan class="cls-93" x="4.49" y="0">r</tspan><tspan x="6.7" y="0">ges</tspan></text><text class="cls-94" transform="matrix(0.8, 0.6, -0.6, 0.8, 209.15, 231.35)"><tspan class="cls-95">P</tspan><tspan x="3.81" y="0">assion</tspan></text><text class="cls-96" transform="translate(18.39 25.04) rotate(10.18)">Ene<tspan class="cls-97" x="8.33" y="0">r</tspan><tspan class="cls-98" x="10.05" y="0">getic</tspan></text></g></g></svg>