<svg xmlns="http://www.w3.org/2000/svg" xmlns:xlink="http://www.w3.org/1999/xlink" viewBox="0 0 368.84 275.72"><defs><style>.cls-1,.cls-116{fill:none;}.cls-1{stroke:#c1c1c1;stroke-width:5px;}.cls-1,.cls-3{stroke-miterlimit:10;}.cls-2{fill:#c1c1c1;}.cls-3{fill:#1a1a1a;stroke:#fff;}.cls-4{fill:#ff2751;}.cls-5{fill:#db0f40;}.cls-6{fill:url(#linear-gradient);}.cls-7{fill:url(#linear-gradient-2);}.cls-8{fill:url(#linear-gradient-3);}.cls-9{fill:#2d2d2d;}.cls-10{fill:#121212;}.cls-11{fill:url(#linear-gradient-4);}.cls-12{fill:url(#linear-gradient-5);}.cls-13{fill:url(#linear-gradient-6);}.cls-14{fill:url(#linear-gradient-7);}.cls-15{fill:url(#linear-gradient-8);}.cls-16{fill:url(#linear-gradient-9);}.cls-17{fill:url(#linear-gradient-10);}.cls-18{fill:url(#linear-gradient-11);}.cls-19{fill:url(#linear-gradient-12);}.cls-20{fill:url(#linear-gradient-13);}.cls-21{fill:url(#linear-gradient-14);}.cls-22{fill:url(#linear-gradient-15);}.cls-23{fill:url(#linear-gradient-16);}.cls-24{fill:url(#linear-gradient-17);}.cls-25{fill:url(#linear-gradient-18);}.cls-26{fill:url(#linear-gradient-19);}.cls-27{fill:url(#linear-gradient-20);}.cls-28{fill:#ed7f2e;}.cls-29{fill:#cc5e15;}.cls-30{fill:url(#linear-gradient-21);}.cls-31{fill:#f7d8aa;}.cls-32{fill:#d6ad76;}.cls-33{fill:url(#linear-gradient-22);}.cls-34{fill:url(#linear-gradient-23);}.cls-35{fill:url(#linear-gradient-24);}.cls-36{fill:url(#linear-gradient-25);}.cls-37{fill:url(#linear-gradient-26);}.cls-38{fill:#7f7f7f;}.cls-39{fill:#515151;}.cls-40{fill:url(#linear-gradient-27);}.cls-41{fill:url(#linear-gradient-28);}.cls-42{fill:url(#linear-gradient-29);}.cls-43{fill:#c9c9c9;}.cls-44{fill:#a8a8a8;}.cls-45{fill:url(#linear-gradient-30);}.cls-46{font-size:5px;}.cls-105,.cls-113,.cls-46,.cls-50,.cls-65,.cls-68,.cls-71,.cls-76,.cls-81,.cls-85{fill:#fff;font-family:MyriadPro-Regular, Myriad Pro;}.cls-47{letter-spacing:0em;}.cls-48{letter-spacing:0em;}.cls-49{letter-spacing:0.01em;}.cls-105,.cls-50{font-size:6px;}.cls-51{letter-spacing:0.01em;}.cls-52{letter-spacing:0em;}.cls-53{letter-spacing:0em;}.cls-54{letter-spacing:-0.01em;}.cls-55{letter-spacing:-0.01em;}.cls-56{letter-spacing:-0.01em;}.cls-57{letter-spacing:0.02em;}.cls-58{letter-spacing:0em;}.cls-59{letter-spacing:-0.01em;}.cls-60{letter-spacing:0em;}.cls-61{letter-spacing:0em;}.cls-62{letter-spacing:0em;}.cls-63{letter-spacing:-0.02em;}.cls-64{letter-spacing:0.02em;}.cls-65,.cls-81{font-size:6.93px;}.cls-66{letter-spacing:0em;}.cls-67{letter-spacing:0.01em;}.cls-68{font-size:6.71px;}.cls-69{letter-spacing:-0.01em;}.cls-70{letter-spacing:0.01em;}.cls-71{font-size:8px;}.cls-72{letter-spacing:0.01em;}.cls-73{letter-spacing:-0.01em;}.cls-74{letter-spacing:-0.01em;}.cls-75{letter-spacing:0.03em;}.cls-76{font-size:4.7px;}.cls-77{letter-spacing:-0.01em;}.cls-78{letter-spacing:-0.01em;}.cls-79{letter-spacing:0.01em;}.cls-80{letter-spacing:-0.01em;}.cls-81{letter-spacing:0.01em;}.cls-82{letter-spacing:0em;}.cls-83{letter-spacing:-0.01em;}.cls-84{letter-spacing:0.01em;}.cls-85{font-size:4.5px;}.cls-86{letter-spacing:-0.02em;}.cls-87{letter-spacing:-0.01em;}.cls-88{letter-spacing:0.01em;}.cls-89{letter-spacing:0.01em;}.cls-90{letter-spacing:0.01em;}.cls-91{letter-spacing:0.01em;}.cls-92{letter-spacing:0em;}.cls-93{letter-spacing:0em;}.cls-94{letter-spacing:0em;}.cls-95{letter-spacing:0em;}.cls-96{letter-spacing:0em;}.cls-97{letter-spacing:0.01em;}.cls-98{letter-spacing:0em;}.cls-99{letter-spacing:0em;}.cls-100{letter-spacing:0em;}.cls-101{letter-spacing:0.01em;}.cls-102{letter-spacing:-0.05em;}.cls-103{letter-spacing:0em;}.cls-104{letter-spacing:-0.01em;}.cls-105{letter-spacing:0em;}.cls-106{letter-spacing:0em;}.cls-107{letter-spacing:-0.03em;}.cls-108{letter-spacing:0.01em;}.cls-109{letter-spacing:0em;}.cls-110{letter-spacing:-0.01em;}.cls-111{letter-spacing:-0.01em;}.cls-112{letter-spacing:-0.01em;}.cls-113{font-size:5.74px;}.cls-114{letter-spacing:-0.07em;}.cls-115{letter-spacing:0em;}</style><linearGradient id="linear-gradient" x1="43.28" y1="72.65" x2="43.28" y2="84.92" gradientTransform="translate(19.45 144.33)" gradientUnits="userSpaceOnUse"><stop offset="0" stop-color="#fff"/><stop offset="1" stop-color="#fff" stop-opacity="0"/></linearGradient><linearGradient id="linear-gradient-2" x1="32.28" y1="37.65" x2="32.28" y2="49.92" gradientTransform="translate(3.13 154.85)" xlink:href="#linear-gradient"/><linearGradient id="linear-gradient-3" x1="343.28" y1="4.65" x2="343.28" y2="16.92" gradientTransform="translate(-57.3 0.7)" xlink:href="#linear-gradient"/><linearGradient id="linear-gradient-4" x1="100.07" y1="135.9" x2="100.07" y2="155.07" gradientTransform="translate(45.55 105.99)" xlink:href="#linear-gradient"/><linearGradient id="linear-gradient-5" x1="85.08" y1="101.31" x2="85.08" y2="116.65" gradientTransform="translate(29.01 118.76)" xlink:href="#linear-gradient"/><linearGradient id="linear-gradient-6" x1="166.08" y1="75.04" x2="166.08" y2="87.31" gradientTransform="translate(3.46 81.3)" xlink:href="#linear-gradient"/><linearGradient id="linear-gradient-7" x1="215.08" y1="99.04" x2="215.08" y2="111.31" gradientTransform="translate(8.85 52.92)" xlink:href="#linear-gradient"/><linearGradient id="linear-gradient-8" x1="240.08" y1="118.04" x2="240.08" y2="130.31" gradientTransform="translate(15.05 37.5)" xlink:href="#linear-gradient"/><linearGradient id="linear-gradient-9" x1="261.08" y1="142.04" x2="261.08" y2="154.31" gradientTransform="translate(24.36 23.41)" xlink:href="#linear-gradient"/><linearGradient id="linear-gradient-10" x1="256.08" y1="86.04" x2="256.08" y2="98.31" gradientTransform="translate(-3.53 33.81)" xlink:href="#linear-gradient"/><linearGradient id="linear-gradient-11" x1="67.08" y1="29.04" x2="67.08" y2="41.31" gradientTransform="translate(-6.15 138.29)" xlink:href="#linear-gradient"/><linearGradient id="linear-gradient-12" x1="55.08" y1="-48.96" x2="55.08" y2="-36.69" gradientTransform="translate(-44.28 155.34)" xlink:href="#linear-gradient"/><linearGradient id="linear-gradient-13" x1="113.08" y1="29.04" x2="113.08" y2="41.31" gradientTransform="translate(-12.59 114.8)" xlink:href="#linear-gradient"/><linearGradient id="linear-gradient-14" x1="115.08" y1="-12.96" x2="115.08" y2="-0.69" gradientTransform="translate(-34.31 119.67)" xlink:href="#linear-gradient"/><linearGradient id="linear-gradient-15" x1="118.08" y1="-50.96" x2="118.08" y2="-38.69" gradientTransform="translate(-54.13 123.46)" xlink:href="#linear-gradient"/><linearGradient id="linear-gradient-16" x1="107.08" y1="64.04" x2="107.08" y2="76.31" gradientTransform="translate(6.12 112.96)" xlink:href="#linear-gradient"/><linearGradient id="linear-gradient-17" x1="64.08" y1="-10.96" x2="64.08" y2="1.31" gradientTransform="translate(-26.15 145.42)" xlink:href="#linear-gradient"/><linearGradient id="linear-gradient-18" x1="75.08" y1="67.04" x2="75.08" y2="79.31" gradientTransform="translate(12.13 128.88)" xlink:href="#linear-gradient"/><linearGradient id="linear-gradient-19" x1="129.08" y1="104.31" x2="129.08" y2="119.65" gradientTransform="translate(24.38 95.87)" xlink:href="#linear-gradient"/><linearGradient id="linear-gradient-20" x1="170.08" y1="117.31" x2="170.08" y2="132.65" gradientTransform="translate(25.27 73.12)" xlink:href="#linear-gradient"/><linearGradient id="linear-gradient-21" x1="328.49" y1="114.3" x2="328.49" y2="126.57" gradientTransform="translate(0.75 -7.11)" xlink:href="#linear-gradient"/><linearGradient id="linear-gradient-22" x1="241.98" y1="-18.13" x2="241.98" y2="-5.86" gradientTransform="translate(-54.73 55.61)" xlink:href="#linear-gradient"/><linearGradient id="linear-gradient-23" x1="271.98" y1="-1.13" x2="271.98" y2="11.14" gradientTransform="translate(-50.26 37.91)" xlink:href="#linear-gradient"/><linearGradient id="linear-gradient-24" x1="255.98" y1="31.87" x2="255.98" y2="44.14" gradientTransform="translate(-31.17 41.45)" xlink:href="#linear-gradient"/><linearGradient id="linear-gradient-25" x1="187.98" y1="-0.13" x2="187.98" y2="12.14" gradientTransform="translate(-37.97 80.65)" xlink:href="#linear-gradient"/><linearGradient id="linear-gradient-26" x1="226.98" y1="15.87" x2="226.98" y2="28.14" gradientTransform="translate(-35.27 58.5)" xlink:href="#linear-gradient"/><linearGradient id="linear-gradient-27" x1="146.94" y1="-9.01" x2="146.94" y2="3.26" gradientTransform="translate(-36.76 102.85)" xlink:href="#linear-gradient"/><linearGradient id="linear-gradient-28" x1="178.94" y1="-2.01" x2="178.94" y2="10.26" gradientTransform="translate(-37.67 85.53)" xlink:href="#linear-gradient"/><linearGradient id="linear-gradient-29" x1="218.94" y1="11.99" x2="218.94" y2="24.26" gradientTransform="translate(-36.13 63.15)" xlink:href="#linear-gradient"/><linearGradient id="linear-gradient-30" x1="278.83" y1="104.99" x2="278.83" y2="117.26" gradientTransform="translate(2.96 19.55)" xlink:href="#linear-gradient"/></defs><title>Asset 6</title><g id="Layer_2" data-name="Layer 2"><g id="Layer_5" data-name="Layer 5"><path class="cls-1" d="M284.42,135.32a244.51,244.51,0,0,0-28.86-6.82"/><path class="cls-1" d="M287.51,15a361.62,361.62,0,0,0-81.23-7.5"/><polygon class="cls-2" points="208.23 0 195.53 7.9 208.72 14.95 208.23 0"/><polyline class="cls-1" points="62.49 176.06 40.35 142.69 12.36 115.12"/><path class="cls-1" d="M64.55,227.12A204.53,204.53,0,0,1,90,204.3L62.49,176.06"/><path class="cls-1" d="M288.17,176.24a206.66,206.66,0,0,0-61.56-13.4"/><path class="cls-1" d="M223.54,47.23A320.35,320.35,0,0,0,189.6,48"/><path class="cls-1" d="M63.1,177.65a241.68,241.68,0,0,0-26.64,24.56"/><polyline class="cls-1" points="75.9 249.33 65.34 227.87 18.76 186.5"/><polygon class="cls-2" points="81.64 244.06 80.65 258.99 68.22 250.67 81.64 244.06"/><polygon class="cls-2" points="25.37 182.36 10.71 179.35 15.43 193.54 25.37 182.36"/><line class="cls-1" x1="150.6" y1="259.82" x2="156.3" y2="214.57"/><line class="cls-1" x1="150.6" y1="259.82" x2="199.05" y2="204.31"/><path class="cls-1" d="M359.82,46.58a303.94,303.94,0,0,0-71.51-32.32L234.46,125.79a242.68,242.68,0,0,0-50.24,1l-27.24,88"/><polygon class="cls-2" points="362 39.16 368.84 52.47 353.9 51.74 362 39.16"/><line class="cls-1" x1="287.97" y1="176.77" x2="332.07" y2="117.37"/><line class="cls-1" x1="198.71" y1="202.76" x2="226.69" y2="161.73"/><line class="cls-1" x1="227.37" y1="161.91" x2="255.48" y2="128.94"/><line class="cls-1" x1="117.79" y1="233.94" x2="90.3" y2="207.23"/><polyline class="cls-1" points="67.04 83.81 103.58 155.16 115.82 187.59 117.79 233.94 150.6 259.82"/><path class="cls-1" d="M227,86.69A281.92,281.92,0,0,0,83.91,118.14"/><line class="cls-1" x1="149.66" y1="91.74" x2="190.86" y2="47.52"/><rect class="cls-3" x="244.63" y="119.81" width="21" height="21" transform="translate(40.1 -58.99) rotate(14.3)"/><rect class="cls-3" x="321.59" y="107.4" width="21" height="21" transform="translate(39.42 -78.38) rotate(14.3)"/><rect class="cls-3" x="216.01" y="151.92" width="21" height="21" transform="translate(47.14 -50.92) rotate(14.3)"/><rect class="cls-3" x="54.33" y="216.51" width="21" height="21" transform="translate(58.09 -8.98) rotate(14.3)"/><rect class="cls-3" x="53.01" y="167.28" width="21" height="21" transform="translate(45.89 -10.18) rotate(14.3)"/><rect class="cls-3" x="78.78" y="195.01" width="21" height="21" transform="translate(53.54 -15.69) rotate(14.3)"/><rect class="cls-3" x="2.88" y="106.34" width="21" height="21" transform="translate(29.28 0.32) rotate(14.3)"/><rect class="cls-3" x="161.63" y="156.29" width="21" height="21" transform="translate(46.54 -37.35) rotate(14.3)"/><rect class="cls-3" x="102.41" y="93.77" width="21" height="21" transform="translate(29.26 -24.66) rotate(14.3)"/><rect class="cls-3" x="213.46" y="35.97" width="21" height="21" transform="translate(18.42 -53.89) rotate(14.3)"/><rect class="cls-3" x="133.49" y="83.45" width="21" height="21" transform="translate(27.67 -32.66) rotate(14.3)"/><rect class="cls-3" x="141.74" y="79.71" width="21" height="21" transform="translate(27 -34.81) rotate(14.3)"/><rect class="cls-3" x="92.57" y="143.8" width="21" height="21" transform="translate(41.31 -20.68) rotate(14.3)"/><circle class="cls-4" cx="65.2" cy="227.13" r="11.42" transform="translate(-106.82 65.11) rotate(-30.7)"/><circle class="cls-5" cx="65.72" cy="228.02" r="9.14" transform="translate(-107.2 65.5) rotate(-30.7)"/><ellipse class="cls-6" cx="62.73" cy="223.11" rx="8.37" ry="6.14" transform="translate(-105.11 63.29) rotate(-30.7)"/><circle class="cls-4" cx="37.87" cy="202.65" r="11.42" transform="translate(-98.15 47.73) rotate(-30.7)"/><circle class="cls-5" cx="38.4" cy="203.54" r="9.14" transform="translate(-98.53 48.12) rotate(-30.7)"/><ellipse class="cls-7" cx="35.41" cy="198.63" rx="8.37" ry="6.14" transform="translate(-96.44 45.91) rotate(-30.7)"/><circle class="cls-4" cx="288.44" cy="15.51" r="11.42" transform="translate(32.5 149.43) rotate(-30.7)"/><circle class="cls-5" cx="288.97" cy="16.4" r="9.14" transform="translate(32.12 149.82) rotate(-30.7)"/><ellipse class="cls-8" cx="285.98" cy="11.48" rx="8.37" ry="6.14" transform="translate(34.21 147.6) rotate(-30.7)"/><circle class="cls-9" cx="149.45" cy="257.87" r="17.85" transform="translate(-110.7 112.43) rotate(-30.7)"/><circle class="cls-10" cx="150.28" cy="259.26" r="14.28" transform="translate(-111.3 113.05) rotate(-30.7)"/><ellipse class="cls-11" cx="145.62" cy="251.47" rx="13.07" ry="9.59" transform="translate(-107.97 109.58) rotate(-30.7)"/><circle class="cls-9" cx="117.15" cy="232.85" r="14.28" transform="translate(-102.46 92.44) rotate(-30.7)"/><circle class="cls-10" cx="117.81" cy="233.96" r="11.42" transform="translate(-102.93 92.93) rotate(-30.7)"/><ellipse class="cls-12" cx="114.09" cy="227.73" rx="10.46" ry="7.67" transform="matrix(0.86, -0.51, 0.51, 0.86, -100.27, 90.16)"/><circle class="cls-9" cx="172" cy="166.57" r="11.42" transform="translate(-60.93 111.15) rotate(-30.7)"/><circle class="cls-10" cx="172.53" cy="167.45" r="9.14" transform="translate(-61.31 111.54) rotate(-30.7)"/><ellipse class="cls-13" cx="169.55" cy="162.47" rx="8.37" ry="6.14" transform="translate(-59.18 109.32) rotate(-30.7)"/><circle class="cls-9" cx="226.38" cy="162.19" r="11.42" transform="matrix(0.86, -0.51, 0.51, 0.86, -51.08, 138.3)"/><circle class="cls-10" cx="226.91" cy="163.08" r="9.14" transform="translate(-51.46 138.69) rotate(-30.7)"/><ellipse class="cls-14" cx="223.93" cy="158.09" rx="8.37" ry="6.14" transform="matrix(0.86, -0.51, 0.51, 0.86, -49.33, 136.47)"/><circle class="cls-9" cx="257.58" cy="165.76" r="11.42" transform="translate(-48.53 154.73) rotate(-30.7)"/><circle class="cls-10" cx="258.11" cy="166.65" r="9.14" transform="translate(-48.91 155.12) rotate(-30.7)"/><ellipse class="cls-15" cx="255.13" cy="161.67" rx="8.37" ry="6.14" transform="translate(-46.78 152.9) rotate(-30.7)"/><circle class="cls-9" cx="287.89" cy="175.68" r="11.42" transform="translate(-49.34 171.59) rotate(-30.7)"/><circle class="cls-10" cx="288.42" cy="176.57" r="9.14" transform="translate(-49.72 171.98) rotate(-30.7)"/><ellipse class="cls-16" cx="285.44" cy="171.58" rx="8.37" ry="6.14" transform="matrix(0.86, -0.51, 0.51, 0.86, -47.6, 169.76)"/><circle class="cls-9" cx="255" cy="130.08" r="11.42" transform="translate(-30.67 148.41) rotate(-30.7)"/><circle class="cls-10" cx="255.53" cy="130.97" r="9.14" transform="translate(-31.05 148.8) rotate(-30.7)"/><ellipse class="cls-17" cx="252.55" cy="125.98" rx="8.37" ry="6.14" transform="translate(-28.93 146.58) rotate(-30.7)"/><circle class="cls-9" cx="63.39" cy="177.55" r="11.42" transform="translate(-81.76 57.24) rotate(-30.7)"/><circle class="cls-10" cx="63.92" cy="178.44" r="9.14" transform="translate(-82.14 57.63) rotate(-30.7)"/><ellipse class="cls-18" cx="60.94" cy="173.46" rx="8.37" ry="6.14" transform="translate(-80.01 55.42) rotate(-30.7)"/><circle class="cls-9" cx="13.25" cy="116.61" r="11.42" transform="translate(-57.67 23.1) rotate(-30.7)"/><circle class="cls-10" cx="13.78" cy="117.5" r="9.14" transform="translate(-58.05 23.5) rotate(-30.7)"/><ellipse class="cls-19" cx="10.8" cy="112.51" rx="8.37" ry="6.14" transform="translate(-55.93 21.28) rotate(-30.7)"/><circle class="cls-9" cx="102.94" cy="154.07" r="11.42" transform="translate(-64.23 74.14) rotate(-30.7)"/><circle class="cls-10" cx="103.47" cy="154.96" r="9.14" transform="translate(-64.61 74.54) rotate(-30.7)"/><ellipse class="cls-20" cx="100.49" cy="149.97" rx="8.37" ry="6.14" transform="translate(-62.48 72.32) rotate(-30.7)"/><circle class="cls-9" cx="83.22" cy="116.93" r="11.42" transform="translate(-48.03 58.87) rotate(-30.7)"/><circle class="cls-10" cx="83.75" cy="117.82" r="9.14" transform="translate(-48.41 59.26) rotate(-30.7)"/><ellipse class="cls-21" cx="80.77" cy="112.84" rx="8.37" ry="6.14" transform="translate(-46.29 57.05) rotate(-30.7)"/><circle class="cls-9" cx="66.4" cy="82.73" r="11.42" transform="translate(-32.93 45.49) rotate(-30.7)"/><circle class="cls-10" cx="66.93" cy="83.62" r="9.14" transform="translate(-33.31 45.88) rotate(-30.7)"/><ellipse class="cls-22" cx="63.95" cy="78.63" rx="8.37" ry="6.14" transform="matrix(0.86, -0.51, 0.51, 0.86, -31.18, 43.67)"/><circle class="cls-9" cx="115.65" cy="187.23" r="11.42" transform="translate(-79.38 85.28) rotate(-30.7)"/><circle class="cls-10" cx="116.18" cy="188.12" r="9.14" transform="translate(-79.76 85.67) rotate(-30.7)"/><ellipse class="cls-23" cx="113.2" cy="183.13" rx="8.37" ry="6.14" transform="translate(-77.63 83.45) rotate(-30.7)"/><circle class="cls-9" cx="40.39" cy="144.69" r="11.42" transform="translate(-68.21 40.89) rotate(-30.7)"/><circle class="cls-10" cx="40.92" cy="145.58" r="9.14" transform="translate(-68.59 41.29) rotate(-30.7)"/><ellipse class="cls-24" cx="37.94" cy="140.59" rx="8.37" ry="6.14" transform="translate(-66.46 39.07) rotate(-30.7)"/><circle class="cls-9" cx="89.67" cy="206.14" r="11.42" transform="translate(-92.67 74.66) rotate(-30.7)"/><circle class="cls-10" cx="90.19" cy="207.03" r="9.14" transform="translate(-93.05 75.06) rotate(-30.7)"/><ellipse class="cls-25" cx="87.22" cy="202.05" rx="8.37" ry="6.14" transform="translate(-90.93 72.84) rotate(-30.7)"/><circle class="cls-9" cx="156.52" cy="212.97" r="14.28" transform="translate(-86.79 109.75) rotate(-30.7)"/><circle class="cls-10" cx="157.18" cy="214.08" r="11.42" transform="translate(-87.27 110.24) rotate(-30.7)"/><ellipse class="cls-26" cx="153.46" cy="207.85" rx="10.46" ry="7.67" transform="matrix(0.86, -0.51, 0.51, 0.86, -84.61, 107.47)"/><circle class="cls-9" cx="198.41" cy="203.22" r="14.28" transform="translate(-75.94 129.77) rotate(-30.7)"/><circle class="cls-10" cx="199.07" cy="204.33" r="11.42" transform="translate(-76.42 130.26) rotate(-30.7)"/><ellipse class="cls-27" cx="195.35" cy="198.1" rx="10.46" ry="7.67" transform="translate(-73.76 127.49) rotate(-30.7)"/><circle class="cls-28" cx="331.73" cy="117.41" r="11.42" transform="translate(-13.45 185.8) rotate(-30.7)"/><circle class="cls-29" cx="332.26" cy="118.3" r="9.14" transform="translate(-13.83 186.2) rotate(-30.7)"/><ellipse class="cls-30" cx="329.25" cy="113.32" rx="8.37" ry="6.14" transform="matrix(0.86, -0.51, 0.51, 0.86, -11.72, 183.96)"/><circle class="cls-31" cx="189.61" cy="47.5" r="11.42" transform="translate(2.32 103.45) rotate(-30.7)"/><circle class="cls-32" cx="190.14" cy="48.39" r="9.14" transform="translate(1.94 103.85) rotate(-30.7)"/><ellipse class="cls-33" cx="187.25" cy="43.62" rx="8.37" ry="6.14" transform="translate(3.97 101.7) rotate(-30.7)"/><circle class="cls-31" cx="224.09" cy="46.8" r="11.42" transform="translate(7.51 120.96) rotate(-30.7)"/><circle class="cls-32" cx="224.61" cy="47.69" r="9.14" transform="translate(7.13 121.35) rotate(-30.7)"/><ellipse class="cls-34" cx="221.72" cy="42.92" rx="8.37" ry="6.14" transform="translate(9.16 119.21) rotate(-30.7)"/><circle class="cls-31" cx="227.18" cy="83.34" r="11.42" transform="translate(-10.71 127.65) rotate(-30.7)"/><circle class="cls-32" cx="227.7" cy="84.23" r="9.14" transform="translate(-11.09 128.05) rotate(-30.7)"/><ellipse class="cls-35" cx="224.81" cy="79.46" rx="8.37" ry="6.14" transform="translate(-9.06 125.9) rotate(-30.7)"/><circle class="cls-31" cx="152.37" cy="90.54" r="11.42" transform="translate(-24.87 90.47) rotate(-30.7)"/><circle class="cls-32" cx="152.9" cy="91.43" r="9.14" transform="translate(-25.25 90.87) rotate(-30.7)"/><ellipse class="cls-36" cx="150" cy="86.66" rx="8.37" ry="6.14" transform="translate(-23.22 88.72) rotate(-30.7)"/><circle class="cls-31" cx="194.07" cy="84.39" r="11.42" transform="translate(-15.89 110.9) rotate(-30.7)"/><circle class="cls-32" cx="194.6" cy="85.28" r="9.14" transform="translate(-16.27 111.3) rotate(-30.7)"/><ellipse class="cls-37" cx="191.71" cy="80.51" rx="8.37" ry="6.14" transform="translate(-14.24 109.15) rotate(-30.7)"/><circle class="cls-38" cx="112.61" cy="103.99" r="11.42" transform="translate(-37.31 72.06) rotate(-30.7)"/><circle class="cls-39" cx="113.14" cy="104.88" r="9.14" transform="translate(-37.69 72.46) rotate(-30.7)"/><ellipse class="cls-40" cx="110.18" cy="99.98" rx="8.37" ry="6.14" transform="translate(-35.6 70.26) rotate(-30.7)"/><circle class="cls-38" cx="143.7" cy="93.67" r="11.42" transform="matrix(0.86, -0.51, 0.51, 0.86, -27.68, 86.49)"/><circle class="cls-39" cx="144.23" cy="94.56" r="9.14" transform="translate(-28.06 86.88) rotate(-30.7)"/><ellipse class="cls-41" cx="141.27" cy="89.66" rx="8.37" ry="6.14" transform="translate(-25.98 84.68) rotate(-30.7)"/><circle class="cls-38" cx="185.24" cy="85.29" r="11.42" transform="translate(-17.58 106.52) rotate(-30.7)"/><circle class="cls-39" cx="185.77" cy="86.18" r="9.14" transform="translate(-17.96 106.91) rotate(-30.7)"/><ellipse class="cls-42" cx="182.81" cy="81.28" rx="8.37" ry="6.14" transform="translate(-15.88 104.72) rotate(-30.7)"/><circle class="cls-43" cx="284.11" cy="134.75" r="11.42" transform="translate(-28.98 163.92) rotate(-30.7)"/><circle class="cls-44" cx="284.64" cy="135.64" r="9.14" transform="translate(-29.36 164.32) rotate(-30.7)"/><ellipse class="cls-45" cx="281.78" cy="130.67" rx="8.37" ry="6.14" transform="translate(-27.22 162.17) rotate(-30.7)"/><text class="cls-46" transform="translate(181.48 54.44) rotate(-30.7)">Unbiased</text><text class="cls-46" transform="translate(215.95 53.74) rotate(-30.7)">Neut<tspan class="cls-47" x="10.21" y="0">r</tspan><tspan class="cls-48" x="11.81" y="0">ali</tspan><tspan class="cls-49" x="16.57" y="0">t</tspan><tspan x="18.27" y="0">y</tspan></text><text class="cls-50" transform="translate(219.06 90.42) rotate(-30.7)"><tspan class="cls-51">I</tspan><tspan class="cls-52" x="1.49" y="0">n</tspan><tspan class="cls-53" x="4.8" y="0">t</tspan><tspan class="cls-54" x="6.79" y="0">r</tspan><tspan class="cls-55" x="8.69" y="0">o</tspan><tspan class="cls-56" x="11.94" y="0">v</tspan><tspan x="14.77" y="0">e</tspan><tspan class="cls-57" x="17.77" y="0">r</tspan><tspan x="19.88" y="0">t</tspan></text><text class="cls-46" transform="translate(136.35 99.98) rotate(-30.7)">Dispassion<tspan class="cls-58" x="22.38" y="0">a</tspan><tspan class="cls-59" x="24.77" y="0">t</tspan><tspan class="cls-60" x="26.4" y="0">e</tspan></text><text class="cls-46" transform="translate(178.91 93.32) rotate(-30.7)"><tspan class="cls-61">D</tspan><tspan x="3.35" y="0">etachme</tspan><tspan class="cls-62" x="21.61" y="0">n</tspan><tspan x="24.36" y="0">t</tspan></text><text class="cls-46" transform="translate(104.59 107.21) rotate(-30.7)">Lack of<tspan class="cls-63" x="0" y="6">V</tspan><tspan x="2.71" y="6">ib</tspan><tspan class="cls-47" x="6.73" y="6">r</tspan><tspan x="8.33" y="6">an</tspan><tspan class="cls-64" x="13.52" y="6">c</tspan><tspan x="15.85" y="6">y</tspan></text><text class="cls-65" transform="translate(59.42 233.46) rotate(-30.7)"><tspan class="cls-66">A</tspan><tspan x="4.22" y="0">nger</tspan></text><text class="cls-65" transform="translate(33.32 209.08) rotate(-30.7)"><tspan class="cls-67">R</tspan><tspan x="3.81" y="0">age</tspan></text><text class="cls-68" transform="translate(105.86 239.59) rotate(-30.7)"><tspan class="cls-69">A</tspan><tspan x="4.07" y="0">spe</tspan><tspan class="cls-70" x="13.91" y="0">c</tspan><tspan x="17.01" y="0">t of</tspan><tspan x="2.3" y="8.06">Change</tspan></text><text class="cls-71" transform="translate(187.99 212.2) rotate(-30.7)"><tspan class="cls-72">M</tspan><tspan class="cls-73" x="6.49" y="0">y</tspan><tspan x="10.21" y="0">s</tspan><tspan class="cls-74" x="13.38" y="0">t</tspan><tspan x="15.98" y="0">e</tspan><tspan class="cls-75" x="19.98" y="0">r</tspan><tspan x="22.8" y="0">y</tspan></text><text class="cls-76" transform="translate(136.4 268.43) rotate(-30.7)">Un<tspan class="cls-77" x="5.65" y="0">c</tspan><tspan x="7.73" y="0">onsciousness</tspan></text><text class="cls-46" transform="translate(275.13 140.71) rotate(-30.7)"><tspan class="cls-63">P</tspan><tspan class="cls-78" x="2.58" y="0">r</tspan><tspan x="4.17" y="0">o</tspan><tspan class="cls-59" x="6.91" y="0">t</tspan><tspan x="8.54" y="0">e</tspan><tspan class="cls-79" x="11.04" y="0">c</tspan><tspan class="cls-60" x="13.34" y="0">ti</tspan><tspan class="cls-78" x="16.17" y="0">v</tspan><tspan x="18.52" y="0">e</tspan><tspan x="3.27" y="6">Ene</tspan><tspan class="cls-80" x="11.01" y="6">r</tspan><tspan x="12.61" y="6">gy</tspan></text><text class="cls-81" transform="translate(218.21 168.7) rotate(-30.7)">H<tspan class="cls-82" x="4.59" y="0">idden</tspan></text><text class="cls-46" transform="translate(246.68 136.35) rotate(-30.7)"><tspan class="cls-63">P</tspan><tspan class="cls-78" x="2.58" y="0">r</tspan><tspan x="4.17" y="0">o</tspan><tspan class="cls-83" x="6.91" y="0">t</tspan><tspan x="8.54" y="0">e</tspan><tspan class="cls-84" x="11.04" y="0">c</tspan><tspan x="13.34" y="0">tion</tspan></text><text class="cls-85" transform="translate(323.57 124.31) rotate(-30.7)"><tspan class="cls-86">P</tspan><tspan class="cls-87" x="2.32" y="0">r</tspan><tspan x="3.77" y="0">a</tspan><tspan class="cls-88" x="5.94" y="0">c</tspan><tspan x="8.01" y="0">ticali</tspan><tspan class="cls-89" x="16.86" y="0">t</tspan><tspan x="18.39" y="0">y</tspan></text><text class="cls-46" transform="translate(248.84 172.61) rotate(-30.7)"><tspan class="cls-90">R</tspan><tspan class="cls-58" x="2.75" y="0">a</tspan><tspan x="5.14" y="0">tionali</tspan><tspan class="cls-91" x="18.25" y="0">t</tspan><tspan class="cls-92" x="19.94" y="0">y</tspan></text><text class="cls-46" transform="translate(280.38 182.63) rotate(-30.7)"><tspan class="cls-93">A</tspan><tspan x="3.04" y="0">nalytical</tspan></text><text class="cls-65" transform="translate(83.26 211.61) rotate(-30.7)"><tspan class="cls-94">D</tspan><tspan class="cls-95" x="4.65" y="0">e</tspan><tspan class="cls-96" x="8.12" y="0">a</tspan><tspan x="11.43" y="0">th</tspan></text><text class="cls-46" transform="translate(54.9 183.43) rotate(-30.7)"><tspan class="cls-97">M</tspan><tspan x="4.05" y="0">ou</tspan><tspan class="cls-98" x="9.55" y="0">r</tspan><tspan class="cls-99" x="11.21" y="0">ning</tspan></text><text class="cls-46" transform="translate(33.21 150.8) rotate(-30.7)"><tspan class="cls-100">R</tspan><tspan x="2.71" y="0">eje</tspan><tspan class="cls-101" x="8.93" y="0">c</tspan><tspan class="cls-99" x="11.24" y="0">tion</tspan></text><text class="cls-46" transform="translate(5.28 123.35) rotate(-30.7)"><tspan class="cls-102">T</tspan><tspan class="cls-103" x="2.26" y="0">r</tspan><tspan x="3.87" y="0">ansition</tspan></text><text class="cls-65" transform="translate(111.3 192.64) rotate(-30.7)"><tspan class="cls-104">L</tspan><tspan x="3.18" y="0">oss</tspan></text><text class="cls-105" transform="translate(95.87 160.76) rotate(-30.7)">S<tspan class="cls-106" x="2.98" y="0">adness</tspan></text><text class="cls-50" transform="translate(75.14 123.89) rotate(-30.7)"><tspan class="cls-107">P</tspan><tspan x="3.04" y="0">assivi</tspan><tspan class="cls-108" x="16.37" y="0">t</tspan><tspan class="cls-109" x="18.41" y="0">y</tspan></text><text class="cls-46" transform="translate(57.15 87.9) rotate(-30.7)">Dis<tspan class="cls-78" x="6.48" y="0">r</tspan><tspan class="cls-92" x="8.06" y="0">ega</tspan><tspan class="cls-78" x="15.77" y="0">r</tspan><tspan x="17.36" y="0">d</tspan><tspan class="cls-110" x="3.55" y="6">f</tspan><tspan class="cls-99" x="4.94" y="6">or li</tspan><tspan class="cls-110" x="12.73" y="6">f</tspan><tspan x="14.13" y="6">e</tspan></text><text class="cls-65" transform="translate(282.54 21.75) rotate(-30.7)"><tspan class="cls-94">D</tspan><tspan class="cls-95" x="4.65" y="0">esi</tspan><tspan class="cls-111" x="12.49" y="0">r</tspan><tspan x="14.69" y="0">e</tspan></text><text class="cls-65" transform="translate(165.52 172.07) rotate(-30.7)">U<tspan class="cls-112" x="4.49" y="0">r</tspan><tspan x="6.7" y="0">ges</tspan></text><text class="cls-113" transform="translate(146.71 220.62) rotate(-30.7)"><tspan class="cls-114">T</tspan><tspan x="2.45" y="0">empt</tspan><tspan class="cls-115" x="15.28" y="0">a</tspan><tspan x="18.03" y="0">tion</tspan></text><path class="cls-116" d="M157,214.74"/><path class="cls-1" d="M157,214.74"/><path class="cls-1" d="M198.71,202.76"/></g></g></svg>