<svg xmlns="http://www.w3.org/2000/svg" xmlns:xlink="http://www.w3.org/1999/xlink" viewBox="0 0 193.26 220.08"><defs><style>.cls-1{fill:#1a1a1a;stroke:#fff;}.cls-1,.cls-2{stroke-miterlimit:10;}.cls-2{fill:none;stroke:#c1c1c1;stroke-width:5px;}.cls-3{fill:#c1c1c1;}.cls-4{fill:#3393db;}.cls-5{fill:#157dbc;}.cls-6{fill:url(#linear-gradient);}.cls-7{fill:url(#linear-gradient-2);}.cls-8{fill:#ede148;}.cls-9{fill:#ddc626;}.cls-10{fill:url(#linear-gradient-3);}.cls-11{fill:url(#linear-gradient-4);}.cls-12{fill:#eac44b;}.cls-13{fill:#dba328;}.cls-14{fill:url(#linear-gradient-5);}.cls-15{font-size:5.73px;letter-spacing:0.01em;}.cls-15,.cls-21,.cls-27,.cls-30,.cls-37,.cls-40,.cls-43,.cls-49,.cls-52,.cls-56{fill:#fff;font-family:MyriadPro-Regular, Myriad Pro;}.cls-16{letter-spacing:0em;}.cls-17{letter-spacing:-0.01em;}.cls-18{letter-spacing:0em;}.cls-19{letter-spacing:0.01em;}.cls-20{fill:url(#linear-gradient-6);}.cls-21{font-size:4.31px;letter-spacing:0em;}.cls-22{letter-spacing:0em;}.cls-23{letter-spacing:-0.01em;}.cls-24{fill:#e2e2e2;}.cls-25{fill:#ccc;}.cls-26{fill:url(#linear-gradient-7);}.cls-27{font-size:5.46px;}.cls-28{letter-spacing:-0.01em;}.cls-29{fill:url(#linear-gradient-8);}.cls-30{font-size:4.96px;}.cls-31{letter-spacing:0em;}.cls-32{letter-spacing:0.01em;}.cls-33{letter-spacing:0em;}.cls-34{fill:#3550d8;}.cls-35{fill:#1d3eb7;}.cls-36{fill:url(#linear-gradient-9);}.cls-37{font-size:6.22px;letter-spacing:-0.02em;}.cls-38{letter-spacing:0em;}.cls-39{fill:url(#linear-gradient-10);}.cls-40{font-size:9.03px;}.cls-41{letter-spacing:-0.01em;}.cls-42{letter-spacing:0em;}.cls-43{font-size:5.26px;}.cls-44{letter-spacing:0.01em;}.cls-45{letter-spacing:0em;}.cls-46{letter-spacing:0em;}.cls-47{fill:url(#linear-gradient-11);}.cls-48{fill:url(#linear-gradient-12);}.cls-49{font-size:8.08px;}.cls-50{letter-spacing:-0.05em;}.cls-51{fill:url(#linear-gradient-13);}.cls-52{font-size:3.36px;}.cls-53{letter-spacing:0em;}.cls-54{letter-spacing:-0.01em;}.cls-55{letter-spacing:0em;}.cls-56{font-size:6.11px;}.cls-57{letter-spacing:0em;}.cls-58{letter-spacing:-0.01em;}.cls-59{letter-spacing:0em;}.cls-60{letter-spacing:0em;}.cls-61{letter-spacing:0.01em;}</style><linearGradient id="linear-gradient" x1="184.98" y1="422.71" x2="184.98" y2="441.74" gradientTransform="translate(10.75 669.22) rotate(-145.36)" gradientUnits="userSpaceOnUse"><stop offset="0" stop-color="#fff"/><stop offset="1" stop-color="#fff" stop-opacity="0"/></linearGradient><linearGradient id="linear-gradient-2" x1="220.18" y1="444.48" x2="220.18" y2="459.71" xlink:href="#linear-gradient"/><linearGradient id="linear-gradient-3" x1="112.37" y1="288.55" x2="112.37" y2="300.73" gradientTransform="matrix(-0.84, -0.54, 0.54, -0.84, 22.99, 438.5)" xlink:href="#linear-gradient"/><linearGradient id="linear-gradient-4" x1="236.98" y1="485.83" x2="236.98" y2="498.01" xlink:href="#linear-gradient"/><linearGradient id="linear-gradient-5" x1="222.28" y1="342.04" x2="222.28" y2="354.22" gradientTransform="matrix(-0.84, -0.54, 0.54, -0.84, 22.99, 438.5)" xlink:href="#linear-gradient"/><linearGradient id="linear-gradient-6" x1="292.38" y1="535.92" x2="292.38" y2="548.1" xlink:href="#linear-gradient"/><linearGradient id="linear-gradient-7" x1="172.75" y1="169.58" x2="172.75" y2="181.77" gradientTransform="translate(153.68 338.93) rotate(-142.25)" xlink:href="#linear-gradient"/><linearGradient id="linear-gradient-8" x1="296.91" y1="482.58" x2="296.91" y2="494.76" xlink:href="#linear-gradient"/><linearGradient id="linear-gradient-9" x1="366.63" y1="520.98" x2="366.63" y2="533.16" xlink:href="#linear-gradient"/><linearGradient id="linear-gradient-10" x1="66.2" y1="1012.45" x2="66.2" y2="1027.69" gradientTransform="matrix(-0.81, -0.58, 0.58, -0.81, -412.41, 1042.03)" xlink:href="#linear-gradient"/><linearGradient id="linear-gradient-11" x1="283.2" y1="430.83" x2="283.2" y2="443.02" gradientTransform="translate(85.71 613.59) rotate(-141.72)" xlink:href="#linear-gradient"/><linearGradient id="linear-gradient-12" x1="249.59" y1="566.19" x2="249.59" y2="578.38" xlink:href="#linear-gradient"/><linearGradient id="linear-gradient-13" x1="147.37" y1="342.41" x2="147.37" y2="354.59" gradientTransform="translate(61.19 390.81) rotate(-145.88)" xlink:href="#linear-gradient"/></defs><title>Asset 15</title><g id="Layer_2" data-name="Layer 2"><g id="Layer_5" data-name="Layer 5"><rect class="cls-1" x="70.52" y="43.13" width="21" height="21" transform="translate(176.85 37.6) rotate(137)"/><rect class="cls-1" x="126.76" y="5.05" width="21" height="21" transform="translate(248.25 -66.69) rotate(137)"/><rect class="cls-1" x="126.47" y="81.72" width="21" height="21" transform="translate(300.04 66.25) rotate(137)"/><rect class="cls-1" x="115.94" y="80.15" width="21" height="21" transform="translate(280.74 70.72) rotate(137)"/><polyline class="cls-2" points="88.54 125.08 81.61 53.21 134.1 52.28"/><polyline class="cls-2" points="90.47 167.43 109.72 200.66 134.25 169.89"/><path class="cls-2" d="M182.69,58a387.39,387.39,0,0,0-48.59-5.72"/><polygon class="cls-3" points="181.94 50.3 193.26 60.08 179.13 64.99 181.94 50.3"/><polyline class="cls-2" points="137.23 15.72 134.19 89.07 90.8 126.33 90.47 167.43 45.62 94.03 17.38 21.77"/><line class="cls-2" x1="134.25" y1="169.89" x2="132.77" y2="92.22"/><path class="cls-4" d="M93.77,192.34a17.57,17.57,0,0,0,4.57,24.6,18,18,0,0,0,24.85-4.47,17.57,17.57,0,0,0-4.57-24.6A18,18,0,0,0,93.77,192.34Z"/><path class="cls-5" d="M97.63,193a14.06,14.06,0,0,0,3.65,19.68,14.38,14.38,0,0,0,19.88-3.57,14.06,14.06,0,0,0-3.65-19.68A14.38,14.38,0,0,0,97.63,193Z"/><path class="cls-6" d="M93.5,201.1c-3,4.31-.62,11.11,5.33,15.18s13.21,3.88,16.22-.43.62-11.11-5.33-15.18S96.51,196.79,93.5,201.1Z"/><path class="cls-4" d="M78.21,159.21a14.06,14.06,0,0,0,3.65,19.68,14.38,14.38,0,0,0,19.88-3.57,14.06,14.06,0,0,0-3.65-19.68A14.38,14.38,0,0,0,78.21,159.21Z"/><path class="cls-5" d="M81.3,159.76a11.25,11.25,0,0,0,2.92,15.74,11.5,11.5,0,0,0,15.9-2.86A11.25,11.25,0,0,0,97.2,156.9,11.5,11.5,0,0,0,81.3,159.76Z"/><path class="cls-7" d="M78,166.22c-2.41,3.45-.5,8.88,4.26,12.14s10.57,3.1,13-.35.5-8.88-4.26-12.14S80.4,162.77,78,166.22Z"/><path class="cls-8" d="M78.68,119.48a11.25,11.25,0,0,0,3.55,15.62A11.49,11.49,0,0,0,98,131.61,11.25,11.25,0,0,0,94.46,116,11.49,11.49,0,0,0,78.68,119.48Z"/><path class="cls-9" d="M81.17,119.82A9,9,0,0,0,84,132.32a9.2,9.2,0,0,0,12.62-2.78A9,9,0,0,0,93.79,117,9.2,9.2,0,0,0,81.17,119.82Z"/><path class="cls-10" d="M78.79,125c-1.81,2.83-.11,7.12,3.79,9.57s8.55,2.15,10.36-.68.11-7.12-3.79-9.57S80.6,122.22,78.79,125Z"/><path class="cls-4" d="M88.71,119.47a11.25,11.25,0,0,0,2.92,15.74,11.5,11.5,0,0,0,15.9-2.86,11.25,11.25,0,0,0-2.92-15.74A11.5,11.5,0,0,0,88.71,119.47Z"/><path class="cls-5" d="M91.18,119.92a9,9,0,0,0,2.34,12.59,9.2,9.2,0,0,0,12.72-2.29,9,9,0,0,0-2.34-12.59A9.2,9.2,0,0,0,91.18,119.92Z"/><path class="cls-11" d="M88.54,125.08c-1.93,2.76-.4,7.11,3.41,9.71s8.46,2.48,10.38-.28.4-7.11-3.41-9.71S90.46,122.32,88.54,125.08Z"/><path class="cls-12" d="M14.51,15.44a11.25,11.25,0,0,0,3.55,15.62,11.49,11.49,0,0,0,15.78-3.48A11.25,11.25,0,0,0,30.28,12,11.49,11.49,0,0,0,14.51,15.44Z"/><path class="cls-13" d="M17,15.79a9,9,0,0,0,2.84,12.49A9.2,9.2,0,0,0,32.45,25.5,9,9,0,0,0,29.61,13,9.2,9.2,0,0,0,17,15.79Z"/><path class="cls-14" d="M14.61,21c-1.81,2.83-.11,7.12,3.79,9.57S27,32.74,28.77,29.9s.11-7.12-3.79-9.57S16.42,18.18,14.61,21Z"/><text class="cls-15" transform="matrix(-0.85, -0.54, 0.54, -0.84, 107.6, 129.81)">I<tspan class="cls-16" x="1.43" y="0">n</tspan><tspan class="cls-17" x="4.58" y="0">t</tspan><tspan class="cls-18" x="6.44" y="0">elle</tspan><tspan class="cls-19" x="14.88" y="0">c</tspan><tspan class="cls-18" x="17.52" y="0">t</tspan></text><path class="cls-4" d="M71.6,46.77a11.25,11.25,0,0,0,2.92,15.74,11.5,11.5,0,0,0,15.9-2.86,11.25,11.25,0,0,0-2.92-15.74A11.5,11.5,0,0,0,71.6,46.77Z"/><path class="cls-5" d="M74.07,47.22a9,9,0,0,0,2.34,12.59,9.2,9.2,0,0,0,12.72-2.29A9,9,0,0,0,86.8,44.93,9.2,9.2,0,0,0,74.07,47.22Z"/><path class="cls-20" d="M71.43,52.38c-1.93,2.76-.4,7.11,3.41,9.71s8.46,2.48,10.38-.28.4-7.11-3.41-9.71S73.36,49.62,71.43,52.38Z"/><text class="cls-21" transform="matrix(-0.85, -0.54, 0.54, -0.84, 90.16, 57.49)">D<tspan class="cls-22" x="2.89" y="0">ep</tspan><tspan class="cls-23" x="7.5" y="0">r</tspan><tspan class="cls-22" x="8.87" y="0">ession</tspan></text><path class="cls-24" d="M118.43,83.6a11.24,11.24,0,0,0,2.06,15.87,11.51,11.51,0,0,0,16-2,11.24,11.24,0,0,0-2.06-15.87A11.51,11.51,0,0,0,118.43,83.6Z"/><path class="cls-25" d="M120.87,84.18a9,9,0,0,0,1.65,12.7,9.21,9.21,0,0,0,12.83-1.6,9,9,0,0,0-1.65-12.7A9.21,9.21,0,0,0,120.87,84.18Z"/><path class="cls-26" d="M118,89.19c-2.07,2.65-.79,7.08,2.87,9.88s8.31,2.93,10.38.28.79-7.08-2.87-9.88S120.1,86.54,118,89.19Z"/><text class="cls-27" transform="matrix(-0.83, -0.57, 0.57, -0.82, 123.69, 210.05)"><tspan class="cls-28">C</tspan><tspan x="3.11" y="0">onsciousness</tspan></text><path class="cls-4" d="M37.55,88.08a11.25,11.25,0,0,0,2.92,15.74A11.5,11.5,0,0,0,56.38,101a11.25,11.25,0,0,0-2.92-15.74A11.5,11.5,0,0,0,37.55,88.08Z"/><path class="cls-5" d="M40,88.53a9,9,0,0,0,2.34,12.59,9.2,9.2,0,0,0,12.72-2.29,9,9,0,0,0-2.34-12.59A9.2,9.2,0,0,0,40,88.53Z"/><path class="cls-29" d="M37.38,93.69c-1.93,2.76-.4,7.11,3.41,9.71s8.46,2.48,10.38-.28.4-7.11-3.41-9.71S39.31,90.93,37.38,93.69Z"/><text class="cls-30" transform="matrix(-0.83, -0.57, 0.57, -0.82, 57.51, 99.02)">Spi<tspan class="cls-31" x="6.43" y="0">r</tspan><tspan x="8.08" y="0">ituali</tspan><tspan class="cls-32" x="18.34" y="0">t</tspan><tspan class="cls-33" x="20.03" y="0">y</tspan></text><path class="cls-34" d="M2,16.85A11.25,11.25,0,0,0,4.95,32.59a11.5,11.5,0,0,0,15.9-2.86A11.25,11.25,0,0,0,17.92,14,11.5,11.5,0,0,0,2,16.85Z"/><path class="cls-35" d="M4.49,17.3A9,9,0,0,0,6.83,29.89a9.2,9.2,0,0,0,12.72-2.29A9,9,0,0,0,17.21,15,9.2,9.2,0,0,0,4.49,17.3Z"/><path class="cls-36" d="M1.85,22.46c-1.93,2.76-.4,7.11,3.41,9.71s8.46,2.48,10.38-.28.4-7.11-3.41-9.71S3.77,19.7,1.85,22.46Z"/><text class="cls-37" transform="matrix(-0.83, -0.57, 0.57, -0.82, 21.78, 27.39)">W<tspan class="cls-38" x="5.16" y="0">isdom</tspan></text><path class="cls-34" d="M122,162.67a14.06,14.06,0,0,0,3.26,19.74,14.38,14.38,0,0,0,19.95-3.19A14.06,14.06,0,0,0,142,159.48,14.38,14.38,0,0,0,122,162.67Z"/><path class="cls-35" d="M125.12,163.28a11.24,11.24,0,0,0,2.61,15.79,11.5,11.5,0,0,0,16-2.55,11.24,11.24,0,0,0-2.61-15.79A11.5,11.5,0,0,0,125.12,163.28Z"/><path class="cls-39" d="M121.69,169.64c-2.47,3.4-.68,8.87,4,12.22s10.51,3.31,13-.09.68-8.87-4-12.22S124.17,166.24,121.69,169.64Z"/><text class="cls-40" transform="matrix(-0.82, -0.58, 0.59, -0.81, 146.3, 175.94)">Justi<tspan class="cls-41" x="17" y="0">c</tspan><tspan class="cls-42" x="21" y="0">e</tspan></text><text class="cls-43" transform="matrix(-0.84, -0.56, 0.56, -0.83, 101.43, 173.18)"><tspan class="cls-44">M</tspan><tspan x="4.26" y="0">edit</tspan><tspan class="cls-45" x="12.83" y="0">a</tspan><tspan class="cls-46" x="15.34" y="0">tion</tspan></text><path class="cls-4" d="M128,84.44a11.24,11.24,0,0,0,1.91,15.89A11.51,11.51,0,0,0,146,98.47,11.24,11.24,0,0,0,144,82.58,11.51,11.51,0,0,0,128,84.44Z"/><path class="cls-5" d="M130.43,85A9,9,0,0,0,132,97.75a9.21,9.21,0,0,0,12.85-1.48,9,9,0,0,0-1.53-12.71A9.21,9.21,0,0,0,130.43,85Z"/><path class="cls-47" d="M127.46,90c-2.1,2.63-.85,7.07,2.78,9.91s8.28,3,10.38.37.85-7.07-2.78-9.91S129.56,87.39,127.46,90Z"/><path class="cls-4" d="M124,46.19a11.25,11.25,0,0,0,2.92,15.74,11.5,11.5,0,0,0,15.9-2.86,11.25,11.25,0,0,0-2.92-15.74A11.5,11.5,0,0,0,124,46.19Z"/><path class="cls-5" d="M126.49,46.64a9,9,0,0,0,2.34,12.59,9.2,9.2,0,0,0,12.72-2.29,9,9,0,0,0-2.34-12.59A9.2,9.2,0,0,0,126.49,46.64Z"/><path class="cls-48" d="M123.85,51.8c-1.93,2.76-.4,7.11,3.41,9.71s8.46,2.48,10.38-.28.4-7.11-3.41-9.71S125.77,49,123.85,51.8Z"/><text class="cls-49" transform="matrix(-0.79, -0.62, 0.62, -0.78, 145.65, 95.74)"><tspan class="cls-50">T</tspan><tspan x="3.65" y="0">ruth</tspan></text><path class="cls-24" d="M127.78,9.37a11.25,11.25,0,0,0,3.07,15.71,11.5,11.5,0,0,0,15.88-3,11.25,11.25,0,0,0-3.07-15.71A11.5,11.5,0,0,0,127.78,9.37Z"/><path class="cls-25" d="M130.25,9.8a9,9,0,0,0,2.46,12.57,9.2,9.2,0,0,0,12.7-2.4A9,9,0,0,0,143,7.4,9.2,9.2,0,0,0,130.25,9.8Z"/><path class="cls-51" d="M127.73,15c-1.9,2.78-.33,7.11,3.5,9.68s8.48,2.4,10.38-.37.33-7.11-3.5-9.68S129.63,12.2,127.73,15Z"/><text class="cls-52" transform="matrix(-0.83, -0.57, 0.57, -0.82, 145.54, 20.45)"><tspan class="cls-53">R</tspan><tspan x="1.82" y="0">e</tspan><tspan class="cls-54" x="3.51" y="0">a</tspan><tspan class="cls-55" x="5.1" y="0">w</tspan><tspan x="7.57" y="0">akening</tspan></text><text class="cls-56" transform="matrix(-0.83, -0.57, 0.57, -0.82, 142.09, 56.81)"><tspan class="cls-57">E</tspan><tspan class="cls-58" x="2.99" y="0">t</tspan><tspan x="4.98" y="0">e</tspan><tspan class="cls-59" x="8.04" y="0">r</tspan><tspan class="cls-60" x="10.06" y="0">ni</tspan><tspan class="cls-61" x="14.89" y="0">t</tspan><tspan class="cls-60" x="16.97" y="0">y</tspan></text></g></g></svg>