<svg xmlns="http://www.w3.org/2000/svg" xmlns:xlink="http://www.w3.org/1999/xlink" viewBox="0 0 568.13 263.45"><defs><style>.cls-1{fill:none;stroke:#c1c1c1;stroke-width:5px;}.cls-1,.cls-6{stroke-miterlimit:10;}.cls-2{fill:#c1c1c1;}.cls-3{fill:#ed7f2e;}.cls-4{fill:#cc5e15;}.cls-5{fill:url(#linear-gradient);}.cls-6{fill:#1a1a1a;stroke:#fff;}.cls-7{fill:#ef4dc1;}.cls-8{fill:#cc2fa7;}.cls-9{fill:url(#linear-gradient-2);}.cls-10{fill:url(#linear-gradient-3);}.cls-11{font-size:9px;}.cls-103,.cls-108,.cls-11,.cls-113,.cls-118,.cls-16,.cls-41,.cls-48,.cls-53,.cls-58,.cls-61,.cls-64,.cls-66,.cls-71,.cls-73,.cls-85,.cls-92,.cls-97{fill:#fff;font-family:MyriadPro-Regular, Myriad Pro;}.cls-12{letter-spacing:-0.01em;}.cls-13{letter-spacing:-0.01em;}.cls-14{letter-spacing:-0.01em;}.cls-15{fill:url(#linear-gradient-4);}.cls-16{font-size:5px;}.cls-17{letter-spacing:0em;}.cls-18{letter-spacing:-0.01em;}.cls-19{fill:#8338e5;}.cls-20{fill:#5e19cc;}.cls-21{fill:url(#linear-gradient-5);}.cls-22{fill:url(#linear-gradient-6);}.cls-23{fill:url(#linear-gradient-7);}.cls-24{fill:url(#linear-gradient-8);}.cls-25{fill:url(#linear-gradient-9);}.cls-26{fill:url(#linear-gradient-10);}.cls-27{fill:#ede148;}.cls-28{fill:#ddc626;}.cls-29{fill:url(#linear-gradient-11);}.cls-30{fill:url(#linear-gradient-12);}.cls-31{fill:url(#linear-gradient-13);}.cls-32{fill:url(#linear-gradient-14);}.cls-33{fill:url(#linear-gradient-15);}.cls-34{fill:url(#linear-gradient-16);}.cls-35{fill:#3393db;}.cls-36{fill:#157dbc;}.cls-37{fill:url(#linear-gradient-17);}.cls-38{fill:url(#linear-gradient-18);}.cls-39{fill:url(#linear-gradient-19);}.cls-40{fill:url(#linear-gradient-20);}.cls-41{font-size:6.29px;}.cls-42{letter-spacing:0em;}.cls-43{letter-spacing:-0.02em;}.cls-44{letter-spacing:-0.01em;}.cls-45{letter-spacing:-0.01em;}.cls-46{letter-spacing:0em;}.cls-47{letter-spacing:-0.01em;}.cls-48,.cls-71{font-size:6.93px;}.cls-49,.cls-71{letter-spacing:0em;}.cls-50{letter-spacing:-0.01em;}.cls-51{letter-spacing:0em;}.cls-52{letter-spacing:0.01em;}.cls-53{font-size:3.6px;}.cls-54{letter-spacing:0.02em;}.cls-55{letter-spacing:-0.01em;}.cls-56{fill:url(#linear-gradient-21);}.cls-57{letter-spacing:-0.01em;}.cls-58{font-size:4.72px;}.cls-59{letter-spacing:0.01em;}.cls-60{letter-spacing:0em;}.cls-61{font-size:3.5px;}.cls-62{letter-spacing:0.01em;}.cls-63{letter-spacing:-0.01em;}.cls-64{font-size:6.3px;}.cls-65{letter-spacing:0.01em;}.cls-66{font-size:4.4px;}.cls-67{letter-spacing:-0.01em;}.cls-68{letter-spacing:0.02em;}.cls-69{letter-spacing:0em;}.cls-70{letter-spacing:0.01em;}.cls-72{letter-spacing:0em;}.cls-73{font-size:6px;}.cls-74{letter-spacing:0em;}.cls-75{letter-spacing:-0.01em;}.cls-76{letter-spacing:-0.01em;}.cls-77{letter-spacing:0em;}.cls-78{letter-spacing:-0.05em;}.cls-79{letter-spacing:-0.01em;}.cls-80{letter-spacing:0.03em;}.cls-81{fill:#eac44b;}.cls-82{fill:#dba328;}.cls-83{fill:url(#linear-gradient-22);}.cls-84{fill:url(#linear-gradient-23);}.cls-85{font-size:6.93px;}.cls-86{letter-spacing:-0.03em;}.cls-87{letter-spacing:-0.01em;}.cls-88{letter-spacing:-0.01em;}.cls-89{letter-spacing:0em;}.cls-90{letter-spacing:-0.01em;}.cls-91{letter-spacing:-0.01em;}.cls-92{font-size:8.2px;}.cls-93{letter-spacing:0em;}.cls-94{letter-spacing:-0.03em;}.cls-95{letter-spacing:-0.01em;}.cls-96{letter-spacing:-0.01em;}.cls-97{font-size:5.53px;}.cls-98{letter-spacing:0em;}.cls-99{letter-spacing:-0.01em;}.cls-100{fill:#ff2751;}.cls-101{fill:#db0f40;}.cls-102{fill:url(#linear-gradient-24);}.cls-103{font-size:4.99px;}.cls-104{letter-spacing:0.01em;}.cls-105{letter-spacing:-0.01em;}.cls-106{letter-spacing:0em;}.cls-107{fill:url(#linear-gradient-25);}.cls-108{font-size:6.89px;}.cls-109{letter-spacing:-0.01em;}.cls-110{letter-spacing:0em;}.cls-111{letter-spacing:0em;}.cls-112{letter-spacing:0.01em;}.cls-113{font-size:5.38px;}.cls-114{letter-spacing:-0.03em;}.cls-115{letter-spacing:0em;}.cls-116{letter-spacing:0em;}.cls-117{letter-spacing:0em;}.cls-118{font-size:8.38px;}.cls-119{letter-spacing:0em;}.cls-120{letter-spacing:-0.01em;}.cls-121{letter-spacing:0em;}</style><linearGradient id="linear-gradient" x1="238.16" y1="469.79" x2="238.16" y2="488.96" gradientTransform="translate(514.85 732.05) rotate(180)" gradientUnits="userSpaceOnUse"><stop offset="0" stop-color="#fff"/><stop offset="1" stop-color="#fff" stop-opacity="0"/></linearGradient><linearGradient id="linear-gradient-2" x1="201.77" y1="-507.61" x2="201.77" y2="-495.34" gradientTransform="translate(585.48 -334.18) rotate(180)" xlink:href="#linear-gradient"/><linearGradient id="linear-gradient-3" x1="158.78" y1="-492.76" x2="158.78" y2="-480.49" gradientTransform="translate(581.55 -342.63) rotate(180)" xlink:href="#linear-gradient"/><linearGradient id="linear-gradient-4" x1="240.81" y1="-521.81" x2="240.81" y2="-509.54" gradientTransform="translate(589.2 -326.52) rotate(180)" xlink:href="#linear-gradient"/><linearGradient id="linear-gradient-5" x1="254.77" y1="471.22" x2="254.77" y2="490.4" gradientTransform="translate(514.79 733.77) rotate(180)" xlink:href="#linear-gradient"/><linearGradient id="linear-gradient-6" x1="-921.33" y1="2340.65" x2="-921.33" y2="2355.99" gradientTransform="translate(-606.98 2562.18) rotate(180)" xlink:href="#linear-gradient"/><linearGradient id="linear-gradient-7" x1="-915.62" y1="2350.28" x2="-915.62" y2="2365.62" gradientTransform="translate(-611.95 2568.4) rotate(180)" xlink:href="#linear-gradient"/><linearGradient id="linear-gradient-8" x1="242.84" y1="-49.14" x2="242.84" y2="-36.87" gradientTransform="translate(318.13 375.66) rotate(-90)" xlink:href="#linear-gradient"/><linearGradient id="linear-gradient-9" x1="245.74" y1="-12.84" x2="245.74" y2="-0.57" gradientTransform="translate(280.38 342.17) rotate(-90)" xlink:href="#linear-gradient"/><linearGradient id="linear-gradient-10" x1="240.61" y1="-88.92" x2="240.61" y2="-76.65" gradientTransform="translate(358.56 413.27) rotate(-90)" xlink:href="#linear-gradient"/><linearGradient id="linear-gradient-11" x1="292.17" y1="-14.19" x2="292.17" y2="-1.92" gradientTransform="translate(235.28 388.1) rotate(-90)" xlink:href="#linear-gradient"/><linearGradient id="linear-gradient-12" x1="272.84" y1="-53.08" x2="272.84" y2="-40.81" gradientTransform="translate(291.94 408.39) rotate(-90)" xlink:href="#linear-gradient"/><linearGradient id="linear-gradient-13" x1="211.61" y1="-51.86" x2="211.61" y2="-39.59" gradientTransform="translate(351.95 348.38) rotate(-90)" xlink:href="#linear-gradient"/><linearGradient id="linear-gradient-14" x1="-107.13" y1="493.68" x2="-107.13" y2="505.95" gradientTransform="translate(355.45 545.92) rotate(180)" xlink:href="#linear-gradient"/><linearGradient id="linear-gradient-15" x1="250.35" y1="67.35" x2="250.35" y2="79.62" gradientTransform="translate(198.78 266.46) rotate(-90)" xlink:href="#linear-gradient"/><linearGradient id="linear-gradient-16" x1="248.05" y1="29.46" x2="248.05" y2="41.73" gradientTransform="translate(237.45 302.13) rotate(-90)" xlink:href="#linear-gradient"/><linearGradient id="linear-gradient-17" x1="441.12" y1="664.04" x2="441.12" y2="676.31" gradientTransform="translate(496.2 754.07) rotate(180)" xlink:href="#linear-gradient"/><linearGradient id="linear-gradient-18" x1="166.67" y1="1137.73" x2="166.67" y2="1150" gradientTransform="translate(357.96 1328.38) rotate(180)" xlink:href="#linear-gradient"/><linearGradient id="linear-gradient-19" x1="-2095.56" y1="2965.49" x2="-2095.56" y2="2977.76" gradientTransform="translate(-1935.23 3085.63) rotate(180)" xlink:href="#linear-gradient"/><linearGradient id="linear-gradient-20" x1="-2134.17" y1="3035" x2="-2134.17" y2="3047.27" gradientTransform="translate(-2022.92 3092.57) rotate(180)" xlink:href="#linear-gradient"/><linearGradient id="linear-gradient-21" x1="144.38" y1="1180.08" x2="144.38" y2="1192.35" gradientTransform="translate(352.11 1325.78) rotate(180)" xlink:href="#linear-gradient"/><linearGradient id="linear-gradient-22" x1="24.27" y1="406.71" x2="24.27" y2="418.98" gradientTransform="translate(369.21 563.78) rotate(180)" xlink:href="#linear-gradient"/><linearGradient id="linear-gradient-23" x1="-44.82" y1="449.12" x2="-44.82" y2="461.39" gradientTransform="translate(362.45 554.36) rotate(180)" xlink:href="#linear-gradient"/><linearGradient id="linear-gradient-24" x1="-15.69" y1="621.85" x2="-15.69" y2="634.12" gradientTransform="translate(498.12 706.58) rotate(180)" xlink:href="#linear-gradient"/><linearGradient id="linear-gradient-25" x1="316.67" y1="316.71" x2="316.67" y2="332.05" gradientTransform="translate(-94.71 531.61) rotate(-90)" xlink:href="#linear-gradient"/></defs><title>Asset 19</title><g id="Layer_2" data-name="Layer 2"><g id="Layer_5" data-name="Layer 5"><line class="cls-1" x1="305.2" y1="209.55" x2="421.53" y2="137.99"/><polyline class="cls-1" points="230.56 207.26 269.04 245.6 305.2 209.55"/><path class="cls-1" d="M106.82,48.26A360.26,360.26,0,0,0,7.31,121.92"/><polygon class="cls-2" points="3.43 115.27 0 129.82 14.32 125.51 3.43 115.27"/><polyline class="cls-1" points="306.08 131.04 275.58 166.38 245.58 129.29 226.62 90.04"/><polyline class="cls-1" points="206.79 133.32 230.56 207.26 189.56 180.36 155.54 110.5 106.82 48.27"/><path class="cls-1" d="M461.71,40,406.89,93.21,345.09,146.3,305.2,209.55l-29.62-43.17L275.26,86l-3.38-76"/><path class="cls-1" d="M560.95,118.15A396.66,396.66,0,0,0,461.71,40"/><polygon class="cls-2" points="564.94 111.55 568.13 126.17 553.88 121.62 564.94 111.55"/><circle class="cls-3" cx="275.84" cy="245.25" r="17.85" transform="translate(-23.89 29.85) rotate(-5.94)"/><circle class="cls-4" cx="275.67" cy="243.64" r="14.28" transform="translate(-23.73 29.82) rotate(-5.94)"/><ellipse class="cls-5" cx="276.69" cy="252.67" rx="13.07" ry="9.59" transform="translate(-24.65 29.98) rotate(-5.94)"/><rect class="cls-6" x="411.03" y="129.4" width="21" height="21" transform="translate(790.9 386.53) rotate(-164.63)"/><rect class="cls-6" x="395.97" y="84.45" width="21" height="21" transform="translate(768.51 -112.8) rotate(137)"/><rect class="cls-6" x="96.57" y="38.84" width="21" height="21" transform="translate(219.04 12.41) rotate(137)"/><rect class="cls-6" x="179.94" y="168.8" width="21" height="21" transform="translate(452 180.57) rotate(137)"/><rect class="cls-6" x="264.34" y="117.71" width="21" height="21" transform="translate(563.29 34.55) rotate(137)"/><rect class="cls-6" x="265.19" y="157.88" width="21" height="21" transform="translate(592.16 103.52) rotate(137)"/><rect class="cls-6" x="196.41" y="124.99" width="21" height="21" transform="translate(450.64 93.48) rotate(137)"/><rect class="cls-6" x="234.08" y="120.79" width="21" height="21" transform="translate(512.99 60.51) rotate(137)"/><circle class="cls-7" cx="382.67" cy="162.65" r="11.42" transform="translate(-25.12 81.41) rotate(-11.76)"/><circle class="cls-8" cx="382.46" cy="161.64" r="9.14" transform="translate(-24.92 81.35) rotate(-11.76)"/><ellipse class="cls-9" cx="383.71" cy="167.29" rx="8.37" ry="6.14" transform="translate(-26.04 81.72) rotate(-11.76)"/><circle class="cls-7" cx="421.73" cy="139.35" r="11.42" transform="translate(-19.55 88.88) rotate(-11.76)"/><circle class="cls-8" cx="421.52" cy="138.34" r="9.14" transform="translate(-19.35 88.82) rotate(-11.76)"/><ellipse class="cls-10" cx="422.78" cy="143.99" rx="8.37" ry="6.14" transform="translate(-20.47 89.19) rotate(-11.76)"/><text class="cls-11" transform="translate(391.26 158.32) rotate(167.57)"><tspan class="cls-12">L</tspan><tspan class="cls-13" x="4.12" y="0">o</tspan><tspan class="cls-14" x="9" y="0">v</tspan><tspan x="13.24" y="0">e</tspan></text><circle class="cls-7" cx="347.35" cy="184.51" r="11.42" transform="translate(-30.32 74.67) rotate(-11.76)"/><circle class="cls-8" cx="347.14" cy="183.5" r="9.14" transform="translate(-30.11 74.6) rotate(-11.76)"/><ellipse class="cls-15" cx="348.39" cy="189.15" rx="8.37" ry="6.14" transform="translate(-31.24 74.98) rotate(-11.76)"/><text class="cls-16" transform="translate(355.93 180.18) rotate(167.57)">Happiness</text><text class="cls-16" transform="translate(429.89 135.41) rotate(167.57)"><tspan class="cls-17">R</tspan><tspan x="2.71" y="0">oman</tspan><tspan class="cls-18" x="14.81" y="0">c</tspan><tspan x="17.02" y="0">e</tspan></text><circle class="cls-19" cx="259.25" cy="245.6" r="17.85" transform="translate(-24.02 28.14) rotate(-5.94)"/><circle class="cls-20" cx="259.08" cy="243.99" r="14.28" transform="translate(-23.85 28.11) rotate(-5.94)"/><ellipse class="cls-21" cx="260.03" cy="252.96" rx="13.07" ry="9.59" transform="matrix(0.99, -0.1, 0.1, 0.99, -24.77, 28.26)"/><circle class="cls-3" cx="310.33" cy="209.44" r="14.28" transform="translate(-60.75 259.15) rotate(-41.65)"/><circle class="cls-4" cx="309.47" cy="208.47" r="11.42" transform="translate(-60.32 258.33) rotate(-41.65)"/><ellipse class="cls-22" cx="314.34" cy="213.86" rx="10.46" ry="7.67" transform="translate(-62.67 262.93) rotate(-41.65)"/><circle class="cls-19" cx="299.73" cy="206.03" r="14.28" transform="translate(-61.16 251.25) rotate(-41.65)"/><circle class="cls-20" cx="298.87" cy="205.06" r="11.42" transform="translate(-60.73 250.43) rotate(-41.65)"/><ellipse class="cls-23" cx="303.67" cy="210.45" rx="10.46" ry="7.67" transform="translate(-63.1 254.98) rotate(-41.65)"/><circle class="cls-3" cx="275.26" cy="128.04" r="11.42" transform="translate(136.37 397.99) rotate(-87.72)"/><circle class="cls-4" cx="275.3" cy="127.01" r="9.14" transform="translate(137.44 397.04) rotate(-87.72)"/><ellipse class="cls-24" cx="275.12" cy="132.82" rx="6.14" ry="8.37" transform="translate(131.46 402.44) rotate(-87.72)"/><circle class="cls-3" cx="273.81" cy="91.65" r="11.42" transform="matrix(0.04, -1, 1, 0.04, 171.34, 361.6)"/><circle class="cls-4" cx="273.86" cy="90.62" r="9.14" transform="translate(172.41 360.65) rotate(-87.72)"/><ellipse class="cls-25" cx="273.68" cy="96.43" rx="6.14" ry="8.37" transform="translate(166.43 366.05) rotate(-87.72)"/><circle class="cls-3" cx="275.91" cy="167.88" r="11.42" transform="matrix(0.04, -1, 1, 0.04, 97.18, 436.89)"/><circle class="cls-4" cx="275.95" cy="166.85" r="9.14" transform="translate(98.26 435.94) rotate(-87.72)"/><ellipse class="cls-26" cx="275.77" cy="172.66" rx="6.14" ry="8.37" transform="translate(92.28 441.34) rotate(-87.72)"/><circle class="cls-27" cx="227.38" cy="91.23" r="11.42" transform="translate(127.16 314.8) rotate(-87.72)"/><circle class="cls-28" cx="227.42" cy="90.2" r="9.14" transform="translate(128.24 313.85) rotate(-87.72)"/><ellipse class="cls-29" cx="227.23" cy="95.93" rx="6.14" ry="8.37" transform="translate(122.33 319.16) rotate(-87.72)"/><circle class="cls-27" cx="245.14" cy="130.86" r="11.42" transform="matrix(0.04, -1, 1, 0.04, 104.63, 370.6)"/><circle class="cls-28" cx="245.18" cy="129.83" r="9.14" transform="translate(105.7 369.65) rotate(-87.72)"/><ellipse class="cls-30" cx="245" cy="135.56" rx="6.14" ry="8.37" transform="translate(99.8 374.96) rotate(-87.72)"/><circle class="cls-27" cx="306.37" cy="132.08" r="11.42" transform="translate(162.21 432.95) rotate(-87.72)"/><circle class="cls-28" cx="306.41" cy="131.04" r="9.14" transform="translate(163.28 432) rotate(-87.72)"/><ellipse class="cls-31" cx="306.23" cy="136.77" rx="6.14" ry="8.37" transform="matrix(0.04, -1, 1, 0.04, 157.37, 437.31)"/><circle class="cls-27" cx="461.88" cy="41.46" r="11.42" transform="translate(-1.19 66.33) rotate(-8.2)"/><circle class="cls-28" cx="461.73" cy="40.43" r="9.14" transform="translate(-1.04 66.3) rotate(-8.2)"/><ellipse class="cls-32" cx="462.59" cy="46.1" rx="8.37" ry="6.14" transform="translate(-1.84 66.48) rotate(-8.2)"/><circle class="cls-27" cx="272.41" cy="11.42" r="11.42" transform="translate(250.16 283.16) rotate(-87.72)"/><circle class="cls-28" cx="272.45" cy="10.39" r="9.14" transform="translate(251.23 282.21) rotate(-87.72)"/><ellipse class="cls-33" cx="272.26" cy="16.12" rx="6.14" ry="8.37" transform="translate(245.32 287.53) rotate(-87.72)"/><circle class="cls-27" cx="273.19" cy="49.38" r="11.42" transform="translate(212.98 320.39) rotate(-87.72)"/><circle class="cls-28" cx="273.24" cy="48.34" r="9.14" transform="matrix(0.04, -1, 1, 0.04, 214.06, 319.44)"/><ellipse class="cls-34" cx="273.05" cy="54.07" rx="6.14" ry="8.37" transform="translate(208.15 324.75) rotate(-87.72)"/><circle class="cls-35" cx="54.57" cy="79.16" r="11.42" transform="translate(-7.9 6.07) rotate(-5.94)"/><circle class="cls-36" cx="54.46" cy="78.13" r="9.14" transform="translate(-7.79 6.05) rotate(-5.94)"/><ellipse class="cls-37" cx="55.08" cy="83.89" rx="8.37" ry="6.14" transform="translate(-8.38 6.15) rotate(-5.94)"/><circle class="cls-19" cx="190.65" cy="179.81" r="11.42" transform="translate(-22.3 27.06) rotate(-7.67)"/><circle class="cls-20" cx="190.51" cy="178.79" r="9.14" transform="translate(-22.16 27.03) rotate(-7.67)"/><ellipse class="cls-38" cx="191.29" cy="184.51" rx="8.37" ry="6.14" transform="translate(-22.92 27.19) rotate(-7.67)"/><circle class="cls-19" cx="155.96" cy="112.17" r="11.42" transform="translate(-7.94 212.38) rotate(-67.17)"/><circle class="cls-20" cx="155.01" cy="111.77" r="9.14" transform="translate(-8.15 211.26) rotate(-67.17)"/><ellipse class="cls-39" cx="160.33" cy="114" rx="8.37" ry="6.14" transform="translate(-6.95 217.53) rotate(-67.17)"/><circle class="cls-19" cx="106.88" cy="49.61" r="11.42" transform="translate(19.69 128.87) rotate(-67.17)"/><circle class="cls-20" cx="105.93" cy="49.21" r="9.14" transform="translate(19.48 127.74) rotate(-67.17)"/><ellipse class="cls-40" cx="111.25" cy="51.44" rx="8.37" ry="6.14" transform="translate(20.67 134.02) rotate(-67.17)"/><text class="cls-41" transform="matrix(-0.75, 0.66, -0.66, -0.75, 310.07, 200.73)">Spi<tspan class="cls-42" x="8.15" y="0">r</tspan><tspan x="10.23" y="0">itual</tspan><tspan class="cls-43" x="-2.23" y="7.55">P</tspan><tspan class="cls-44" x="1.01" y="7.55">r</tspan><tspan x="3.01" y="7.55">es</tspan><tspan class="cls-45" x="8.65" y="7.55">c</tspan><tspan class="cls-46" x="11.43" y="7.55">en</tspan><tspan class="cls-47" x="18.07" y="7.55">c</tspan><tspan x="20.85" y="7.55">e</tspan></text><text class="cls-48" transform="translate(158.25 101.88) rotate(112.83)"><tspan class="cls-49">R</tspan><tspan class="cls-50" x="3.76" y="0">o</tspan><tspan class="cls-51" x="7.52" y="0">y</tspan><tspan x="10.75" y="0">al</tspan><tspan class="cls-52" x="15.73" y="0">t</tspan><tspan x="18.09" y="0">y</tspan></text><text class="cls-53" transform="translate(200.83 177.52) rotate(172.33)">Subse<tspan class="cls-54" x="9.05" y="0">r</tspan><tspan x="10.32" y="0">vien</tspan><tspan class="cls-55" x="16.7" y="0">c</tspan><tspan x="18.29" y="0">e</tspan></text><circle class="cls-19" cx="207.09" cy="134.87" r="11.42" transform="translate(-16.15 28.85) rotate(-7.67)"/><circle class="cls-20" cx="206.95" cy="133.85" r="9.14" transform="matrix(0.99, -0.13, 0.13, 0.99, -16.01, 28.82)"/><ellipse class="cls-56" cx="207.73" cy="139.57" rx="8.37" ry="6.14" transform="translate(-16.77 28.98) rotate(-7.67)"/><text class="cls-53" transform="translate(217.27 132.58) rotate(172.33)"><tspan class="cls-57">C</tspan><tspan x="2.05" y="0">ompassion</tspan></text><text class="cls-58" transform="translate(109.76 39.56) rotate(112.83)"><tspan class="cls-59">I</tspan><tspan x="1.17" y="0">nspi</tspan><tspan class="cls-60" x="9.45" y="0">ra</tspan><tspan x="13.22" y="0">tion</tspan></text><text class="cls-61" transform="matrix(-1, -0.04, 0.04, -1, 316.58, 132.11)"><tspan class="cls-62">I</tspan><tspan x="0.87" y="0">ndecisi</tspan><tspan class="cls-63" x="11.13" y="0">v</tspan><tspan x="12.78" y="0">eness</tspan></text><text class="cls-64" transform="matrix(-1, -0.04, 0.04, -1, 284.41, 89.83)"><tspan class="cls-65">M</tspan><tspan x="5.14" y="0">istrust</tspan></text><text class="cls-66" transform="matrix(-1, -0.04, 0.04, -1, 286.46, 167.05)">Un<tspan class="cls-67" x="5.29" y="0">c</tspan><tspan x="7.23" y="0">e</tspan><tspan class="cls-68" x="9.44" y="0">r</tspan><tspan x="10.98" y="0">tai</tspan><tspan class="cls-69" x="15.59" y="0">n</tspan><tspan class="cls-70" x="18.01" y="0">t</tspan><tspan x="19.51" y="0">y</tspan></text><text class="cls-71" transform="matrix(-1, -0.04, 0.04, -1, 284.85, 126.18)">D<tspan class="cls-72" x="4.65" y="0">oubt</tspan></text><text class="cls-73" transform="matrix(-1, -0.04, 0.04, -1, 283.48, 47.41)"><tspan class="cls-74">B</tspan><tspan x="3.28" y="0">et</tspan><tspan class="cls-75" x="8.27" y="0">r</tspan><tspan class="cls-76" x="10.2" y="0">a</tspan><tspan class="cls-77" x="13.04" y="0">y</tspan><tspan x="15.85" y="0">al</tspan></text><text class="cls-16" transform="matrix(-1, -0.04, 0.04, -1, 282.66, 10.46)"><tspan class="cls-78">T</tspan><tspan class="cls-79" x="2.26" y="0">r</tspan><tspan x="3.85" y="0">eache</tspan><tspan class="cls-80" x="16.28" y="0">r</tspan><tspan x="18.04" y="0">y</tspan></text><circle class="cls-81" cx="344.23" cy="146.3" r="11.42" transform="translate(-17.35 50.62) rotate(-8.2)"/><circle class="cls-82" cx="344.08" cy="145.27" r="9.14" transform="translate(-17.21 50.59) rotate(-8.2)"/><ellipse class="cls-83" cx="344.94" cy="150.94" rx="8.37" ry="6.14" transform="translate(-18.01 50.77) rotate(-8.2)"/><circle class="cls-81" cx="406.56" cy="94.46" r="11.42" transform="matrix(0.99, -0.14, 0.14, 0.99, -9.32, 58.98)"/><circle class="cls-82" cx="406.41" cy="93.44" r="9.14" transform="translate(-9.17 58.95) rotate(-8.2)"/><ellipse class="cls-84" cx="407.27" cy="99.1" rx="8.37" ry="6.14" transform="translate(-9.97 59.13) rotate(-8.2)"/><text class="cls-85" transform="matrix(-1, -0.04, 0.04, -1, 251.43, 128.73)"><tspan class="cls-86">F</tspan><tspan x="3.16" y="0">ear</tspan></text><text class="cls-16" transform="matrix(-1, -0.04, 0.04, -1, 238.62, 90.31)"><tspan class="cls-87">C</tspan><tspan class="cls-88" x="2.85" y="0">o</tspan><tspan class="cls-89" x="5.56" y="0">w</tspan><tspan x="9.21" y="0">a</tspan><tspan class="cls-90" x="11.63" y="0">r</tspan><tspan x="13.21" y="0">di</tspan><tspan class="cls-91" x="17.2" y="0">c</tspan><tspan x="19.41" y="0">e</tspan></text><text class="cls-92" transform="translate(273.9 245.58) rotate(174.06)">Spi<tspan class="cls-93" x="10.62" y="0">r</tspan><tspan x="13.34" y="0">itual</tspan><tspan class="cls-94" x="0" y="9.84">P</tspan><tspan class="cls-95" x="4.16" y="9.84">o</tspan><tspan class="cls-96" x="8.6" y="9.84">w</tspan><tspan x="14.55" y="9.84">er</tspan></text><text class="cls-97" transform="translate(65.14 75.91) rotate(174.06)"><tspan class="cls-98">D</tspan><tspan x="3.7" y="0">e</tspan><tspan class="cls-99" x="6.47" y="0">v</tspan><tspan x="9.08" y="0">otion</tspan></text><circle class="cls-100" cx="513.26" cy="73.91" r="11.42" transform="translate(-4.89 53.49) rotate(-5.94)"/><circle class="cls-101" cx="513.15" cy="72.88" r="9.14" transform="translate(-4.79 53.48) rotate(-5.94)"/><ellipse class="cls-102" cx="513.81" cy="78.6" rx="8.37" ry="6.14" transform="translate(-5.37 53.57) rotate(-5.94)"/><text class="cls-103" transform="translate(524.02 71.87) rotate(174.06)"><tspan class="cls-104">I</tspan><tspan x="1.24" y="0">mpulsi</tspan><tspan class="cls-105" x="15.31" y="0">v</tspan><tspan class="cls-106" x="17.66" y="0">e</tspan></text><circle class="cls-19" cx="230.73" cy="209.12" r="14.28" transform="matrix(0.18, -0.98, 0.98, 0.18, -16.56, 398.36)"/><circle class="cls-20" cx="230.96" cy="207.85" r="11.42" transform="translate(-15.12 397.55) rotate(-79.61)"/><ellipse class="cls-107" cx="229.67" cy="214.95" rx="7.67" ry="10.46" transform="translate(-23.17 402.09) rotate(-79.61)"/><text class="cls-108" transform="translate(244.22 208.94) rotate(-169.61)"><tspan class="cls-109">A</tspan><tspan class="cls-110" x="4.14" y="0">utho</tspan><tspan class="cls-111" x="17.83" y="0">r</tspan><tspan x="20.11" y="0">i</tspan><tspan class="cls-112" x="21.72" y="0">t</tspan><tspan x="24.07" y="0">y</tspan></text><text class="cls-113" transform="translate(415.31 91.04) rotate(174.06)"><tspan class="cls-114">W</tspan><tspan class="cls-115" x="4.38" y="0">a</tspan><tspan class="cls-116" x="6.97" y="0">r</tspan><tspan class="cls-117" x="8.75" y="0">m</tspan><tspan x="13.22" y="0">th</tspan></text><text class="cls-118" transform="translate(352.99 142.99) rotate(174.06)">Lig<tspan class="cls-119" x="10.6" y="0">h</tspan><tspan x="15.22" y="0">t</tspan></text><text class="cls-113" transform="translate(472.4 38.88) rotate(174.06)">Ene<tspan class="cls-120" x="8.33" y="0">r</tspan><tspan class="cls-121" x="10.05" y="0">getic</tspan></text><path class="cls-1" d="M403.88,101.19"/></g></g></svg>