<svg xmlns="http://www.w3.org/2000/svg" xmlns:xlink="http://www.w3.org/1999/xlink" viewBox="0 0 402.14 255.37"><defs><style>.cls-1{fill:none;stroke:#c1c1c1;stroke-width:5px;}.cls-1,.cls-3{stroke-miterlimit:10;}.cls-2{fill:#c1c1c1;}.cls-3{fill:#1a1a1a;stroke:#fff;}.cls-4{fill:#e2e2e2;}.cls-5{fill:#ccc;}.cls-6{fill:url(#linear-gradient);}.cls-7{fill:url(#linear-gradient-2);}.cls-8{fill:url(#linear-gradient-3);}.cls-9{fill:#ede148;}.cls-10{fill:#ddc626;}.cls-11{fill:url(#linear-gradient-4);}.cls-12{fill:url(#linear-gradient-5);}.cls-13{fill:#ed7f2e;}.cls-14{fill:#cc5e15;}.cls-15{fill:url(#linear-gradient-6);}.cls-16{fill:url(#linear-gradient-7);}.cls-17{fill:url(#linear-gradient-8);}.cls-18{fill:url(#linear-gradient-9);}.cls-19{fill:#8338e5;}.cls-20{fill:#5e19cc;}.cls-21{fill:url(#linear-gradient-10);}.cls-22{fill:url(#linear-gradient-11);}.cls-23{fill:url(#linear-gradient-12);}.cls-24{fill:url(#linear-gradient-13);}.cls-25{fill:url(#linear-gradient-14);}.cls-26{fill:#ef4dc1;}.cls-27{fill:#cc2fa7;}.cls-28{fill:url(#linear-gradient-15);}.cls-29{fill:url(#linear-gradient-16);}.cls-30{fill:#c9c9c9;}.cls-31{fill:#a8a8a8;}.cls-32{fill:url(#linear-gradient-17);}.cls-33{fill:url(#linear-gradient-18);}.cls-34{fill:url(#linear-gradient-19);}.cls-35{font-size:6.93px;}.cls-103,.cls-109,.cls-115,.cls-121,.cls-126,.cls-35,.cls-39,.cls-40,.cls-45,.cls-49,.cls-54,.cls-57,.cls-59,.cls-68,.cls-72,.cls-77,.cls-82,.cls-86,.cls-89,.cls-92,.cls-97{fill:#fff;font-family:MyriadPro-Regular, Myriad Pro;}.cls-36{letter-spacing:-0.01em;}.cls-37{letter-spacing:0em;}.cls-38{letter-spacing:0em;}.cls-39{font-size:5.32px;}.cls-40{font-size:4.6px;}.cls-41{letter-spacing:0.01em;}.cls-42{letter-spacing:-0.01em;}.cls-43{letter-spacing:-0.01em;}.cls-44{letter-spacing:-0.01em;}.cls-45{font-size:5.46px;}.cls-46{letter-spacing:0em;}.cls-47{letter-spacing:-0.01em;}.cls-48{letter-spacing:0em;}.cls-49{font-size:4.44px;}.cls-50{letter-spacing:-0.01em;}.cls-51{letter-spacing:-0.01em;}.cls-52{letter-spacing:0.03em;}.cls-53{fill:url(#linear-gradient-20);}.cls-54{font-size:3.13px;}.cls-55{letter-spacing:-0.01em;}.cls-56{letter-spacing:-0.01em;}.cls-57{font-size:4px;}.cls-58{letter-spacing:-0.03em;}.cls-59{font-size:5px;}.cls-60{letter-spacing:-0.01em;}.cls-61{letter-spacing:0em;}.cls-62{letter-spacing:-0.01em;}.cls-63{letter-spacing:0em;}.cls-64{letter-spacing:-0.01em;}.cls-65{letter-spacing:0em;}.cls-66{letter-spacing:0em;}.cls-67{letter-spacing:0em;}.cls-68{font-size:7px;}.cls-69{letter-spacing:0.01em;}.cls-70{letter-spacing:-0.02em;}.cls-71{letter-spacing:-0.01em;}.cls-72{font-size:3.61px;}.cls-73{letter-spacing:-0.04em;}.cls-74{letter-spacing:-0.01em;}.cls-75{letter-spacing:-0.01em;}.cls-76{letter-spacing:0.02em;}.cls-77{font-size:4.59px;}.cls-78{letter-spacing:0em;}.cls-79{letter-spacing:-0.01em;}.cls-80{fill:url(#linear-gradient-21);}.cls-81{fill:url(#linear-gradient-22);}.cls-82,.cls-86{font-size:5.61px;}.cls-82{letter-spacing:-0.02em;}.cls-83{letter-spacing:0em;}.cls-84{letter-spacing:0em;}.cls-85{letter-spacing:-0.01em;}.cls-87{letter-spacing:0.01em;}.cls-88{letter-spacing:-0.01em;}.cls-89{font-size:5.03px;}.cls-90{letter-spacing:0em;}.cls-91{letter-spacing:0.01em;}.cls-92{font-size:4.71px;}.cls-93{letter-spacing:-0.02em;}.cls-94{letter-spacing:-0.01em;}.cls-95{letter-spacing:0.01em;}.cls-96{letter-spacing:0em;}.cls-97{font-size:8.22px;}.cls-98{letter-spacing:-0.02em;}.cls-99{letter-spacing:0em;}.cls-100{letter-spacing:0em;}.cls-101{letter-spacing:0.01em;}.cls-102{fill:url(#linear-gradient-23);}.cls-103{font-size:5.5px;}.cls-104{letter-spacing:0em;}.cls-105{letter-spacing:-0.01em;}.cls-106{fill:#3393db;}.cls-107{fill:#157dbc;}.cls-108{fill:url(#linear-gradient-24);}.cls-109{font-size:6.45px;}.cls-110{letter-spacing:-0.01em;}.cls-111{letter-spacing:-0.01em;}.cls-112{fill:#ff2751;}.cls-113{fill:#db0f40;}.cls-114{fill:url(#linear-gradient-25);}.cls-115{font-size:4.32px;}.cls-116{letter-spacing:-0.01em;}.cls-117{letter-spacing:0em;}.cls-118{letter-spacing:-0.01em;}.cls-119{letter-spacing:0em;}.cls-120{fill:url(#linear-gradient-26);}.cls-121{font-size:8.63px;}.cls-122{letter-spacing:-0.03em;}.cls-123{letter-spacing:0em;}.cls-124{letter-spacing:-0.01em;}.cls-125{fill:url(#linear-gradient-27);}.cls-126{font-size:4.32px;}.cls-127{letter-spacing:-0.04em;}.cls-128{letter-spacing:0em;}</style><linearGradient id="linear-gradient" x1="-786.25" y1="-2678.95" x2="-786.25" y2="-2663.61" gradientTransform="translate(2825.05 -574.75) rotate(-90)" gradientUnits="userSpaceOnUse"><stop offset="0" stop-color="#fff"/><stop offset="1" stop-color="#fff" stop-opacity="0"/></linearGradient><linearGradient id="linear-gradient-2" x1="-833.25" y1="-2666.95" x2="-833.25" y2="-2651.61" gradientTransform="translate(2860.63 -631.21) rotate(-90)" xlink:href="#linear-gradient"/><linearGradient id="linear-gradient-3" x1="82.17" y1="382.55" x2="82.17" y2="401.72" gradientTransform="translate(300.55 630.59) rotate(180)" xlink:href="#linear-gradient"/><linearGradient id="linear-gradient-4" x1="-873.35" y1="-2666.31" x2="-873.35" y2="-2650.97" gradientTransform="translate(2900.06 -669.8) rotate(-90)" xlink:href="#linear-gradient"/><linearGradient id="linear-gradient-5" x1="-795.35" y1="-2675.31" x2="-795.35" y2="-2659.97" gradientTransform="translate(2830.69 -586.99) rotate(-90)" xlink:href="#linear-gradient"/><linearGradient id="linear-gradient-6" x1="60.48" y1="-533.39" x2="60.48" y2="-521.12" gradientTransform="translate(393.61 -460.31) rotate(180)" xlink:href="#linear-gradient"/><linearGradient id="linear-gradient-7" x1="-949.36" y1="-2562.54" x2="-949.36" y2="-2550.27" gradientTransform="translate(2879.21 -843.82) rotate(-90)" xlink:href="#linear-gradient"/><linearGradient id="linear-gradient-8" x1="-934.95" y1="-2600.67" x2="-934.95" y2="-2588.4" gradientTransform="translate(2900.91 -792.12) rotate(-90)" xlink:href="#linear-gradient"/><linearGradient id="linear-gradient-9" x1="-917.48" y1="-2635.98" x2="-917.48" y2="-2623.71" gradientTransform="translate(2916.88 -740.32) rotate(-90)" xlink:href="#linear-gradient"/><linearGradient id="linear-gradient-10" x1="167.97" y1="-295.9" x2="167.97" y2="-283.63" gradientTransform="translate(271.72 -234.53) rotate(180)" xlink:href="#linear-gradient"/><linearGradient id="linear-gradient-11" x1="154.9" y1="-253.97" x2="154.9" y2="-241.69" gradientTransform="translate(236.81 -230.71) rotate(180)" xlink:href="#linear-gradient"/><linearGradient id="linear-gradient-12" x1="-822.82" y1="-2626.03" x2="-822.82" y2="-2613.76" gradientTransform="translate(2812.94 -660.66) rotate(-90)" xlink:href="#linear-gradient"/><linearGradient id="linear-gradient-13" x1="-854.17" y1="-2586.06" x2="-854.17" y2="-2573.79" gradientTransform="translate(2806.42 -730.25) rotate(-90)" xlink:href="#linear-gradient"/><linearGradient id="linear-gradient-14" x1="-810.87" y1="-2590.55" x2="-810.87" y2="-2578.28" gradientTransform="translate(2767.43 -684.79) rotate(-90)" xlink:href="#linear-gradient"/><linearGradient id="linear-gradient-15" x1="237.44" y1="-357.73" x2="237.44" y2="-345.46" gradientTransform="translate(339.23 -203.37) rotate(180)" xlink:href="#linear-gradient"/><linearGradient id="linear-gradient-16" x1="203.44" y1="-327.73" x2="203.44" y2="-315.46" gradientTransform="translate(306.38 -218.7) rotate(180)" xlink:href="#linear-gradient"/><linearGradient id="linear-gradient-17" x1="-817.84" y1="-2588.56" x2="-817.84" y2="-2576.29" gradientTransform="translate(2772.5 -693.36) rotate(-90)" xlink:href="#linear-gradient"/><linearGradient id="linear-gradient-18" x1="-879.82" y1="-2623.99" x2="-879.82" y2="-2611.72" gradientTransform="translate(2867.93 -716.65) rotate(-90)" xlink:href="#linear-gradient"/><linearGradient id="linear-gradient-19" x1="-888.81" y1="-2587.24" x2="-888.81" y2="-2574.97" gradientTransform="translate(2842.13 -761.85) rotate(-90)" xlink:href="#linear-gradient"/><linearGradient id="linear-gradient-20" x1="219.84" y1="-459.85" x2="219.84" y2="-447.58" gradientTransform="translate(340.92 -273.36) rotate(180)" xlink:href="#linear-gradient"/><linearGradient id="linear-gradient-21" x1="-782.72" y1="-2635.27" x2="-782.72" y2="-2623" gradientTransform="translate(2781.64 -613.48) rotate(-90)" xlink:href="#linear-gradient"/><linearGradient id="linear-gradient-22" x1="-789.68" y1="-2631.28" x2="-789.68" y2="-2619.01" gradientTransform="translate(2784.82 -624.05) rotate(-90)" xlink:href="#linear-gradient"/><linearGradient id="linear-gradient-23" x1="91.92" y1="398.45" x2="91.92" y2="417.62" gradientTransform="translate(291.77 648.61) rotate(180)" xlink:href="#linear-gradient"/><linearGradient id="linear-gradient-24" x1="-32.42" y1="631.66" x2="-32.42" y2="643.93" gradientTransform="translate(11.78 668.56) rotate(180)" xlink:href="#linear-gradient"/><linearGradient id="linear-gradient-25" x1="-84.31" y1="296.64" x2="-84.31" y2="308.91" gradientTransform="translate(285.43 428.14) rotate(180)" xlink:href="#linear-gradient"/><linearGradient id="linear-gradient-26" x1="-142.94" y1="266.24" x2="-142.94" y2="278.51" gradientTransform="translate(1.93 359.47) rotate(180)" xlink:href="#linear-gradient"/><linearGradient id="linear-gradient-27" x1="-162.68" y1="237.06" x2="-162.68" y2="249.33" gradientTransform="translate(16.93 324.42) rotate(180)" xlink:href="#linear-gradient"/></defs><title>Asset 13</title><g id="Layer_2" data-name="Layer 2"><g id="Layer_5" data-name="Layer 5"><polyline class="cls-1" points="159.36 204.05 202.42 238.45 201.76 194.38"/><line class="cls-1" x1="241.08" y1="197.56" x2="202.42" y2="238.45"/><path class="cls-1" d="M394.11,145.49A284,284,0,0,0,99.67,99.12"/><polygon class="cls-2" points="397.38 138.47 402.14 152.65 387.48 149.68 397.38 138.47"/><polyline class="cls-1" points="185.87 120.26 202.89 195.37 226.8 117.33"/><polyline class="cls-1" points="241.09 197.56 250.31 159.62 261.61 120.99"/><polyline class="cls-1" points="241.31 197.93 287.52 170.97 306.78 137"/><polyline class="cls-1" points="306.15 136.97 321.17 99.72 328.93 62.71"/><polyline class="cls-1" points="152.79 163.24 159.36 204.05 116.45 177.23 97.36 144.27 99.67 99.12 99.67 52.28 79.75 12.84"/><path class="cls-1" d="M79.74,12.84C54.86,18.39,30.58,31.4,9.06,44.91"/><polygon class="cls-2" points="7.01 37.51 0 50.73 14.95 50.19 7.01 37.51"/><rect class="cls-3" x="89.05" y="89.77" width="21" height="21" transform="translate(227.38 160.46) rotate(160.01)"/><rect class="cls-3" x="67.67" y="3.6" width="21" height="21" transform="translate(156.45 0.62) rotate(160.01)"/><rect class="cls-3" x="89.17" y="41.78" width="21" height="21" transform="translate(211.21 67.32) rotate(160.01)"/><rect class="cls-3" x="239.6" y="147.86" width="21" height="21" transform="translate(539.28 221.66) rotate(160.01)"/><rect class="cls-3" x="250.71" y="112.21" width="21" height="21" transform="translate(548.64 148.72) rotate(160.01)"/><rect class="cls-3" x="295.42" y="127.55" width="21" height="21" transform="translate(640.61 163.18) rotate(160.01)"/><rect class="cls-3" x="355.31" y="112.82" width="21" height="21" transform="translate(751.74 114.13) rotate(160.01)"/><circle class="cls-4" cx="154" cy="205.62" r="14.28" transform="translate(-59.58 348.37) rotate(-86.93)"/><circle class="cls-5" cx="154.06" cy="204.33" r="11.42" transform="translate(-58.22 347.22) rotate(-86.93)"/><ellipse class="cls-6" cx="153.77" cy="211.5" rx="7.67" ry="10.46" transform="translate(-65.67 353.72) rotate(-86.93)"/><circle class="cls-4" cx="201.57" cy="196.15" r="14.28" transform="translate(-5.1 386.92) rotate(-86.93)"/><circle class="cls-5" cx="201.64" cy="194.86" r="11.42" transform="translate(-3.75 385.77) rotate(-86.93)"/><ellipse class="cls-7" cx="201.35" cy="202.04" rx="7.67" ry="10.46" transform="translate(-11.19 392.27) rotate(-86.93)"/><circle class="cls-4" cx="211.66" cy="235.45" r="17.85" transform="translate(-91.19 327.74) rotate(-64.99)"/><circle class="cls-5" cx="210.2" cy="234.76" r="14.28" transform="translate(-91.41 326.02) rotate(-64.99)"/><ellipse class="cls-8" cx="218.39" cy="238.45" rx="13.07" ry="9.59" transform="translate(-90.03 335.56) rotate(-64.99)"/><circle class="cls-9" cx="241.69" cy="197.69" r="14.28" transform="translate(31.34 428.43) rotate(-86.93)"/><circle class="cls-10" cx="241.76" cy="196.4" r="11.42" transform="translate(32.69 427.28) rotate(-86.93)"/><ellipse class="cls-11" cx="241.42" cy="203.55" rx="7.67" ry="10.46" transform="translate(25.23 433.72) rotate(-86.93)"/><circle class="cls-9" cx="163.32" cy="202.49" r="14.28" transform="translate(-47.63 354.73) rotate(-86.93)"/><circle class="cls-10" cx="163.39" cy="201.2" r="11.42" transform="translate(-46.28 353.57) rotate(-86.93)"/><ellipse class="cls-12" cx="163.05" cy="208.36" rx="7.67" ry="10.46" transform="translate(-53.74 360.02) rotate(-86.93)"/><circle class="cls-13" cx="329.56" cy="63.77" r="11.42" transform="translate(60.49 264.47) rotate(-47.67)"/><circle class="cls-14" cx="328.8" cy="63.08" r="9.14" transform="matrix(0.67, -0.74, 0.74, 0.67, 60.75, 263.67)"/><ellipse class="cls-15" cx="333.13" cy="66.95" rx="8.37" ry="6.14" transform="matrix(0.67, -0.74, 0.74, 0.67, 59.3, 268.14)"/><circle class="cls-9" cx="323.02" cy="100.84" r="11.42" transform="translate(205.01 417.99) rotate(-86.93)"/><circle class="cls-10" cx="323.07" cy="99.81" r="9.14" transform="translate(206.1 417.07) rotate(-86.93)"/><ellipse class="cls-16" cx="322.81" cy="105.54" rx="6.14" ry="8.37" transform="translate(200.12 422.22) rotate(-86.93)"/><circle class="cls-9" cx="306.59" cy="138.14" r="11.42" transform="translate(152.21 436.89) rotate(-86.93)"/><circle class="cls-10" cx="306.64" cy="137.11" r="9.14" transform="translate(153.3 435.97) rotate(-86.93)"/><ellipse class="cls-17" cx="306.38" cy="142.84" rx="6.14" ry="8.37" transform="translate(147.33 441.12) rotate(-86.93)"/><circle class="cls-9" cx="287.25" cy="172.47" r="11.42" transform="translate(99.63 450.06) rotate(-86.93)"/><circle class="cls-10" cx="287.3" cy="171.44" r="9.14" transform="translate(100.72 449.14) rotate(-86.93)"/><ellipse class="cls-18" cx="287.03" cy="177.16" rx="6.14" ry="8.37" transform="translate(94.75 454.29) rotate(-86.93)"/><circle class="cls-19" cx="100.27" cy="52.02" r="11.42" transform="translate(-6.07 90.11) rotate(-47.12)"/><circle class="cls-20" cx="99.52" cy="51.32" r="9.14" transform="translate(-5.8 89.33) rotate(-47.12)"/><ellipse class="cls-21" cx="103.75" cy="55.24" rx="8.37" ry="6.14" transform="translate(-7.32 93.69) rotate(-47.12)"/><circle class="cls-19" cx="78.43" cy="13.9" r="11.42" transform="translate(14.88 61.92) rotate(-47.12)"/><circle class="cls-20" cx="77.68" cy="13.2" r="9.14" transform="translate(15.15 61.14) rotate(-47.12)"/><ellipse class="cls-22" cx="81.91" cy="17.12" rx="8.37" ry="6.14" transform="translate(13.63 65.5) rotate(-47.12)"/><circle class="cls-4" cx="193.22" cy="157.45" r="11.42" transform="translate(25.65 341.96) rotate(-86.93)"/><circle class="cls-5" cx="193.28" cy="156.42" r="9.14" transform="translate(26.73 341.03) rotate(-86.93)"/><ellipse class="cls-23" cx="193.05" cy="162.16" rx="6.14" ry="8.37" transform="translate(20.78 346.24) rotate(-86.93)"/><circle class="cls-4" cx="226.67" cy="119.21" r="11.42" transform="translate(95.49 339.17) rotate(-86.93)"/><circle class="cls-5" cx="226.73" cy="118.18" r="9.14" transform="translate(96.57 338.25) rotate(-86.93)"/><ellipse class="cls-24" cx="226.5" cy="123.92" rx="6.14" ry="8.37" transform="matrix(0.05, -1, 1, 0.05, 90.62, 343.45)"/><circle class="cls-4" cx="183.19" cy="121.38" r="11.42" transform="translate(52.17 297.8) rotate(-86.93)"/><circle class="cls-5" cx="183.25" cy="120.35" r="9.14" transform="matrix(0.05, -1, 1, 0.05, 53.26, 296.88)"/><ellipse class="cls-25" cx="183.02" cy="126.09" rx="6.14" ry="8.37" transform="translate(47.3 302.08) rotate(-86.93)"/><circle class="cls-26" cx="98.25" cy="145.03" r="11.42" transform="translate(-74.89 118.35) rotate(-47.12)"/><circle class="cls-27" cx="97.49" cy="144.33" r="9.14" transform="translate(-74.61 117.57) rotate(-47.12)"/><ellipse class="cls-28" cx="101.79" cy="148.22" rx="8.37" ry="6.14" transform="translate(-76.09 121.96) rotate(-47.12)"/><circle class="cls-26" cx="99.4" cy="99.7" r="11.42" transform="translate(-41.3 104.71) rotate(-47.12)"/><circle class="cls-27" cx="98.64" cy="99" r="9.14" transform="translate(-41.03 103.93) rotate(-47.12)"/><ellipse class="cls-29" cx="102.94" cy="102.89" rx="8.37" ry="6.14" transform="translate(-42.5 108.32) rotate(-47.12)"/><circle class="cls-30" cx="190.41" cy="119.79" r="11.42" transform="translate(60.58 303.51) rotate(-86.93)"/><circle class="cls-31" cx="190.46" cy="118.76" r="9.14" transform="translate(61.67 302.59) rotate(-86.93)"/><ellipse class="cls-32" cx="190.08" cy="124.47" rx="6.14" ry="8.37" transform="translate(55.59 307.61) rotate(-86.93)"/><circle class="cls-30" cx="250.4" cy="158.49" r="11.42" transform="translate(78.72 400.04) rotate(-86.93)"/><circle class="cls-31" cx="250.46" cy="157.46" r="9.14" transform="matrix(0.05, -1, 1, 0.05, 79.81, 399.12)"/><ellipse class="cls-33" cx="250.07" cy="163.17" rx="6.14" ry="8.37" transform="translate(73.73 404.14) rotate(-86.93)"/><circle class="cls-30" cx="261.35" cy="122.28" r="11.42" transform="translate(125.24 376.71) rotate(-86.93)"/><circle class="cls-31" cx="261.41" cy="121.25" r="9.14" transform="translate(126.33 375.79) rotate(-86.93)"/><ellipse class="cls-34" cx="261.02" cy="126.96" rx="6.14" ry="8.37" transform="translate(120.25 380.81) rotate(-86.93)"/><text class="cls-35" transform="translate(249.06 201.18) rotate(-176.93)">Clear<tspan class="cls-36" x="-5.06" y="8.32">T</tspan><tspan x="-1.66" y="8.32">houg</tspan><tspan class="cls-37" x="13.68" y="8.32">h</tspan><tspan class="cls-38" x="17.5" y="8.32">t</tspan></text><text class="cls-39" transform="matrix(-0.67, 0.74, -0.74, -0.67, 335.68, 54.11)">Optimism</text><text class="cls-40" transform="translate(310.12 141.15) rotate(-176.93)"><tspan class="cls-41">S</tspan><tspan x="2.29" y="0">elf</tspan><tspan class="cls-42" x="-7.43" y="5.52">C</tspan><tspan x="-4.81" y="5.52">onfiden</tspan><tspan class="cls-43" x="10.12" y="5.52">c</tspan><tspan x="12.16" y="5.52">e</tspan></text><text class="cls-35" transform="translate(328.3 99.21) rotate(-176.93)">J<tspan class="cls-44" x="2.56" y="0">o</tspan><tspan class="cls-38" x="6.32" y="0">y</tspan></text><text class="cls-45" transform="translate(297.48 171.54) rotate(-176.93)">Ha<tspan class="cls-46" x="6.2" y="0">r</tspan><tspan x="8" y="0">mo</tspan><tspan class="cls-47" x="15.56" y="0">n</tspan><tspan class="cls-48" x="18.52" y="0">y</tspan></text><text class="cls-49" transform="translate(202.67 155.18) rotate(-176.93)">Dis<tspan class="cls-50" x="5.76" y="0">co</tspan><tspan class="cls-51" x="10.13" y="0">v</tspan><tspan x="12.22" y="0">e</tspan><tspan class="cls-52" x="14.44" y="0">r</tspan><tspan x="16.01" y="0">y</tspan></text><circle class="cls-4" cx="117.54" cy="177.24" r="11.42" transform="translate(-92.71 145.22) rotate(-47.79)"/><circle class="cls-5" cx="116.77" cy="176.54" r="9.14" transform="translate(-92.45 144.43) rotate(-47.79)"/><ellipse class="cls-53" cx="121.08" cy="180.35" rx="8.37" ry="6.14" transform="translate(-93.85 148.87) rotate(-47.79)"/><text class="cls-54" transform="translate(121.96 168.67) rotate(132.21)"><tspan class="cls-55">C</tspan><tspan x="1.78" y="0">omple</tspan><tspan class="cls-56" x="10.18" y="0">t</tspan><tspan x="11.2" y="0">eness</tspan></text><text class="cls-57" transform="translate(102.74 136.53) rotate(132.21)"><tspan class="cls-58">W</tspan><tspan x="3.25" y="0">ell-being</tspan></text><text class="cls-59" transform="translate(103.76 91.77) rotate(132.21)"><tspan class="cls-60">C</tspan><tspan x="2.84" y="0">e</tspan><tspan class="cls-61" x="5.35" y="0">n</tspan><tspan class="cls-62" x="8.1" y="0">t</tspan><tspan class="cls-63" x="9.73" y="0">e</tspan><tspan class="cls-64" x="12.24" y="0">r</tspan><tspan x="13.82" y="0">ed</tspan></text><text class="cls-57" transform="translate(104.79 44.2) rotate(132.21)"><tspan class="cls-65">S</tspan><tspan x="1.96" y="0">timul</tspan><tspan class="cls-66" x="10.7" y="0">a</tspan><tspan class="cls-67" x="12.62" y="0">tion</tspan></text><text class="cls-68" transform="translate(85.17 9.1) rotate(132.21)"><tspan class="cls-69">I</tspan><tspan x="1.74" y="0">nner</tspan><tspan class="cls-70" x="0" y="8.4">P</tspan><tspan x="3.55" y="8.4">ea</tspan><tspan class="cls-71" x="10.43" y="8.4">c</tspan><tspan x="13.52" y="8.4">e</tspan></text><text class="cls-72" transform="translate(237.11 117.23) rotate(-176.93)"><tspan class="cls-73">T</tspan><tspan class="cls-74" x="1.63" y="0">r</tspan><tspan x="2.79" y="0">anspa</tspan><tspan class="cls-75" x="11.76" y="0">r</tspan><tspan x="12.91" y="0">en</tspan><tspan class="cls-76" x="16.72" y="0">c</tspan><tspan x="18.4" y="0">y</tspan></text><text class="cls-77" transform="translate(194.46 122.72) rotate(-176.93)">New<tspan class="cls-78" x="-6.41" y="5.5">B</tspan><tspan x="-3.9" y="5.5">e</tspan><tspan class="cls-79" x="-1.6" y="5.5">g</tspan><tspan x="0.93" y="5.5">innings</tspan></text><circle class="cls-4" cx="152.68" cy="164.52" r="11.42" transform="translate(-19.79 308.17) rotate(-86.93)"/><circle class="cls-5" cx="152.74" cy="163.49" r="9.14" transform="translate(-18.71 307.25) rotate(-86.93)"/><ellipse class="cls-80" cx="152.5" cy="169.23" rx="6.14" ry="8.37" transform="translate(-24.66 312.45) rotate(-86.93)"/><circle class="cls-30" cx="160" cy="160.94" r="11.42" transform="translate(-9.28 312.09) rotate(-86.93)"/><circle class="cls-31" cx="160.06" cy="159.91" r="9.14" transform="translate(-8.2 311.17) rotate(-86.93)"/><ellipse class="cls-81" cx="159.67" cy="165.62" rx="6.14" ry="8.37" transform="translate(-14.27 316.19) rotate(-86.93)"/><text class="cls-82" transform="translate(215.04 193.75) rotate(-176.93)">A<tspan class="cls-83" x="3.32" y="0">w</tspan><tspan class="cls-84" x="7.43" y="0">a</tspan><tspan class="cls-85" x="10.13" y="0">r</tspan><tspan class="cls-84" x="11.91" y="0">eness</tspan></text><text class="cls-86" transform="translate(175.68 200.87) rotate(-176.93)"><tspan class="cls-87">I</tspan><tspan x="1.4" y="0">nno</tspan><tspan class="cls-88" x="10.71" y="0">c</tspan><tspan x="13.19" y="0">en</tspan><tspan class="cls-88" x="19.12" y="0">c</tspan><tspan class="cls-84" x="21.6" y="0">e</tspan></text><text class="cls-89" transform="translate(260.66 157.77) rotate(-176.93)"><tspan class="cls-90">R</tspan><tspan x="2.72" y="0">efle</tspan><tspan class="cls-91" x="10.39" y="0">c</tspan><tspan x="12.71" y="0">tion</tspan></text><text class="cls-92" transform="translate(270.37 123.81) rotate(-176.93)"><tspan class="cls-93">P</tspan><tspan class="cls-94" x="2.43" y="0">r</tspan><tspan x="3.92" y="0">escious</tspan><tspan class="cls-95" x="-0.58" y="5.65">M</tspan><tspan x="3.23" y="5.65">emo</tspan><tspan class="cls-96" x="12.1" y="5.65">r</tspan><tspan x="13.66" y="5.65">ies</tspan></text><text class="cls-97" transform="translate(170.31 159.28) rotate(-176.93)"><tspan class="cls-98">P</tspan><tspan x="4.25" y="0">u</tspan><tspan class="cls-99" x="8.78" y="0">r</tspan><tspan class="cls-100" x="11.5" y="0">i</tspan><tspan class="cls-101" x="13.43" y="0">t</tspan><tspan x="16.22" y="0">y</tspan></text><circle class="cls-9" cx="193.17" cy="237.52" r="17.85" transform="translate(-103.75 312.18) rotate(-64.99)"/><circle class="cls-10" cx="191.7" cy="236.84" r="14.28" transform="translate(-103.97 310.45) rotate(-64.99)"/><ellipse class="cls-102" cx="199.85" cy="240.57" rx="13.07" ry="9.59" transform="translate(-102.65 319.99) rotate(-64.99)"/><text class="cls-103" transform="translate(199.31 221.08) rotate(115.01)">Enlig<tspan class="cls-104" x="11.42" y="0">h</tspan><tspan class="cls-105" x="14.45" y="0">t</tspan><tspan x="16.24" y="0">enme</tspan><tspan class="cls-66" x="29.39" y="0">n</tspan><tspan x="32.42" y="0">t</tspan></text><circle class="cls-106" cx="39.87" cy="28.77" r="11.42" transform="translate(-3.05 52.74) rotate(-64.99)"/><circle class="cls-107" cx="38.94" cy="28.33" r="9.14" transform="translate(-3.2 51.64) rotate(-64.99)"/><ellipse class="cls-108" cx="44.19" cy="30.76" rx="8.37" ry="6.14" transform="translate(-2.37 57.81) rotate(-64.99)"/><text class="cls-109" transform="translate(42.28 17.92) rotate(115.01)">He<tspan class="cls-110" x="7.43" y="0">a</tspan><tspan class="cls-111" x="10.49" y="0">v</tspan><tspan x="13.53" y="0">en</tspan></text><circle class="cls-112" cx="365.44" cy="123.42" r="11.42" transform="translate(99.11 402.43) rotate(-64.99)"/><circle class="cls-113" cx="364.5" cy="122.98" r="9.14" transform="translate(98.96 401.32) rotate(-64.99)"/><ellipse class="cls-114" cx="369.74" cy="125.36" rx="8.37" ry="6.14" transform="translate(99.83 407.44) rotate(-64.99)"/><text class="cls-115" transform="translate(369.39 113.23) rotate(115.01)">E<tspan class="cls-116" x="2.13" y="0">x</tspan><tspan class="cls-117" x="4.06" y="0">ci</tspan><tspan class="cls-118" x="7.01" y="0">t</tspan><tspan x="8.41" y="0">eme</tspan><tspan class="cls-119" x="16.35" y="0">n</tspan><tspan x="18.73" y="0">t</tspan></text><circle class="cls-4" cx="140.55" cy="85.21" r="11.42" transform="translate(4.76 177.81) rotate(-65.52)"/><circle class="cls-5" cx="139.61" cy="84.78" r="9.14" transform="translate(4.59 176.7) rotate(-65.52)"/><ellipse class="cls-120" cx="144.87" cy="87.09" rx="8.37" ry="6.14" transform="translate(5.57 182.84) rotate(-65.52)"/><text class="cls-121" transform="translate(142.88 74.7) rotate(115.01)"><tspan class="cls-122">P</tspan><tspan class="cls-123" x="4.37" y="0">ea</tspan><tspan class="cls-124" x="12.86" y="0">c</tspan><tspan x="16.67" y="0">e</tspan></text><circle class="cls-4" cx="175.29" cy="79.34" r="11.42" transform="translate(30.43 205.99) rotate(-65.52)"/><circle class="cls-5" cx="174.35" cy="78.91" r="9.14" transform="translate(30.27 204.88) rotate(-65.52)"/><ellipse class="cls-125" cx="179.61" cy="81.23" rx="8.37" ry="6.14" transform="translate(31.25 211.02) rotate(-65.52)"/><text class="cls-126" transform="translate(179.33 71.84) rotate(115.01)"><tspan class="cls-127">F</tspan><tspan x="1.91" y="0">aith in</tspan><tspan class="cls-128" x="0" y="5.19">G</tspan><tspan x="2.81" y="5.19">oodness</tspan></text></g></g></svg>