<svg xmlns="http://www.w3.org/2000/svg" viewBox="0 0 1584 1584"><defs><style>.cls-1{fill:#191919;}.cls-2{font-size:26.45px;font-family:Comfortaa-Regular, Comfortaa;}.cls-2,.cls-6,.cls-7{fill:#fff;}.cls-3{letter-spacing:-0.08em;}.cls-4{letter-spacing:-0.06em;}.cls-5{letter-spacing:0em;}.cls-18,.cls-6,.cls-7{stroke:#191919;stroke-miterlimit:10;}.cls-18,.cls-7{stroke-width:2px;}.cls-8{font-size:27.52px;font-family:MyriadPro-Regular, Myriad Pro;}.cls-9{letter-spacing:-0.01em;}.cls-10{letter-spacing:0.01em;}.cls-11{letter-spacing:-0.01em;}.cls-12{letter-spacing:0em;}.cls-13{letter-spacing:0em;}.cls-14{letter-spacing:-0.01em;}.cls-15{letter-spacing:0em;}.cls-16{letter-spacing:-0.01em;}.cls-17,.cls-18{fill:#6d6d6d;}.cls-19{letter-spacing:0em;}</style></defs><title>Artboard 5</title><g id="Layer_2" data-name="Layer 2"><rect class="cls-1" width="1583" height="1584"/></g><g id="Layer_1" data-name="Layer 1"><text class="cls-2" transform="translate(1363 1414.96)">MAIN F<tspan class="cls-3" x="89.9" y="0">L</tspan><tspan x="103.25" y="0">OOR</tspan></text><text class="cls-2" transform="translate(136.5 230.02)"><tspan class="cls-4">T</tspan><tspan x="15.91" y="0">OP F</tspan><tspan class="cls-3" x="76.36" y="0">L</tspan><tspan class="cls-5" x="89.71" y="0">OOR</tspan></text><rect class="cls-6" x="270.78" y="491.38" width="1041.39" height="1042.04"/><polyline class="cls-7" points="690.25 937.62 717.1 937.62 717.1 491.38 270.78 491.38 270.78 937.62 531.11 937.62"/><line class="cls-7" x1="1095.6" y1="1404.92" x2="1227.76" y2="1537.09"/><line class="cls-7" x1="559.19" y1="805.79" x2="691.36" y2="937.96"/><rect class="cls-7" x="992.41" y="828.32" width="319.68" height="95.33"/><text class="cls-8" transform="translate(1016.42 885.06)"><tspan class="cls-9">T</tspan><tspan x="13.48" y="0">hru</tspan><tspan class="cls-10" x="52.91" y="0">-</tspan><tspan class="cls-11" x="61.75" y="0">C</tspan><tspan class="cls-12" x="77.4" y="0">ou</tspan><tspan class="cls-13" x="107.67" y="0">n</tspan><tspan class="cls-14" x="122.83" y="0">t</tspan><tspan x="131.78" y="0">er</tspan></text><text class="cls-8" transform="translate(452.67 772.48)">B<tspan class="cls-15" x="14.91" y="0">a</tspan><tspan x="28.07" y="0">th</tspan><tspan class="cls-16" x="52.45" y="0">r</tspan><tspan x="61.17" y="0">oom</tspan></text><path class="cls-17" d="M286.85,790.93h57.61a7.35,7.35,0,0,1,7.35,7.35v46.06a36.16,36.16,0,0,1-36.16,36.16h0a36.16,36.16,0,0,1-36.16-36.16V798.28a7.35,7.35,0,0,1,7.35-7.35Z" transform="translate(-520.06 1151.37) rotate(-90)"/><polyline class="cls-17" points="424.65 568.22 424.65 491.38 270.94 491.38 270.94 645.06 347.79 645.06"/><rect class="cls-17" x="505.31" y="558.53" width="278.94" height="144.64" transform="translate(1275.64 -13.93) rotate(90)"/><rect class="cls-17" x="1088.97" y="605.2" width="336.94" height="109.3" transform="translate(1917.29 -597.58) rotate(90)"/><rect class="cls-17" x="992.41" y="491.38" width="319.68" height="109.3" transform="translate(2304.49 1092.06) rotate(180)"/><rect class="cls-17" x="1176.08" y="981.23" width="87.11" height="86.29" transform="translate(2058.75 2378.16) rotate(-161.82)"/><rect class="cls-17" x="1125.08" y="1201.81" width="87.11" height="86.29" transform="translate(2780.96 1807.14) rotate(152.41)"/><rect class="cls-17" x="957.89" y="968.85" width="87.11" height="86.29" transform="translate(993.99 2435.71) rotate(-135)"/><rect class="cls-17" x="277.68" y="756.59" width="29.11" height="42.73" transform="translate(1070.19 485.72) rotate(90)"/><rect class="cls-17" x="493.98" y="445.77" width="10.68" height="118.34" transform="translate(1004.27 5.62) rotate(90)"/><rect class="cls-7" x="263.47" y="514.39" width="68.21" height="8.22" transform="translate(-279.48 362.28) rotate(-45)"/><rect class="cls-7" x="325.1" y="491.38" width="68.21" height="8.22"/><rect class="cls-7" x="240.87" y="575.62" width="68.21" height="8.22" transform="translate(854.7 304.75) rotate(90)"/><rect class="cls-17" x="436.05" y="495.49" width="18.9" height="10.68" transform="translate(946.33 55.34) rotate(90)"/><rect class="cls-17" x="543.7" y="495.49" width="18.9" height="10.68" transform="translate(1053.99 -52.32) rotate(90)"/><rect class="cls-7" x="741.76" y="491.38" width="225.17" height="8.22"/><circle class="cls-18" cx="1113.21" cy="1124.17" r="111.76"/><circle class="cls-6" cx="1064.66" cy="1075.21" r="25.48"/><circle class="cls-6" cx="1168.64" cy="1075.21" r="25.48"/><circle class="cls-6" cx="1122.66" cy="1179.64" r="25.48"/><circle class="cls-6" cx="1225.39" cy="768.74" r="25.48"/><rect class="cls-6" x="1219.63" y="621.64" width="75.61" height="75.61" rx="12" ry="12"/><rect class="cls-6" x="1266.06" y="655.96" width="37.8" height="6.96"/><circle class="cls-6" cx="1302.58" cy="645.71" r="3.91"/><circle class="cls-6" cx="1302.58" cy="673.17" r="3.91"/><rect class="cls-7" x="270.78" y="1400.12" width="624.38" height="133.3"/><rect class="cls-7" x="196.54" y="1325.88" width="281.8" height="133.3" transform="translate(-1055.09 1729.96) rotate(-90)"/><text class="cls-8" transform="translate(483.01 1475.2)"><tspan class="cls-19">S</tspan><tspan x="13.48" y="0">tairs Up</tspan></text><rect class="cls-7" x="283.38" y="999.14" width="157.9" height="60.66" transform="translate(-621.82 557.73) rotate(-45)"/><rect class="cls-7" x="273.48" y="981.12" width="112.52" height="31.52" transform="translate(-608.32 525.14) rotate(-45)"/><rect class="cls-6" x="55.27" y="268.63" width="353.74" height="70.64"/><rect class="cls-7" x="55.27" y="384.43" width="98.48" height="21.03"/><rect class="cls-7" x="32.83" y="361.99" width="65.89" height="21.03" transform="translate(-306.73 438.29) rotate(-90)"/><polyline class="cls-6" points="409.01 268.63 533.65 143.99 1551.32 143.99 1551.32 463.36 533.65 463.36 409.01 338.72"/><rect class="cls-7" x="413.66" y="1179.4" width="378.23" height="113.9" rx="12" ry="12" transform="translate(-386.86 281.09) rotate(-20.02)"/><rect class="cls-7" x="424.08" y="1238.42" width="33.44" height="113.9" rx="12" ry="12" transform="translate(-416.86 229.2) rotate(-20.02)"/><rect class="cls-7" x="748" y="1120.38" width="33.44" height="113.9" rx="12" ry="12" transform="translate(-356.87 332.98) rotate(-20.02)"/><rect class="cls-7" x="426.7" y="1253.28" width="378.23" height="37.71" rx="12" ry="12" transform="translate(-398.33 287.72) rotate(-20.02)"/></g></svg>