<svg xmlns="http://www.w3.org/2000/svg" viewBox="0 0 1584 1584"><defs><style>.cls-1,.cls-12,.cls-8{fill:#b6dadd;}.cls-2{font-size:39.02px;}.cls-10,.cls-11,.cls-13,.cls-14,.cls-15,.cls-17,.cls-18,.cls-2,.cls-4{fill:#fff;}.cls-13,.cls-14,.cls-15,.cls-17,.cls-18,.cls-2,.cls-8{font-family:Comfortaa-Regular, Comfortaa;}.cls-3{letter-spacing:-0.14em;}.cls-5{fill:#00ffa3;}.cls-16,.cls-6{fill:none;}.cls-11,.cls-6{stroke:#890000;}.cls-10,.cls-11,.cls-12,.cls-16,.cls-6{stroke-miterlimit:10;}.cls-6{stroke-width:7px;}.cls-7{fill:#00f3ff;}.cls-8{font-size:18.31px;}.cls-9{fill:#b400ff;}.cls-10{stroke:#b6dadd;stroke-width:4px;}.cls-11,.cls-12,.cls-16{stroke-width:2px;}.cls-12,.cls-16{stroke:#fff;}.cls-13{font-size:26.45px;}.cls-14{font-size:21.84px;}.cls-15{font-size:21.66px;}.cls-17{font-size:17.97px;}.cls-18{font-size:15.75px;}</style></defs><title>Artboard 2</title><g id="Layer_2" data-name="Layer 2"><rect class="cls-1" x="0.5" y="0.5" width="1583" height="1584"/><text class="cls-2" transform="translate(24.12 52.78)">World: Abaddon<tspan x="0" y="46.83">Level: Sky </tspan><tspan class="cls-3" x="195.49" y="46.83">T</tspan><tspan x="215.97" y="46.83">emples</tspan></text><rect class="cls-4" x="57" y="139" width="449" height="186"/><polygon class="cls-5" points="206.54 189.2 179.28 241.46 206.54 271 224.72 252.82 206.54 189.2"/><line class="cls-6" x1="276.76" y1="197.9" x2="331.1" y2="252.24"/><line class="cls-6" x1="331.1" y1="197.9" x2="276.76" y2="252.24"/><circle class="cls-6" cx="330.24" cy="225.5" r="6.9"/><circle class="cls-6" cx="304.36" cy="197.9" r="6.9"/><circle class="cls-6" cx="276.76" cy="225.5" r="6.9"/><circle class="cls-6" cx="304.36" cy="253.1" r="6.9"/><circle class="cls-7" cx="117.03" cy="207" r="7.29"/><ellipse class="cls-7" cx="117.03" cy="234.93" rx="8.5" ry="15.79"/><path class="cls-7" d="M138.89,242.21c0-8.71-3.8-15.78-8.5-15.78s2.43,7.07,2.43,15.78S125.7,258,130.39,258,138.89,250.93,138.89,242.21Z"/><path class="cls-7" d="M94.79,242.21c0,8.72,3.81,15.79,8.5,15.79s-2.43-7.07-2.43-15.79,7.12-15.78,2.43-15.78S94.79,233.5,94.79,242.21Z"/><polygon class="cls-7" points="125.53 202.14 125.53 196.07 137.68 191.21 131.61 202.14 125.53 202.14"/><polygon class="cls-7" points="108.53 202.14 102.46 202.14 97.61 190 108.53 196.07 108.53 202.14"/><text class="cls-8" transform="translate(79.59 160.74)">Dreamer</text><text class="cls-8" transform="translate(169.59 302.74)">Artifact</text><text class="cls-8" transform="translate(395.59 302.74)">Puzzle</text><text class="cls-8" transform="translate(247.59 165.74)">Enemy Spawn</text><polygon class="cls-9" points="466.43 187 445.19 187 432.5 204.64 419.2 187 398.57 187 398.57 208.09 379.57 220.93 398.57 233.14 398.57 254.86 417.2 254.86 432.5 272.5 445.86 254.86 466.43 254.86 466.43 233.07 448.79 220.93 466.43 208.71 466.43 187"/></g><g id="Layer_1" data-name="Layer 1"><rect class="cls-10" x="683.14" y="1261.86" width="246.71" height="213" transform="translate(2174.86 561.86) rotate(90)"/><rect class="cls-10" x="830.38" y="1269.87" width="55.98" height="47.26" transform="translate(2151.87 435.13) rotate(90)"/><rect class="cls-10" x="829.64" y="1417.81" width="55.98" height="47.26" transform="translate(2299.07 583.81) rotate(90)"/><rect class="cls-10" x="859.64" y="1345.36" width="184.71" height="46" transform="translate(2320.36 416.36) rotate(90)"/><rect class="cls-10" x="1081.12" y="1270.14" width="85.02" height="204.73" transform="translate(2496.14 248.88) rotate(90)"/><rect class="cls-10" x="1136.14" y="1316.14" width="204.98" height="204.73" transform="translate(2657.14 179.88) rotate(90)"/><polygon class="cls-4" points="473 676 473 668.25 481.21 668.25 481.21 659.12 491.25 659.12 491.25 650 499.46 650 499.46 676 473 676"/><polygon class="cls-4" points="150.62 1000.94 158.38 1000.94 158.38 1009.15 167.5 1009.15 167.5 1019.18 176.62 1019.18 176.62 1027.39 150.62 1027.39 150.62 1000.94"/><polygon class="cls-4" points="194.62 1043.94 202.38 1043.94 202.38 1052.15 211.5 1052.15 211.5 1062.18 220.62 1062.18 220.62 1070.39 194.62 1070.39 194.62 1043.94"/><polygon class="cls-4" points="200.39 903.17 200.39 895.41 208.6 895.41 208.6 886.29 218.64 886.29 218.64 877.17 226.85 877.17 226.85 903.17 200.39 903.17"/><polygon class="cls-4" points="833.46 477 833.46 484.75 825.25 484.75 825.25 493.88 815.21 493.88 815.21 503 807 503 807 477 833.46 477"/><rect class="cls-10" x="48.13" y="691.13" width="128" height="73.73" transform="translate(840.13 615.87) rotate(90)"/><rect class="cls-10" x="159.13" y="406.13" width="167" height="134.73" transform="translate(716.13 230.87) rotate(90)"/><rect class="cls-10" x="397.63" y="595.63" width="146" height="320.73" transform="translate(1226.63 285.37) rotate(90)"/><line class="cls-11" x1="225" y1="459" x2="256.5" y2="490.5"/><line class="cls-11" x1="256.5" y1="459" x2="225" y2="490.5"/><circle class="cls-11" cx="256" cy="475" r="4"/><circle class="cls-11" cx="241" cy="459" r="4"/><circle class="cls-11" cx="225" cy="475" r="4"/><circle class="cls-11" cx="241" cy="491" r="4"/><line class="cls-11" x1="453" y1="764" x2="484.5" y2="795.5"/><line class="cls-11" x1="484.5" y1="764" x2="453" y2="795.5"/><circle class="cls-11" cx="484" cy="780" r="4"/><circle class="cls-11" cx="469" cy="764" r="4"/><circle class="cls-11" cx="453" cy="780" r="4"/><circle class="cls-11" cx="469" cy="796" r="4"/><rect class="cls-12" x="74.81" y="716.44" width="4.75" height="16"/><rect class="cls-12" x="144.81" y="716.44" width="4.75" height="16"/><rect class="cls-12" x="304.81" y="461.44" width="4.75" height="16"/><rect class="cls-12" x="309.31" y="749.94" width="4.75" height="16"/><rect class="cls-12" x="242.81" y="547.44" width="4.75" height="16" transform="translate(800.63 310.25) rotate(90)"/><text class="cls-13" transform="translate(43.67 692.85) rotate(90)">Start</text><text class="cls-13" transform="translate(1284.71 53.17)">Finish</text><text class="cls-14" transform="translate(897.88 953.26)">Complete each platform<tspan x="0" y="26.21">to get to artifact</tspan></text><text class="cls-14" transform="translate(1101.88 835.26)">Upon leaving artifact room, enter here</text><rect class="cls-10" x="531.13" y="592.63" width="141.5" height="141.23" transform="translate(1265.13 61.37) rotate(90)"/><rect class="cls-10" x="435.13" y="956.7" width="209.5" height="209.11" transform="translate(1601.13 521.37) rotate(90)"/><rect class="cls-10" x="274.42" y="1125.42" width="209.5" height="535.67" transform="translate(1772.42 1014.08) rotate(90)"/><rect class="cls-10" x="249.62" y="892.2" width="77.5" height="77.87" transform="translate(576.74 1862.28) rotate(180)"/><rect class="cls-10" x="86.62" y="892.2" width="77.5" height="77.87" transform="translate(250.74 1862.28) rotate(180)"/><rect class="cls-10" x="672.14" y="351.14" width="129.98" height="129.73" transform="translate(1153.14 -321.12) rotate(90)"/><rect class="cls-4" x="915.51" y="197.46" width="129.98" height="65" transform="translate(1210.46 -750.54) rotate(90)"/><rect class="cls-4" x="948.03" y="382.7" width="64.95" height="65" transform="translate(1395.7 -565.3) rotate(90)"/><rect class="cls-4" x="723.51" y="-71.49" width="129.98" height="449" transform="translate(941.51 -635.49) rotate(90)"/><rect class="cls-10" x="1243.97" y="557.84" width="129.98" height="370.08" transform="translate(2051.84 -566.08) rotate(90)"/><rect class="cls-10" x="1090.12" y="62.41" width="438.02" height="437.2" transform="translate(1590.14 -1028.12) rotate(90)"/><rect class="cls-10" x="671.64" y="584.64" width="363.98" height="204.73" transform="translate(1540.64 -166.62) rotate(90)"/><rect class="cls-10" x="1250.14" y="1256.14" width="204.98" height="204.73" transform="translate(2711.14 5.88) rotate(90)"/><rect class="cls-10" x="755.13" y="918.13" width="75" height="82.73" transform="translate(1752.13 166.87) rotate(90)"/><rect class="cls-10" x="780.13" y="976.13" width="150" height="41.73" transform="translate(1852.13 141.87) rotate(90)"/><rect class="cls-10" x="755.13" y="993.13" width="75" height="82.73" transform="translate(1827.13 241.87) rotate(90)"/><rect class="cls-12" x="506.13" y="696.75" width="4.75" height="28.25"/><rect class="cls-12" x="501.13" y="696.75" width="4.75" height="28.25"/><rect class="cls-12" x="496.13" y="696.75" width="4.75" height="28.25"/><rect class="cls-12" x="491.13" y="696.75" width="4.75" height="28.25"/><rect class="cls-12" x="486.13" y="696.75" width="4.75" height="28.25"/><rect class="cls-12" x="481.13" y="696.75" width="4.75" height="28.25"/><rect class="cls-12" x="476.13" y="696.75" width="4.75" height="28.25"/><rect class="cls-12" x="471.13" y="696.75" width="4.75" height="28.25"/><rect class="cls-12" x="466.13" y="696.75" width="4.75" height="28.25"/><rect class="cls-12" x="461.13" y="696.75" width="4.75" height="28.25"/><rect class="cls-12" x="456.13" y="696.75" width="4.75" height="28.25"/><rect class="cls-12" x="451.13" y="696.75" width="4.75" height="28.25"/><rect class="cls-12" x="446.13" y="696.75" width="4.75" height="28.25"/><rect class="cls-12" x="441.13" y="696.75" width="4.75" height="28.25"/><rect class="cls-12" x="526.13" y="696.75" width="4.75" height="28.25"/><rect class="cls-12" x="521.13" y="696.75" width="4.75" height="28.25"/><rect class="cls-12" x="516.13" y="696.75" width="4.75" height="28.25"/><rect class="cls-12" x="511.13" y="696.75" width="4.75" height="28.25"/><rect class="cls-12" x="435.13" y="1436" width="4.75" height="59"/><rect class="cls-12" x="430.13" y="1436" width="4.75" height="59"/><rect class="cls-12" x="425.13" y="1436" width="4.75" height="59"/><rect class="cls-12" x="420.13" y="1436" width="4.75" height="59"/><rect class="cls-12" x="415.13" y="1436" width="4.75" height="59"/><rect class="cls-12" x="410.13" y="1436" width="4.75" height="59"/><rect class="cls-12" x="405.13" y="1436" width="4.75" height="59"/><rect class="cls-12" x="400.13" y="1436" width="4.75" height="59"/><rect class="cls-12" x="395.13" y="1436" width="4.75" height="59"/><rect class="cls-12" x="390.13" y="1436" width="4.75" height="59"/><rect class="cls-12" x="385.13" y="1436" width="4.75" height="59"/><rect class="cls-12" x="380.13" y="1436" width="4.75" height="59"/><rect class="cls-12" x="375.13" y="1436" width="4.75" height="59"/><rect class="cls-12" x="370.13" y="1436" width="4.75" height="59"/><rect class="cls-12" x="455.13" y="1436" width="4.75" height="59"/><rect class="cls-12" x="450.13" y="1436" width="4.75" height="59"/><rect class="cls-12" x="445.13" y="1436" width="4.75" height="59"/><rect class="cls-12" x="440.13" y="1436" width="4.75" height="59"/><rect class="cls-12" x="475.13" y="1436" width="4.75" height="59"/><rect class="cls-12" x="470.13" y="1436" width="4.75" height="59"/><rect class="cls-12" x="465.13" y="1436" width="4.75" height="59"/><rect class="cls-12" x="460.13" y="1436" width="4.75" height="59"/><rect class="cls-12" x="495.13" y="1436" width="4.75" height="59"/><rect class="cls-12" x="499.13" y="1436" width="4.75" height="59"/><rect class="cls-12" x="490.13" y="1436" width="4.75" height="59"/><rect class="cls-12" x="485.13" y="1436" width="4.75" height="59"/><rect class="cls-12" x="480.13" y="1436" width="4.75" height="59"/><rect class="cls-12" x="978.63" y="347.25" width="4.75" height="28.25" transform="translate(1342.38 -619.63) rotate(90)"/><rect class="cls-12" x="978.63" y="342.25" width="4.75" height="28.25" transform="translate(1337.38 -624.63) rotate(90)"/><rect class="cls-12" x="978.63" y="337.25" width="4.75" height="28.25" transform="translate(1332.38 -629.63) rotate(90)"/><rect class="cls-12" x="978.63" y="332.25" width="4.75" height="28.25" transform="translate(1327.38 -634.63) rotate(90)"/><rect class="cls-12" x="978.63" y="327.25" width="4.75" height="28.25" transform="translate(1322.38 -639.63) rotate(90)"/><rect class="cls-12" x="978.63" y="322.25" width="4.75" height="28.25" transform="translate(1317.38 -644.63) rotate(90)"/><rect class="cls-12" x="978.63" y="317.25" width="4.75" height="28.25" transform="translate(1312.38 -649.63) rotate(90)"/><rect class="cls-12" x="978.63" y="312.25" width="4.75" height="28.25" transform="translate(1307.38 -654.63) rotate(90)"/><rect class="cls-12" x="978.63" y="307.25" width="4.75" height="28.25" transform="translate(1302.38 -659.63) rotate(90)"/><rect class="cls-12" x="978.63" y="302.25" width="4.75" height="28.25" transform="translate(1297.38 -664.63) rotate(90)"/><rect class="cls-12" x="978.63" y="297.25" width="4.75" height="28.25" transform="translate(1292.38 -669.63) rotate(90)"/><rect class="cls-12" x="978.63" y="292.25" width="4.75" height="28.25" transform="translate(1287.38 -674.63) rotate(90)"/><rect class="cls-12" x="978.63" y="287.25" width="4.75" height="28.25" transform="translate(1282.38 -679.63) rotate(90)"/><rect class="cls-12" x="978.63" y="282.25" width="4.75" height="28.25" transform="translate(1277.38 -684.63) rotate(90)"/><rect class="cls-12" x="978.63" y="367.25" width="4.75" height="28.25" transform="translate(1362.38 -599.63) rotate(90)"/><rect class="cls-12" x="978.63" y="362.25" width="4.75" height="28.25" transform="translate(1357.38 -604.63) rotate(90)"/><rect class="cls-12" x="978.63" y="357.25" width="4.75" height="28.25" transform="translate(1352.38 -609.63) rotate(90)"/><rect class="cls-12" x="978.63" y="352.25" width="4.75" height="28.25" transform="translate(1347.38 -614.63) rotate(90)"/><rect class="cls-12" x="181.87" y="916.81" width="4.75" height="28.25" transform="translate(368.5 1861.88) rotate(180)"/><rect class="cls-12" x="186.87" y="916.81" width="4.75" height="28.25" transform="translate(378.5 1861.88) rotate(180)"/><rect class="cls-12" x="191.87" y="916.81" width="4.75" height="28.25" transform="translate(388.5 1861.88) rotate(180)"/><rect class="cls-12" x="196.87" y="916.81" width="4.75" height="28.25" transform="translate(398.5 1861.88) rotate(180)"/><rect class="cls-12" x="201.87" y="916.81" width="4.75" height="28.25" transform="translate(408.5 1861.88) rotate(180)"/><rect class="cls-12" x="206.87" y="916.81" width="4.75" height="28.25" transform="translate(418.5 1861.88) rotate(180)"/><rect class="cls-12" x="211.87" y="916.81" width="4.75" height="28.25" transform="translate(428.5 1861.88) rotate(180)"/><rect class="cls-12" x="216.87" y="916.81" width="4.75" height="28.25" transform="translate(438.5 1861.88) rotate(180)"/><rect class="cls-12" x="221.87" y="916.81" width="4.75" height="28.25" transform="translate(448.5 1861.88) rotate(180)"/><rect class="cls-12" x="226.87" y="916.81" width="4.75" height="28.25" transform="translate(458.5 1861.88) rotate(180)"/><rect class="cls-12" x="231.87" y="916.81" width="4.75" height="28.25" transform="translate(468.5 1861.88) rotate(180)"/><rect class="cls-12" x="236.87" y="916.81" width="4.75" height="28.25" transform="translate(478.5 1861.88) rotate(180)"/><rect class="cls-12" x="241.87" y="916.81" width="4.75" height="28.25" transform="translate(488.5 1861.88) rotate(180)"/><rect class="cls-12" x="246.87" y="916.81" width="4.75" height="28.25" transform="translate(498.5 1861.88) rotate(180)"/><rect class="cls-12" x="161.87" y="916.81" width="4.75" height="28.25" transform="translate(328.5 1861.88) rotate(180)"/><rect class="cls-12" x="166.87" y="916.81" width="4.75" height="28.25" transform="translate(338.5 1861.88) rotate(180)"/><rect class="cls-12" x="171.87" y="916.81" width="4.75" height="28.25" transform="translate(348.5 1861.88) rotate(180)"/><rect class="cls-12" x="176.87" y="916.81" width="4.75" height="28.25" transform="translate(358.5 1861.88) rotate(180)"/><rect class="cls-10" x="86.75" y="1056.08" width="77.5" height="77.87" transform="translate(-969.52 1220.51) rotate(-90)"/><rect class="cls-12" x="123.32" y="976.77" width="4.75" height="28.25" transform="translate(-865.19 1116.59) rotate(-90)"/><rect class="cls-12" x="123.32" y="981.77" width="4.75" height="28.25" transform="translate(-870.19 1121.59) rotate(-90)"/><rect class="cls-12" x="123.32" y="986.77" width="4.75" height="28.25" transform="translate(-875.19 1126.59) rotate(-90)"/><rect class="cls-12" x="123.32" y="991.77" width="4.75" height="28.25" transform="translate(-880.19 1131.59) rotate(-90)"/><rect class="cls-12" x="123.32" y="996.77" width="4.75" height="28.25" transform="translate(-885.19 1136.59) rotate(-90)"/><rect class="cls-12" x="123.32" y="1001.77" width="4.75" height="28.25" transform="translate(-890.19 1141.59) rotate(-90)"/><rect class="cls-12" x="123.32" y="1006.77" width="4.75" height="28.25" transform="translate(-895.19 1146.59) rotate(-90)"/><rect class="cls-12" x="123.32" y="1011.77" width="4.75" height="28.25" transform="translate(-900.19 1151.59) rotate(-90)"/><rect class="cls-12" x="123.32" y="1016.77" width="4.75" height="28.25" transform="translate(-905.19 1156.59) rotate(-90)"/><rect class="cls-12" x="123.32" y="1021.77" width="4.75" height="28.25" transform="translate(-910.19 1161.59) rotate(-90)"/><rect class="cls-12" x="123.32" y="1026.77" width="4.75" height="28.25" transform="translate(-915.19 1166.59) rotate(-90)"/><rect class="cls-12" x="123.32" y="1031.77" width="4.75" height="28.25" transform="translate(-920.19 1171.59) rotate(-90)"/><rect class="cls-12" x="123.32" y="1036.77" width="4.75" height="28.25" transform="translate(-925.19 1176.59) rotate(-90)"/><rect class="cls-12" x="123.32" y="1041.77" width="4.75" height="28.25" transform="translate(-930.19 1181.59) rotate(-90)"/><rect class="cls-12" x="123.32" y="956.77" width="4.75" height="28.25" transform="translate(-845.19 1096.59) rotate(-90)"/><rect class="cls-12" x="123.32" y="961.77" width="4.75" height="28.25" transform="translate(-850.19 1101.59) rotate(-90)"/><rect class="cls-12" x="123.32" y="966.77" width="4.75" height="28.25" transform="translate(-855.19 1106.59) rotate(-90)"/><rect class="cls-12" x="123.32" y="971.77" width="4.75" height="28.25" transform="translate(-860.19 1111.59) rotate(-90)"/><rect class="cls-10" x="250.62" y="1056.2" width="77.5" height="77.87" transform="translate(578.74 2190.28) rotate(180)"/><rect class="cls-12" x="182.87" y="1080.81" width="4.75" height="28.25" transform="translate(370.5 2189.88) rotate(180)"/><rect class="cls-12" x="187.87" y="1080.81" width="4.75" height="28.25" transform="translate(380.5 2189.88) rotate(180)"/><rect class="cls-12" x="192.87" y="1080.81" width="4.75" height="28.25" transform="translate(390.5 2189.88) rotate(180)"/><rect class="cls-12" x="197.87" y="1080.81" width="4.75" height="28.25" transform="translate(400.5 2189.88) rotate(180)"/><rect class="cls-12" x="202.87" y="1080.81" width="4.75" height="28.25" transform="translate(410.5 2189.88) rotate(180)"/><rect class="cls-12" x="207.87" y="1080.81" width="4.75" height="28.25" transform="translate(420.5 2189.88) rotate(180)"/><rect class="cls-12" x="212.87" y="1080.81" width="4.75" height="28.25" transform="translate(430.5 2189.88) rotate(180)"/><rect class="cls-12" x="217.87" y="1080.81" width="4.75" height="28.25" transform="translate(440.5 2189.88) rotate(180)"/><rect class="cls-12" x="222.87" y="1080.81" width="4.75" height="28.25" transform="translate(450.5 2189.88) rotate(180)"/><rect class="cls-12" x="227.87" y="1080.81" width="4.75" height="28.25" transform="translate(460.5 2189.88) rotate(180)"/><rect class="cls-12" x="232.87" y="1080.81" width="4.75" height="28.25" transform="translate(470.5 2189.88) rotate(180)"/><rect class="cls-12" x="237.87" y="1080.81" width="4.75" height="28.25" transform="translate(480.5 2189.88) rotate(180)"/><rect class="cls-12" x="242.87" y="1080.81" width="4.75" height="28.25" transform="translate(490.5 2189.88) rotate(180)"/><rect class="cls-12" x="247.87" y="1080.81" width="4.75" height="28.25" transform="translate(500.5 2189.88) rotate(180)"/><rect class="cls-12" x="162.87" y="1080.81" width="4.75" height="28.25" transform="translate(330.5 2189.88) rotate(180)"/><rect class="cls-12" x="167.87" y="1080.81" width="4.75" height="28.25" transform="translate(340.5 2189.88) rotate(180)"/><rect class="cls-12" x="172.87" y="1080.81" width="4.75" height="28.25" transform="translate(350.5 2189.88) rotate(180)"/><rect class="cls-12" x="177.87" y="1080.81" width="4.75" height="28.25" transform="translate(360.5 2189.88) rotate(180)"/><rect class="cls-12" x="1306.63" y="384.38" width="4.75" height="361.99" transform="translate(1874.4 -743.62) rotate(90)"/><rect class="cls-12" x="1306.63" y="379.38" width="4.75" height="361.99" transform="translate(1869.4 -748.62) rotate(90)"/><rect class="cls-12" x="1306.63" y="374.38" width="4.75" height="361.99" transform="translate(1864.4 -753.62) rotate(90)"/><rect class="cls-12" x="1306.63" y="369.38" width="4.75" height="361.99" transform="translate(1859.4 -758.62) rotate(90)"/><rect class="cls-12" x="1306.63" y="364.38" width="4.75" height="361.99" transform="translate(1854.4 -763.62) rotate(90)"/><rect class="cls-12" x="1306.63" y="359.38" width="4.75" height="361.99" transform="translate(1849.4 -768.62) rotate(90)"/><rect class="cls-12" x="1306.63" y="354.38" width="4.75" height="361.99" transform="translate(1844.4 -773.62) rotate(90)"/><rect class="cls-12" x="1306.63" y="349.38" width="4.75" height="361.99" transform="translate(1839.4 -778.62) rotate(90)"/><rect class="cls-12" x="1306.63" y="344.38" width="4.75" height="361.99" transform="translate(1834.4 -783.62) rotate(90)"/><rect class="cls-12" x="1306.63" y="339.38" width="4.75" height="361.99" transform="translate(1829.4 -788.62) rotate(90)"/><rect class="cls-12" x="1306.63" y="334.38" width="4.75" height="361.99" transform="translate(1824.4 -793.62) rotate(90)"/><rect class="cls-12" x="1306.63" y="329.38" width="4.75" height="361.99" transform="translate(1819.4 -798.62) rotate(90)"/><rect class="cls-12" x="1306.63" y="324.38" width="4.75" height="361.99" transform="translate(1814.4 -803.62) rotate(90)"/><rect class="cls-12" x="1306.63" y="319.38" width="4.75" height="361.99" transform="translate(1809.4 -808.62) rotate(90)"/><rect class="cls-12" x="1306.63" y="404.38" width="4.75" height="361.99" transform="translate(1894.4 -723.62) rotate(90)"/><rect class="cls-12" x="1306.63" y="399.38" width="4.75" height="361.99" transform="translate(1889.4 -728.62) rotate(90)"/><rect class="cls-12" x="1306.63" y="394.38" width="4.75" height="361.99" transform="translate(1884.4 -733.62) rotate(90)"/><rect class="cls-12" x="1306.63" y="389.38" width="4.75" height="361.99" transform="translate(1879.4 -738.62) rotate(90)"/><rect class="cls-12" x="1306.63" y="474.38" width="4.75" height="361.99" transform="translate(1964.4 -653.62) rotate(90)"/><rect class="cls-12" x="1306.63" y="469.38" width="4.75" height="361.99" transform="translate(1959.4 -658.62) rotate(90)"/><rect class="cls-12" x="1306.63" y="464.38" width="4.75" height="361.99" transform="translate(1954.4 -663.62) rotate(90)"/><rect class="cls-12" x="1306.63" y="459.38" width="4.75" height="361.99" transform="translate(1949.4 -668.62) rotate(90)"/><rect class="cls-12" x="1306.63" y="454.38" width="4.75" height="361.99" transform="translate(1944.4 -673.62) rotate(90)"/><rect class="cls-12" x="1306.63" y="449.38" width="4.75" height="361.99" transform="translate(1939.4 -678.62) rotate(90)"/><rect class="cls-12" x="1306.63" y="444.38" width="4.75" height="361.99" transform="translate(1934.4 -683.62) rotate(90)"/><rect class="cls-12" x="1306.63" y="439.38" width="4.75" height="361.99" transform="translate(1929.4 -688.62) rotate(90)"/><rect class="cls-12" x="1306.63" y="434.38" width="4.75" height="361.99" transform="translate(1924.4 -693.62) rotate(90)"/><rect class="cls-12" x="1306.63" y="429.38" width="4.75" height="361.99" transform="translate(1919.4 -698.62) rotate(90)"/><rect class="cls-12" x="1306.63" y="424.38" width="4.75" height="361.99" transform="translate(1914.4 -703.62) rotate(90)"/><rect class="cls-12" x="1306.63" y="419.38" width="4.75" height="361.99" transform="translate(1909.4 -708.62) rotate(90)"/><rect class="cls-12" x="1306.63" y="414.38" width="4.75" height="361.99" transform="translate(1904.4 -713.62) rotate(90)"/><rect class="cls-12" x="1306.63" y="409.38" width="4.75" height="361.99" transform="translate(1899.4 -718.62) rotate(90)"/><rect class="cls-12" x="1306.63" y="494.38" width="4.75" height="361.99" transform="translate(1984.4 -633.61) rotate(90)"/><rect class="cls-12" x="1306.63" y="489.38" width="4.75" height="361.99" transform="translate(1979.4 -638.61) rotate(90)"/><rect class="cls-12" x="1306.63" y="484.38" width="4.75" height="361.99" transform="translate(1974.4 -643.62) rotate(90)"/><rect class="cls-12" x="1306.63" y="479.38" width="4.75" height="361.99" transform="translate(1969.4 -648.62) rotate(90)"/><rect class="cls-12" x="774.63" y="491.25" width="4.75" height="28.25" transform="translate(1282.38 -271.63) rotate(90)"/><rect class="cls-12" x="774.63" y="486.25" width="4.75" height="28.25" transform="translate(1277.38 -276.63) rotate(90)"/><rect class="cls-12" x="774.63" y="481.25" width="4.75" height="28.25" transform="translate(1272.38 -281.63) rotate(90)"/><rect class="cls-12" x="774.63" y="476.25" width="4.75" height="28.25" transform="translate(1267.38 -286.63) rotate(90)"/><rect class="cls-12" x="774.63" y="471.25" width="4.75" height="28.25" transform="translate(1262.38 -291.63) rotate(90)"/><rect class="cls-12" x="774.63" y="466.25" width="4.75" height="28.25" transform="translate(1257.38 -296.63) rotate(90)"/><rect class="cls-12" x="602.81" y="584.44" width="4.75" height="16" transform="translate(1197.63 -12.75) rotate(90)"/><rect class="cls-12" x="322.81" y="923.13" width="4.75" height="16" transform="translate(650.37 1862.25) rotate(180)"/><rect class="cls-12" x="434.81" y="1053.13" width="4.75" height="16" transform="translate(874.37 2122.25) rotate(180)"/><rect class="cls-12" x="639.81" y="1053.13" width="4.75" height="16" transform="translate(1284.37 2122.25) rotate(180)"/><rect class="cls-12" x="322.81" y="1087.13" width="4.75" height="16" transform="translate(650.37 2190.25) rotate(180)"/><rect class="cls-12" x="742.81" y="343.44" width="4.75" height="16" transform="translate(1096.63 -393.75) rotate(90)"/><rect class="cls-12" x="895.81" y="858.44" width="4.75" height="16" transform="translate(1764.63 -31.75) rotate(90)"/><rect class="cls-12" x="699.81" y="1358.44" width="4.75" height="16" transform="translate(1404.38 2732.88) rotate(180)"/><rect class="cls-12" x="1314.81" y="54.44" width="4.75" height="16" transform="translate(1379.63 -1254.75) rotate(90)"/><line class="cls-11" x1="838" y1="594" x2="869.5" y2="625.5"/><line class="cls-11" x1="869.5" y1="594" x2="838" y2="625.5"/><circle class="cls-11" cx="869" cy="610" r="4"/><circle class="cls-11" cx="854" cy="594" r="4"/><circle class="cls-11" cx="838" cy="610" r="4"/><circle class="cls-11" cx="854" cy="626" r="4"/><line class="cls-11" x1="635" y1="145" x2="666.5" y2="176.5"/><line class="cls-11" x1="666.5" y1="145" x2="635" y2="176.5"/><circle class="cls-11" cx="666" cy="161" r="4"/><circle class="cls-11" cx="651" cy="145" r="4"/><circle class="cls-11" cx="635" cy="161" r="4"/><circle class="cls-11" cx="651" cy="177" r="4"/><line class="cls-11" x1="1294" y1="399" x2="1325.5" y2="430.5"/><line class="cls-11" x1="1325.5" y1="399" x2="1294" y2="430.5"/><circle class="cls-11" cx="1325" cy="415" r="4"/><circle class="cls-11" cx="1310" cy="399" r="4"/><circle class="cls-11" cx="1294" cy="415" r="4"/><circle class="cls-11" cx="1310" cy="431" r="4"/><line class="cls-11" x1="1294" y1="137" x2="1325.5" y2="168.5"/><line class="cls-11" x1="1325.5" y1="137" x2="1294" y2="168.5"/><circle class="cls-11" cx="1325" cy="153" r="4"/><circle class="cls-11" cx="1310" cy="137" r="4"/><circle class="cls-11" cx="1294" cy="153" r="4"/><circle class="cls-11" cx="1310" cy="169" r="4"/><path class="cls-4" d="M798,1068l-.28,48.58s6.06,42,66.6,41.18,138.38,0,138.38,0S1067,1166,1065,1096c-2.12-74.36-70.09-61.79-70.09-61.79L876,1034v-16h129s77-9.46,78,77c1,86-69,79-69,79s-90-1-160,0-77-52-77-52v-54"/><text class="cls-15" transform="translate(741.85 1067.15) rotate(-90)">2 Story House</text><rect class="cls-12" x="789.81" y="989.44" width="4.75" height="16" transform="translate(1789.63 205.25) rotate(90)"/><rect class="cls-12" x="801.81" y="915.44" width="4.75" height="16" transform="translate(1727.63 119.25) rotate(90)"/><rect class="cls-12" x="1306.81" y="799.44" width="4.75" height="16" transform="translate(2116.63 -501.75) rotate(90)"/><rect class="cls-12" x="870.81" y="941.44" width="4.75" height="16" transform="translate(1746.38 1898.88) rotate(180)"/><rect class="cls-12" x="784.81" y="1061.44" width="4.75" height="16" transform="translate(1856.63 282.25) rotate(90)"/><rect class="cls-12" x="955.13" y="1159" width="4.75" height="13.75"/><rect class="cls-12" x="950.13" y="1159" width="4.75" height="13.75"/><rect class="cls-12" x="945.13" y="1159" width="4.75" height="13.75"/><rect class="cls-12" x="940.13" y="1159" width="4.75" height="13.75"/><rect class="cls-12" x="935.13" y="1159" width="4.75" height="13.75"/><rect class="cls-12" x="930.13" y="1159" width="4.75" height="13.75"/><rect class="cls-12" x="925.13" y="1159" width="4.75" height="13.75"/><rect class="cls-12" x="920.13" y="1159" width="4.75" height="13.75"/><rect class="cls-12" x="915.13" y="1159" width="4.75" height="13.75"/><rect class="cls-12" x="910.13" y="1159" width="4.75" height="13.75"/><rect class="cls-12" x="905.13" y="1159" width="4.75" height="13.75"/><rect class="cls-12" x="900.13" y="1159" width="4.75" height="13.75"/><rect class="cls-12" x="895.13" y="1159" width="4.75" height="13.75"/><rect class="cls-12" x="890.13" y="1159" width="4.75" height="13.75"/><rect class="cls-12" x="975.13" y="1159" width="4.75" height="13.75"/><rect class="cls-12" x="970.13" y="1159" width="4.75" height="13.75"/><rect class="cls-12" x="965.13" y="1159" width="4.75" height="13.75"/><rect class="cls-12" x="960.13" y="1159" width="4.75" height="13.75"/><polygon class="cls-5" points="854 931 842 954 854 967 862 959 854 931"/><line class="cls-16" x1="804" y1="880" x2="804" y2="900.93"/><path class="cls-4" d="M804,913c-2.11-5.68-5.7-12.73-9.51-17.09l9.51,3.44,9.51-3.44C809.7,900.27,806.11,907.32,804,913Z"/><text class="cls-17" transform="translate(1534.19 70.77) rotate(90)">Something massive and round, like the Pantheon</text><rect class="cls-12" x="978.81" y="439.44" width="4.75" height="16" transform="translate(1428.63 -533.75) rotate(90)"/><rect class="cls-12" x="561.81" y="145.44" width="4.75" height="16"/><line class="cls-11" x1="524" y1="1042" x2="555.5" y2="1073.5"/><line class="cls-11" x1="555.5" y1="1042" x2="524" y2="1073.5"/><circle class="cls-11" cx="555" cy="1058" r="4"/><circle class="cls-11" cx="540" cy="1042" r="4"/><circle class="cls-11" cx="524" cy="1058" r="4"/><circle class="cls-11" cx="540" cy="1074" r="4"/><polygon class="cls-9" points="618 645 610.18 645 605.5 651.5 600.6 645 593 645 593 652.77 586 657.5 593 662 593 670 599.86 670 605.5 676.5 610.42 670 618 670 618 661.98 611.5 657.5 618 653 618 645"/><polygon class="cls-9" points="286 423 278.18 423 273.5 429.5 268.6 423 261 423 261 430.77 254 435.5 261 440 261 448 267.86 448 273.5 454.5 278.42 448 286 448 286 439.98 279.5 435.5 286 431 286 423"/><polygon class="cls-9" points="602 1093 594.18 1093 589.5 1099.5 584.6 1093 577 1093 577 1100.77 570 1105.5 577 1110 577 1118 583.86 1118 589.5 1124.5 594.42 1118 602 1118 602 1109.97 595.5 1105.5 602 1101 602 1093"/><polygon class="cls-9" points="1385 1397 1377.18 1397 1372.5 1403.5 1367.6 1397 1360 1397 1360 1404.77 1353 1409.5 1360 1414 1360 1422 1366.86 1422 1372.5 1428.5 1377.42 1422 1385 1422 1385 1413.97 1378.5 1409.5 1385 1405 1385 1397"/><polygon class="cls-9" points="1217 1413 1209.18 1413 1204.5 1419.5 1199.6 1413 1192 1413 1192 1420.77 1185 1425.5 1192 1430 1192 1438 1198.86 1438 1204.5 1444.5 1209.42 1438 1217 1438 1217 1429.97 1210.5 1425.5 1217 1421 1217 1413"/><polygon class="cls-9" points="873 760 865.18 760 860.5 766.5 855.6 760 848 760 848 767.77 841 772.5 848 777 848 785 854.86 785 860.5 791.5 865.42 785 873 785 873 776.98 866.5 772.5 873 768 873 760"/><polygon class="cls-9" points="1183 262 1175.18 262 1170.5 268.5 1165.6 262 1158 262 1158 269.77 1151 274.5 1158 279 1158 287 1164.86 287 1170.5 293.5 1175.42 287 1183 287 1183 278.98 1176.5 274.5 1183 270 1183 262"/><polygon class="cls-9" points="870 145 862.18 145 857.5 151.5 852.6 145 845 145 845 152.77 838 157.5 845 162 845 170 851.86 170 857.5 176.5 862.42 170 870 170 870 161.97 863.5 157.5 870 153 870 145"/><polygon class="cls-9" points="1455 262 1447.18 262 1442.5 268.5 1437.6 262 1430 262 1430 269.77 1423 274.5 1430 279 1430 287 1436.86 287 1442.5 293.5 1447.42 287 1455 287 1455 278.98 1448.5 274.5 1455 270 1455 262"/><rect class="cls-1" x="151.17" y="1375.17" width="182" height="133.67" transform="translate(1684.17 1199.83) rotate(90)"/><rect class="cls-1" x="346.17" y="1277.17" width="182" height="133.67" transform="translate(1781.17 906.83) rotate(90)"/><rect class="cls-1" x="539.17" y="1369.09" width="76" height="55.82" transform="translate(1974.17 819.83) rotate(90)"/><rect class="cls-1" x="561.17" y="1202.17" width="32" height="163.67" transform="translate(1861.17 706.83) rotate(90)"/><rect class="cls-12" x="140.31" y="1487.94" width="4.75" height="16" transform="translate(1638.63 1353.25) rotate(90)"/><rect class="cls-12" x="642.31" y="1388.94" width="4.75" height="16" transform="translate(1289.38 2793.88) rotate(180)"/><rect class="cls-12" x="574.31" y="1291.94" width="4.75" height="16" transform="translate(-723.25 1876.63) rotate(-90)"/><rect class="cls-12" x="667.31" y="652.94" width="4.75" height="16"/><rect class="cls-12" x="237.31" y="384.94" width="4.75" height="16" transform="translate(632.63 153.25) rotate(90)"/><rect class="cls-10" x="1277.73" y="943.54" width="167" height="134.73"/><line class="cls-11" x1="1331" y1="1039" x2="1362.5" y2="1007.5"/><line class="cls-11" x1="1331" y1="1007.5" x2="1362.5" y2="1039"/><circle class="cls-11" cx="1347" cy="1008" r="4"/><circle class="cls-11" cx="1331" cy="1023" r="4"/><circle class="cls-11" cx="1347" cy="1039" r="4"/><circle class="cls-11" cx="1363" cy="1023" r="4"/><rect class="cls-12" x="1354.79" y="938.35" width="4.75" height="16" transform="translate(410.81 2303.52) rotate(-90)"/><rect class="cls-12" x="1440.79" y="1000.35" width="4.75" height="16"/><polygon class="cls-9" points="1377 968 1377 975.82 1383.5 980.5 1377 985.4 1377 993 1384.77 993 1389.5 1000 1394 993 1402 993 1402 986.14 1408.5 980.5 1402 975.58 1402 968 1393.97 968 1389.5 974.5 1385 968 1377 968"/><rect class="cls-12" x="1278.29" y="1005.85" width="4.75" height="16"/><polygon class="cls-4" points="422.39 1426.17 422.39 1418.41 430.61 1418.41 430.61 1409.29 440.64 1409.29 440.64 1400.17 448.85 1400.17 448.85 1426.17 422.39 1426.17"/><polygon class="cls-4" points="842.39 1238.17 842.39 1230.41 850.61 1230.41 850.61 1221.29 860.64 1221.29 860.64 1212.17 868.85 1212.17 868.85 1238.17 842.39 1238.17"/><polygon class="cls-4" points="982.39 1349.17 982.39 1341.41 990.61 1341.41 990.61 1332.29 1000.64 1332.29 1000.64 1323.17 1008.85 1323.17 1008.85 1349.17 982.39 1349.17"/><polygon class="cls-4" points="1102.39 1316.17 1102.39 1308.41 1110.61 1308.41 1110.61 1299.29 1120.64 1299.29 1120.64 1290.17 1128.85 1290.17 1128.85 1316.17 1102.39 1316.17"/><polygon class="cls-4" points="1264.39 1244.17 1264.39 1236.41 1272.61 1236.41 1272.61 1227.29 1282.64 1227.29 1282.64 1218.17 1290.85 1218.17 1290.85 1244.17 1264.39 1244.17"/><polygon class="cls-4" points="1348.39 1504.17 1348.39 1496.41 1356.61 1496.41 1356.61 1487.29 1366.64 1487.29 1366.64 1478.17 1374.85 1478.17 1374.85 1504.17 1348.39 1504.17"/><rect class="cls-10" x="1301.14" y="1181.14" width="204.98" height="204.73" transform="translate(2687.14 -120.12) rotate(90)"/><rect class="cls-12" x="1277.87" y="1287.81" width="4.75" height="28.25" transform="translate(2560.5 2603.88) rotate(180)"/><rect class="cls-12" x="1282.87" y="1287.81" width="4.75" height="28.25" transform="translate(2570.5 2603.88) rotate(180)"/><rect class="cls-12" x="1287.87" y="1287.81" width="4.75" height="28.25" transform="translate(2580.5 2603.88) rotate(180)"/><rect class="cls-12" x="1292.87" y="1287.81" width="4.75" height="28.25" transform="translate(2590.5 2603.88) rotate(180)"/><rect class="cls-12" x="1297.87" y="1287.81" width="4.75" height="28.25" transform="translate(2600.5 2603.88) rotate(180)"/><rect class="cls-12" x="1112.87" y="1353.81" width="4.75" height="28.25" transform="translate(2230.5 2735.88) rotate(180)"/><rect class="cls-12" x="1117.87" y="1353.81" width="4.75" height="28.25" transform="translate(2240.5 2735.88) rotate(180)"/><rect class="cls-12" x="1122.87" y="1353.81" width="4.75" height="28.25" transform="translate(2250.5 2735.88) rotate(180)"/><rect class="cls-12" x="1127.87" y="1353.81" width="4.75" height="28.25" transform="translate(2260.5 2735.88) rotate(180)"/><rect class="cls-12" x="1132.87" y="1353.81" width="4.75" height="28.25" transform="translate(2270.5 2735.88) rotate(180)"/><rect class="cls-12" x="1278.87" y="1465.81" width="4.75" height="28.25" transform="translate(2761.19 198.69) rotate(90)"/><rect class="cls-12" x="1278.87" y="1460.81" width="4.75" height="28.25" transform="translate(2756.19 193.69) rotate(90)"/><rect class="cls-12" x="1278.87" y="1455.81" width="4.75" height="28.25" transform="translate(2751.19 188.69) rotate(90)"/><rect class="cls-12" x="1278.87" y="1450.81" width="4.75" height="28.25" transform="translate(2746.19 183.69) rotate(90)"/><rect class="cls-12" x="1278.87" y="1445.81" width="4.75" height="28.25" transform="translate(2741.19 178.69) rotate(90)"/><rect class="cls-12" x="998.87" y="1358.81" width="4.75" height="28.25" transform="translate(2002.5 2745.88) rotate(180)"/><rect class="cls-12" x="1003.87" y="1358.81" width="4.75" height="28.25" transform="translate(2012.5 2745.88) rotate(180)"/><rect class="cls-12" x="1008.87" y="1358.81" width="4.75" height="28.25" transform="translate(2022.5 2745.88) rotate(180)"/><rect class="cls-12" x="1013.87" y="1358.81" width="4.75" height="28.25" transform="translate(2032.5 2745.88) rotate(180)"/><rect class="cls-12" x="1018.87" y="1358.81" width="4.75" height="28.25" transform="translate(2042.5 2745.88) rotate(180)"/><rect class="cls-12" x="972.87" y="1358.81" width="4.75" height="28.25" transform="translate(1950.5 2745.88) rotate(180)"/><rect class="cls-12" x="977.87" y="1358.81" width="4.75" height="28.25" transform="translate(1960.5 2745.88) rotate(180)"/><rect class="cls-12" x="982.87" y="1358.81" width="4.75" height="28.25" transform="translate(1970.5 2745.88) rotate(180)"/><rect class="cls-12" x="987.87" y="1358.81" width="4.75" height="28.25" transform="translate(1980.5 2745.88) rotate(180)"/><rect class="cls-12" x="992.87" y="1358.81" width="4.75" height="28.25" transform="translate(1990.5 2745.88) rotate(180)"/><rect class="cls-12" x="905.87" y="1427.81" width="4.75" height="28.25" transform="translate(1816.5 2883.88) rotate(180)"/><rect class="cls-12" x="910.87" y="1427.81" width="4.75" height="28.25" transform="translate(1826.5 2883.88) rotate(180)"/><rect class="cls-12" x="915.87" y="1427.81" width="4.75" height="28.25" transform="translate(1836.5 2883.88) rotate(180)"/><rect class="cls-12" x="920.87" y="1427.81" width="4.75" height="28.25" transform="translate(1846.5 2883.88) rotate(180)"/><rect class="cls-12" x="925.87" y="1427.81" width="4.75" height="28.25" transform="translate(1856.5 2883.88) rotate(180)"/><rect class="cls-12" x="879.87" y="1427.81" width="4.75" height="28.25" transform="translate(1764.5 2883.88) rotate(180)"/><rect class="cls-12" x="884.87" y="1427.81" width="4.75" height="28.25" transform="translate(1774.5 2883.88) rotate(180)"/><rect class="cls-12" x="889.87" y="1427.81" width="4.75" height="28.25" transform="translate(1784.5 2883.88) rotate(180)"/><rect class="cls-12" x="894.87" y="1427.81" width="4.75" height="28.25" transform="translate(1794.5 2883.88) rotate(180)"/><rect class="cls-12" x="899.87" y="1427.81" width="4.75" height="28.25" transform="translate(1804.5 2883.88) rotate(180)"/><rect class="cls-12" x="905.87" y="1279.81" width="4.75" height="28.25" transform="translate(1816.5 2587.88) rotate(180)"/><rect class="cls-12" x="910.87" y="1279.81" width="4.75" height="28.25" transform="translate(1826.5 2587.88) rotate(180)"/><rect class="cls-12" x="915.87" y="1279.81" width="4.75" height="28.25" transform="translate(1836.5 2587.88) rotate(180)"/><rect class="cls-12" x="920.87" y="1279.81" width="4.75" height="28.25" transform="translate(1846.5 2587.88) rotate(180)"/><rect class="cls-12" x="925.87" y="1279.81" width="4.75" height="28.25" transform="translate(1856.5 2587.88) rotate(180)"/><rect class="cls-12" x="879.87" y="1279.81" width="4.75" height="28.25" transform="translate(1764.5 2587.88) rotate(180)"/><rect class="cls-12" x="884.87" y="1279.81" width="4.75" height="28.25" transform="translate(1774.5 2587.88) rotate(180)"/><rect class="cls-12" x="889.87" y="1279.81" width="4.75" height="28.25" transform="translate(1784.5 2587.88) rotate(180)"/><rect class="cls-12" x="894.87" y="1279.81" width="4.75" height="28.25" transform="translate(1794.5 2587.88) rotate(180)"/><rect class="cls-12" x="899.87" y="1279.81" width="4.75" height="28.25" transform="translate(1804.5 2587.88) rotate(180)"/><rect class="cls-12" x="810.87" y="1427.81" width="4.75" height="28.25" transform="translate(1626.5 2883.88) rotate(180)"/><rect class="cls-12" x="815.87" y="1427.81" width="4.75" height="28.25" transform="translate(1636.5 2883.88) rotate(180)"/><rect class="cls-12" x="820.87" y="1427.81" width="4.75" height="28.25" transform="translate(1646.5 2883.88) rotate(180)"/><rect class="cls-12" x="825.87" y="1427.81" width="4.75" height="28.25" transform="translate(1656.5 2883.88) rotate(180)"/><rect class="cls-12" x="830.87" y="1427.81" width="4.75" height="28.25" transform="translate(1666.5 2883.88) rotate(180)"/><rect class="cls-12" x="784.87" y="1427.81" width="4.75" height="28.25" transform="translate(1574.5 2883.88) rotate(180)"/><rect class="cls-12" x="789.87" y="1427.81" width="4.75" height="28.25" transform="translate(1584.5 2883.88) rotate(180)"/><rect class="cls-12" x="794.87" y="1427.81" width="4.75" height="28.25" transform="translate(1594.5 2883.88) rotate(180)"/><rect class="cls-12" x="799.87" y="1427.81" width="4.75" height="28.25" transform="translate(1604.5 2883.88) rotate(180)"/><rect class="cls-12" x="804.87" y="1427.81" width="4.75" height="28.25" transform="translate(1614.5 2883.88) rotate(180)"/><rect class="cls-12" x="810.87" y="1279.81" width="4.75" height="28.25" transform="translate(1626.5 2587.88) rotate(180)"/><rect class="cls-12" x="815.87" y="1279.81" width="4.75" height="28.25" transform="translate(1636.5 2587.88) rotate(180)"/><rect class="cls-12" x="820.87" y="1279.81" width="4.75" height="28.25" transform="translate(1646.5 2587.88) rotate(180)"/><rect class="cls-12" x="825.87" y="1279.81" width="4.75" height="28.25" transform="translate(1656.5 2587.88) rotate(180)"/><rect class="cls-12" x="830.87" y="1279.81" width="4.75" height="28.25" transform="translate(1666.5 2587.88) rotate(180)"/><rect class="cls-12" x="784.87" y="1279.81" width="4.75" height="28.25" transform="translate(1574.5 2587.88) rotate(180)"/><rect class="cls-12" x="789.87" y="1279.81" width="4.75" height="28.25" transform="translate(1584.5 2587.88) rotate(180)"/><rect class="cls-12" x="794.87" y="1279.81" width="4.75" height="28.25" transform="translate(1594.5 2587.88) rotate(180)"/><rect class="cls-12" x="799.87" y="1279.81" width="4.75" height="28.25" transform="translate(1604.5 2587.88) rotate(180)"/><rect class="cls-12" x="804.87" y="1279.81" width="4.75" height="28.25" transform="translate(1614.5 2587.88) rotate(180)"/><line class="cls-11" x1="1388" y1="1272" x2="1419.5" y2="1303.5"/><line class="cls-11" x1="1419.5" y1="1272" x2="1388" y2="1303.5"/><circle class="cls-11" cx="1419" cy="1288" r="4"/><circle class="cls-11" cx="1404" cy="1272" r="4"/><circle class="cls-11" cx="1388" cy="1288" r="4"/><circle class="cls-11" cx="1404" cy="1304" r="4"/><line class="cls-11" x1="779" y1="1352" x2="810.5" y2="1383.5"/><line class="cls-11" x1="810.5" y1="1352" x2="779" y2="1383.5"/><circle class="cls-11" cx="810" cy="1368" r="4"/><circle class="cls-11" cx="795" cy="1352" r="4"/><circle class="cls-11" cx="779" cy="1368" r="4"/><circle class="cls-11" cx="795" cy="1384" r="4"/><rect class="cls-12" x="1501.31" y="1263.94" width="4.75" height="16"/><text class="cls-18" transform="translate(483.07 1513.42)">Waterfall through center</text></g></svg>