<svg xmlns="http://www.w3.org/2000/svg" viewBox="0 0 1584 1584"><defs><style>.cls-1,.cls-7,.cls-9{fill:#333;}.cls-2{font-size:39.02px;}.cls-10,.cls-11,.cls-12,.cls-14,.cls-2,.cls-3{fill:#fff;}.cls-11,.cls-12,.cls-14,.cls-2,.cls-7{font-family:Comfortaa-Regular, Comfortaa;}.cls-4{fill:#00ffa3;}.cls-13,.cls-5{fill:none;}.cls-10,.cls-5{stroke:#890000;}.cls-10,.cls-13,.cls-5,.cls-9{stroke-miterlimit:10;}.cls-5{stroke-width:7px;}.cls-6{fill:#00f3ff;}.cls-7{font-size:18.31px;}.cls-8{fill:#b400ff;}.cls-13,.cls-9{stroke:#fff;}.cls-10,.cls-9{stroke-width:2px;}.cls-11{font-size:26.45px;}.cls-12{font-size:21.84px;}.cls-14{font-size:12px;}</style></defs><title>Artboard 1</title><g id="Layer_2" data-name="Layer 2"><rect class="cls-1" x="0.5" y="0.5" width="1583" height="1584"/><text class="cls-2" transform="translate(24.12 52.78)">World: Abaddon<tspan x="0" y="46.83">Level: Underground Cave</tspan></text><rect class="cls-3" x="57" y="139" width="449" height="186"/><polygon class="cls-4" points="206.54 189.2 179.28 241.46 206.54 271 224.72 252.82 206.54 189.2"/><line class="cls-5" x1="276.76" y1="197.9" x2="331.1" y2="252.24"/><line class="cls-5" x1="331.1" y1="197.9" x2="276.76" y2="252.24"/><circle class="cls-5" cx="330.24" cy="225.5" r="6.9"/><circle class="cls-5" cx="304.36" cy="197.9" r="6.9"/><circle class="cls-5" cx="276.76" cy="225.5" r="6.9"/><circle class="cls-5" cx="304.36" cy="253.1" r="6.9"/><circle class="cls-6" cx="117.03" cy="207" r="7.29"/><ellipse class="cls-6" cx="117.03" cy="234.93" rx="8.5" ry="15.79"/><path class="cls-6" d="M138.89,242.21c0-8.71-3.8-15.78-8.5-15.78s2.43,7.07,2.43,15.78S125.7,258,130.39,258,138.89,250.93,138.89,242.21Z"/><path class="cls-6" d="M94.79,242.21c0,8.72,3.81,15.79,8.5,15.79s-2.43-7.07-2.43-15.79,7.12-15.78,2.43-15.78S94.79,233.5,94.79,242.21Z"/><polygon class="cls-6" points="125.53 202.14 125.53 196.07 137.68 191.21 131.61 202.14 125.53 202.14"/><polygon class="cls-6" points="108.53 202.14 102.46 202.14 97.61 190 108.53 196.07 108.53 202.14"/><text class="cls-7" transform="translate(79.59 160.74)">Dreamer</text><text class="cls-7" transform="translate(169.59 302.74)">Artifact</text><text class="cls-7" transform="translate(395.59 302.74)">Puzzle</text><text class="cls-7" transform="translate(247.59 165.74)">Enemy Spawn</text><polygon class="cls-8" points="466.43 187 445.19 187 432.5 204.64 419.2 187 398.57 187 398.57 208.09 379.57 220.93 398.57 233.14 398.57 254.86 417.2 254.86 432.5 272.5 445.86 254.86 466.43 254.86 466.43 233.07 448.79 220.93 466.43 208.71 466.43 187"/></g><g id="Layer_1" data-name="Layer 1"><rect class="cls-3" x="1477.35" y="629.42" width="42.14" height="41.16" transform="translate(2148.42 -848.42) rotate(90)"/><rect class="cls-3" x="1301.35" y="629.42" width="42.14" height="41.16" transform="translate(1972.42 -672.42) rotate(90)"/><rect class="cls-3" x="1301.35" y="452.42" width="42.14" height="41.16" transform="translate(1795.42 -849.42) rotate(90)"/><rect class="cls-3" x="1477.35" y="452.42" width="42.14" height="41.16" transform="translate(1971.42 -1025.42) rotate(90)"/><rect class="cls-3" x="1467.88" y="126.95" width="61.07" height="41.16" transform="translate(1645.95 -1350.88) rotate(90)"/><rect class="cls-3" x="459" y="1137" width="216" height="131"/><rect class="cls-3" x="567" y="1006" width="108" height="131"/><rect class="cls-3" x="446" y="969" width="185" height="37"/><rect class="cls-3" x="456" y="858" width="185" height="37" transform="translate(-328 1425) rotate(-90)"/><rect class="cls-1" x="573.5" y="1042.5" width="51" height="64" transform="translate(-475.5 1673.5) rotate(-90)"/><rect class="cls-3" x="110" y="395" width="485" height="143"/><rect class="cls-3" x="104.5" y="598.5" width="203" height="203"/><rect class="cls-3" x="380" y="580" width="112" height="112"/><rect class="cls-3" x="835.99" y="196.99" width="276" height="68" transform="translate(1204.98 -743) rotate(90)"/><rect class="cls-3" x="605.99" y="92.99" width="334" height="68"/><rect class="cls-1" x="674.99" y="142.99" width="69" height="29"/><rect class="cls-1" x="674.99" y="80.99" width="69" height="29"/><rect class="cls-3" x="192" y="784" width="28" height="93" rx="14" ry="14"/><path class="cls-3" d="M206,897h0a14,14,0,0,1,14,14v62a0,0,0,0,1,0,0H192a0,0,0,0,1,0,0V911a14,14,0,0,1,14-14Z"/><rect class="cls-3" x="216" y="825" width="28" height="76" rx="14" ry="14" transform="translate(1093 633) rotate(90)"/><rect class="cls-3" x="240" y="849" width="28" height="76" rx="14" ry="14" transform="translate(508 1774) rotate(180)"/><rect class="cls-3" x="216" y="873" width="28" height="76" rx="14" ry="14" transform="translate(-681 1141) rotate(-90)"/><path class="cls-3" d="M187,1230c-15-4-44-25-40-60,3-26.34,21.54-49.56,48-48,17,1,30,20.49,30,47,7.88,49.8-97,68-127,282H209c20-173,105.94-188.14,111-281a125,125,0,0,0-125-125c-69,0-121,42-121,111,0,48,18,101,79,121C170,1251,179.44,1241,187,1230Z"/><path class="cls-3" d="M266,1291l62-1,1-46H297C285.1,1263,279,1271,266,1291Z"/><rect class="cls-9" x="325.88" y="1259" width="4.75" height="16"/><rect class="cls-9" x="564.88" y="1260" width="4.75" height="16" transform="translate(1835.25 700.75) rotate(90)"/><rect class="cls-9" x="443.88" y="980" width="4.75" height="16" transform="translate(892.5 1976) rotate(180)"/><rect class="cls-9" x="545.88" y="776" width="4.75" height="16" transform="translate(-235.75 1332.25) rotate(-90)"/><rect class="cls-9" x="202.88" y="963" width="4.75" height="16" transform="translate(-765.75 1176.25) rotate(-90)"/><rect class="cls-9" x="191.88" y="1037" width="4.75" height="16" transform="translate(-850.75 1239.25) rotate(-90)"/><rect class="cls-9" x="433.88" y="684" width="4.75" height="16" transform="translate(-255.75 1128.25) rotate(-90)"/><rect class="cls-9" x="489.88" y="628" width="4.75" height="16"/><rect class="cls-9" x="377.88" y="628" width="4.75" height="16"/><rect class="cls-9" x="433.88" y="572" width="4.75" height="16" transform="translate(-143.75 1016.25) rotate(-90)"/><rect class="cls-3" x="645.05" y="255.17" width="167.28" height="167.28"/><rect class="cls-3" x="1210.05" y="725.17" width="167.28" height="167.28" transform="translate(2102.5 -484.88) rotate(90)"/><rect class="cls-3" x="717.19" y="909.19" width="306" height="121" transform="translate(1740.38 1939.38) rotate(180)"/><rect class="cls-3" x="717.19" y="1074.19" width="306" height="121" transform="translate(1740.38 2269.38) rotate(180)"/><rect class="cls-3" x="717.19" y="988.19" width="52" height="121" transform="translate(1486.38 2097.38) rotate(180)"/><rect class="cls-3" x="1164.11" y="825.06" width="66.33" height="68.45" transform="translate(2056.56 -337.99) rotate(90)"/><rect class="cls-3" x="1106.84" y="801.79" width="126.33" height="55" transform="translate(1999.29 -340.71) rotate(90)"/><rect class="cls-3" x="1032" y="687.62" width="40" height="197" transform="translate(1838.13 -265.88) rotate(90)"/><rect class="cls-3" x="691" y="604" width="516" height="65"/><rect class="cls-3" x="712.38" y="225.63" width="32.62" height="32.37"/><rect class="cls-3" x="712.38" y="421" width="32.62" height="88"/><rect class="cls-3" x="806.38" y="295" width="32.62" height="88"/><rect class="cls-9" x="151.88" y="1443" width="4.75" height="16" transform="translate(-1296.75 1605.25) rotate(-90)"/><path class="cls-3" d="M1143.06,242c-61,20-79,73-79,121,0,69,52,111,121,111a125,125,0,0,0,125-125c-5.06-92.86-91-108-111-281h-111c30,214,134.88,232.2,127,282,0,26.51-13,46-30,47-26.46,1.56-45-21.66-48-48-4-35,25-56,40-60C1169.5,278,1160.06,268,1143.06,242Z"/><path class="cls-3" d="M1256.06,228l62,1,1,46h-32C1275.16,256,1269.06,248,1256.06,228Z"/><rect class="cls-9" x="1315.94" y="243.96" width="4.75" height="16"/><rect class="cls-9" x="1141.94" y="59.96" width="4.75" height="16" transform="translate(1212.27 -1076.35) rotate(90)"/><rect class="cls-9" x="202.88" y="590" width="4.75" height="16" transform="translate(-392.75 803.25) rotate(-90)"/><rect class="cls-9" x="107.88" y="454" width="4.75" height="16"/><rect class="cls-9" x="592.88" y="454" width="4.75" height="16"/><rect class="cls-9" x="536.88" y="397" width="4.75" height="139"/><rect class="cls-9" x="531.88" y="397" width="4.75" height="139"/><rect class="cls-9" x="526.88" y="397" width="4.75" height="139"/><rect class="cls-9" x="521.88" y="397" width="4.75" height="139"/><rect class="cls-9" x="516.88" y="397" width="4.75" height="139"/><rect class="cls-9" x="511.88" y="397" width="4.75" height="139"/><rect class="cls-9" x="506.88" y="397" width="4.75" height="139"/><rect class="cls-9" x="501.88" y="397" width="4.75" height="139"/><rect class="cls-9" x="496.88" y="397" width="4.75" height="139"/><rect class="cls-9" x="491.88" y="397" width="4.75" height="139"/><rect class="cls-9" x="486.88" y="397" width="4.75" height="139"/><rect class="cls-9" x="481.88" y="397" width="4.75" height="139"/><rect class="cls-9" x="476.88" y="397" width="4.75" height="139"/><rect class="cls-9" x="471.88" y="397" width="4.75" height="139"/><rect class="cls-9" x="674.62" y="112.49" width="4.75" height="28.5" transform="translate(1353.99 253.48) rotate(180)"/><rect class="cls-9" x="679.62" y="112.49" width="4.75" height="28.5" transform="translate(1363.99 253.48) rotate(180)"/><rect class="cls-9" x="684.62" y="112.49" width="4.75" height="28.5" transform="translate(1373.99 253.48) rotate(180)"/><rect class="cls-9" x="689.62" y="112.49" width="4.75" height="28.5" transform="translate(1383.99 253.48) rotate(180)"/><rect class="cls-9" x="694.62" y="112.49" width="4.75" height="28.5" transform="translate(1393.99 253.48) rotate(180)"/><rect class="cls-9" x="699.62" y="112.49" width="4.75" height="28.5" transform="translate(1403.99 253.48) rotate(180)"/><rect class="cls-9" x="704.62" y="112.49" width="4.75" height="28.5" transform="translate(1413.99 253.48) rotate(180)"/><rect class="cls-9" x="709.62" y="112.49" width="4.75" height="28.5" transform="translate(1423.99 253.48) rotate(180)"/><rect class="cls-9" x="714.62" y="112.49" width="4.75" height="28.5" transform="translate(1433.99 253.48) rotate(180)"/><rect class="cls-9" x="719.62" y="112.49" width="4.75" height="28.5" transform="translate(1443.99 253.48) rotate(180)"/><rect class="cls-9" x="724.62" y="112.49" width="4.75" height="28.5" transform="translate(1453.99 253.48) rotate(180)"/><rect class="cls-9" x="729.62" y="112.49" width="4.75" height="28.5" transform="translate(1463.99 253.48) rotate(180)"/><rect class="cls-9" x="734.62" y="112.49" width="4.75" height="28.5" transform="translate(1473.99 253.48) rotate(180)"/><rect class="cls-9" x="739.62" y="112.49" width="4.75" height="28.5" transform="translate(1483.99 253.48) rotate(180)"/><rect class="cls-9" x="1073.13" y="767.62" width="4.75" height="36.5" transform="translate(2151 1571.75) rotate(180)"/><rect class="cls-9" x="1078.13" y="767.62" width="4.75" height="36.5" transform="translate(2161 1571.75) rotate(180)"/><rect class="cls-9" x="1083.13" y="767.62" width="4.75" height="36.5" transform="translate(2171 1571.75) rotate(180)"/><rect class="cls-9" x="1088.13" y="767.62" width="4.75" height="36.5" transform="translate(2181 1571.75) rotate(180)"/><rect class="cls-9" x="1093.13" y="767.62" width="4.75" height="36.5" transform="translate(2191 1571.75) rotate(180)"/><rect class="cls-9" x="1098.13" y="767.62" width="4.75" height="36.5" transform="translate(2201 1571.75) rotate(180)"/><rect class="cls-9" x="1103.13" y="767.62" width="4.75" height="36.5" transform="translate(2211 1571.75) rotate(180)"/><rect class="cls-9" x="1108.13" y="767.62" width="4.75" height="36.5" transform="translate(2221 1571.75) rotate(180)"/><rect class="cls-9" x="1113.13" y="767.62" width="4.75" height="36.5" transform="translate(2231 1571.75) rotate(180)"/><rect class="cls-9" x="1118.13" y="767.62" width="4.75" height="36.5" transform="translate(2241 1571.75) rotate(180)"/><rect class="cls-9" x="1123.13" y="767.62" width="4.75" height="36.5" transform="translate(2251 1571.75) rotate(180)"/><rect class="cls-9" x="1128.13" y="767.62" width="4.75" height="36.5" transform="translate(2261 1571.75) rotate(180)"/><rect class="cls-9" x="1133.13" y="767.62" width="4.75" height="36.5" transform="translate(2271 1571.75) rotate(180)"/><rect class="cls-9" x="1138.13" y="767.62" width="4.75" height="36.5" transform="translate(2281 1571.75) rotate(180)"/><rect class="cls-9" x="1003.13" y="767.62" width="4.75" height="36.5" transform="translate(2011 1571.75) rotate(180)"/><rect class="cls-9" x="1008.13" y="767.62" width="4.75" height="36.5" transform="translate(2021 1571.75) rotate(180)"/><rect class="cls-9" x="1013.13" y="767.62" width="4.75" height="36.5" transform="translate(2031 1571.75) rotate(180)"/><rect class="cls-9" x="1018.13" y="767.62" width="4.75" height="36.5" transform="translate(2041 1571.75) rotate(180)"/><rect class="cls-9" x="1023.13" y="767.62" width="4.75" height="36.5" transform="translate(2051 1571.75) rotate(180)"/><rect class="cls-9" x="1028.13" y="767.62" width="4.75" height="36.5" transform="translate(2061 1571.75) rotate(180)"/><rect class="cls-9" x="1033.13" y="767.62" width="4.75" height="36.5" transform="translate(2071 1571.75) rotate(180)"/><rect class="cls-9" x="1038.13" y="767.62" width="4.75" height="36.5" transform="translate(2081 1571.75) rotate(180)"/><rect class="cls-9" x="1043.13" y="767.62" width="4.75" height="36.5" transform="translate(2091 1571.75) rotate(180)"/><rect class="cls-9" x="1048.13" y="767.62" width="4.75" height="36.5" transform="translate(2101 1571.75) rotate(180)"/><rect class="cls-9" x="1053.13" y="767.62" width="4.75" height="36.5" transform="translate(2111 1571.75) rotate(180)"/><rect class="cls-9" x="1058.13" y="767.62" width="4.75" height="36.5" transform="translate(2121 1571.75) rotate(180)"/><rect class="cls-9" x="1063.13" y="767.62" width="4.75" height="36.5" transform="translate(2131 1571.75) rotate(180)"/><rect class="cls-9" x="1068.13" y="767.62" width="4.75" height="36.5" transform="translate(2141 1571.75) rotate(180)"/><rect class="cls-9" x="1495.63" y="862.12" width="4.75" height="36.5" transform="translate(617.63 2378.38) rotate(-90)"/><rect class="cls-9" x="1495.63" y="867.12" width="4.75" height="36.5" transform="translate(612.63 2383.38) rotate(-90)"/><rect class="cls-9" x="1495.63" y="872.12" width="4.75" height="36.5" transform="translate(607.63 2388.38) rotate(-90)"/><rect class="cls-9" x="1495.63" y="877.12" width="4.75" height="36.5" transform="translate(602.63 2393.38) rotate(-90)"/><rect class="cls-9" x="1495.63" y="882.12" width="4.75" height="36.5" transform="translate(597.63 2398.38) rotate(-90)"/><rect class="cls-9" x="1495.63" y="887.12" width="4.75" height="36.5" transform="translate(592.63 2403.38) rotate(-90)"/><rect class="cls-9" x="1495.63" y="892.12" width="4.75" height="36.5" transform="translate(587.63 2408.38) rotate(-90)"/><rect class="cls-9" x="1495.63" y="897.12" width="4.75" height="36.5" transform="translate(582.63 2413.38) rotate(-90)"/><rect class="cls-9" x="1495.63" y="902.12" width="4.75" height="36.5" transform="translate(577.63 2418.38) rotate(-90)"/><rect class="cls-9" x="1495.63" y="907.12" width="4.75" height="36.5" transform="translate(572.63 2423.38) rotate(-90)"/><rect class="cls-9" x="1495.63" y="912.12" width="4.75" height="36.5" transform="translate(567.63 2428.38) rotate(-90)"/><rect class="cls-9" x="1495.63" y="917.12" width="4.75" height="36.5" transform="translate(562.63 2433.38) rotate(-90)"/><rect class="cls-9" x="1495.63" y="922.12" width="4.75" height="36.5" transform="translate(557.63 2438.38) rotate(-90)"/><rect class="cls-9" x="1495.63" y="927.12" width="4.75" height="36.5" transform="translate(552.63 2443.38) rotate(-90)"/><rect class="cls-9" x="1495.63" y="792.12" width="4.75" height="36.5" transform="translate(687.63 2308.38) rotate(-90)"/><rect class="cls-9" x="1495.63" y="797.12" width="4.75" height="36.5" transform="translate(682.63 2313.38) rotate(-90)"/><rect class="cls-9" x="1495.63" y="802.12" width="4.75" height="36.5" transform="translate(677.63 2318.38) rotate(-90)"/><rect class="cls-9" x="1495.63" y="807.12" width="4.75" height="36.5" transform="translate(672.63 2323.38) rotate(-90)"/><rect class="cls-9" x="1495.63" y="812.12" width="4.75" height="36.5" transform="translate(667.63 2328.38) rotate(-90)"/><rect class="cls-9" x="1495.63" y="817.12" width="4.75" height="36.5" transform="translate(662.63 2333.38) rotate(-90)"/><rect class="cls-9" x="1495.63" y="822.12" width="4.75" height="36.5" transform="translate(657.63 2338.38) rotate(-90)"/><rect class="cls-9" x="1495.63" y="827.12" width="4.75" height="36.5" transform="translate(652.63 2343.38) rotate(-90)"/><rect class="cls-9" x="1495.63" y="832.12" width="4.75" height="36.5" transform="translate(647.63 2348.38) rotate(-90)"/><rect class="cls-9" x="1495.63" y="837.12" width="4.75" height="36.5" transform="translate(642.63 2353.38) rotate(-90)"/><rect class="cls-9" x="1495.63" y="842.12" width="4.75" height="36.5" transform="translate(637.63 2358.38) rotate(-90)"/><rect class="cls-9" x="1495.63" y="847.12" width="4.75" height="36.5" transform="translate(632.63 2363.38) rotate(-90)"/><rect class="cls-9" x="1495.63" y="852.12" width="4.75" height="36.5" transform="translate(627.63 2368.38) rotate(-90)"/><rect class="cls-9" x="1495.63" y="857.12" width="4.75" height="36.5" transform="translate(622.63 2373.38) rotate(-90)"/><rect class="cls-9" x="1495.63" y="722.12" width="4.75" height="36.5" transform="translate(757.63 2238.38) rotate(-90)"/><rect class="cls-9" x="1495.63" y="727.12" width="4.75" height="36.5" transform="translate(752.63 2243.38) rotate(-90)"/><rect class="cls-9" x="1495.63" y="732.12" width="4.75" height="36.5" transform="translate(747.63 2248.38) rotate(-90)"/><rect class="cls-9" x="1495.63" y="737.12" width="4.75" height="36.5" transform="translate(742.63 2253.38) rotate(-90)"/><rect class="cls-9" x="1495.63" y="742.12" width="4.75" height="36.5" transform="translate(737.63 2258.38) rotate(-90)"/><rect class="cls-9" x="1495.63" y="747.12" width="4.75" height="36.5" transform="translate(732.63 2263.38) rotate(-90)"/><rect class="cls-9" x="1495.63" y="752.12" width="4.75" height="36.5" transform="translate(727.63 2268.38) rotate(-90)"/><rect class="cls-9" x="1495.63" y="757.12" width="4.75" height="36.5" transform="translate(722.63 2273.38) rotate(-90)"/><rect class="cls-9" x="1495.63" y="762.12" width="4.75" height="36.5" transform="translate(717.63 2278.38) rotate(-90)"/><rect class="cls-9" x="1495.63" y="767.12" width="4.75" height="36.5" transform="translate(712.63 2283.38) rotate(-90)"/><rect class="cls-9" x="1495.63" y="772.12" width="4.75" height="36.5" transform="translate(707.63 2288.38) rotate(-90)"/><rect class="cls-9" x="1495.63" y="777.12" width="4.75" height="36.5" transform="translate(702.63 2293.38) rotate(-90)"/><rect class="cls-9" x="1495.63" y="782.12" width="4.75" height="36.5" transform="translate(697.63 2298.38) rotate(-90)"/><rect class="cls-9" x="1495.63" y="787.12" width="4.75" height="36.5" transform="translate(692.63 2303.38) rotate(-90)"/><rect class="cls-9" x="1495.63" y="652.12" width="4.75" height="36.5" transform="translate(827.63 2168.38) rotate(-90)"/><rect class="cls-9" x="1495.63" y="657.12" width="4.75" height="36.5" transform="translate(822.63 2173.38) rotate(-90)"/><rect class="cls-9" x="1495.63" y="662.12" width="4.75" height="36.5" transform="translate(817.63 2178.38) rotate(-90)"/><rect class="cls-9" x="1495.63" y="667.12" width="4.75" height="36.5" transform="translate(812.63 2183.38) rotate(-90)"/><rect class="cls-9" x="1495.63" y="672.12" width="4.75" height="36.5" transform="translate(807.63 2188.38) rotate(-90)"/><rect class="cls-9" x="1495.63" y="677.12" width="4.75" height="36.5" transform="translate(802.63 2193.38) rotate(-90)"/><rect class="cls-9" x="1495.63" y="682.12" width="4.75" height="36.5" transform="translate(797.63 2198.38) rotate(-90)"/><rect class="cls-9" x="1495.63" y="687.12" width="4.75" height="36.5" transform="translate(792.63 2203.38) rotate(-90)"/><rect class="cls-9" x="1495.63" y="692.12" width="4.75" height="36.5" transform="translate(787.63 2208.38) rotate(-90)"/><rect class="cls-9" x="1495.63" y="697.12" width="4.75" height="36.5" transform="translate(782.63 2213.38) rotate(-90)"/><rect class="cls-9" x="1495.63" y="702.12" width="4.75" height="36.5" transform="translate(777.63 2218.38) rotate(-90)"/><rect class="cls-9" x="1495.63" y="707.12" width="4.75" height="36.5" transform="translate(772.63 2223.38) rotate(-90)"/><rect class="cls-9" x="1495.63" y="712.12" width="4.75" height="36.5" transform="translate(767.63 2228.38) rotate(-90)"/><rect class="cls-9" x="1495.63" y="717.12" width="4.75" height="36.5" transform="translate(762.63 2233.38) rotate(-90)"/><rect class="cls-9" x="1405.13" y="631.62" width="4.75" height="36.5"/><rect class="cls-9" x="1400.13" y="631.62" width="4.75" height="36.5"/><rect class="cls-9" x="1395.13" y="631.62" width="4.75" height="36.5"/><rect class="cls-9" x="1390.13" y="631.62" width="4.75" height="36.5"/><rect class="cls-9" x="1385.13" y="631.62" width="4.75" height="36.5"/><rect class="cls-9" x="1380.13" y="631.62" width="4.75" height="36.5"/><rect class="cls-9" x="1375.13" y="631.62" width="4.75" height="36.5"/><rect class="cls-9" x="1370.13" y="631.62" width="4.75" height="36.5"/><rect class="cls-9" x="1365.13" y="631.62" width="4.75" height="36.5"/><rect class="cls-9" x="1360.13" y="631.62" width="4.75" height="36.5"/><rect class="cls-9" x="1355.13" y="631.62" width="4.75" height="36.5"/><rect class="cls-9" x="1350.13" y="631.62" width="4.75" height="36.5"/><rect class="cls-9" x="1345.13" y="631.62" width="4.75" height="36.5"/><rect class="cls-9" x="1340.13" y="631.62" width="4.75" height="36.5"/><rect class="cls-9" x="1475.13" y="631.62" width="4.75" height="36.5"/><rect class="cls-9" x="1470.13" y="631.62" width="4.75" height="36.5"/><rect class="cls-9" x="1465.13" y="631.62" width="4.75" height="36.5"/><rect class="cls-9" x="1460.13" y="631.62" width="4.75" height="36.5"/><rect class="cls-9" x="1455.13" y="631.62" width="4.75" height="36.5"/><rect class="cls-9" x="1450.13" y="631.62" width="4.75" height="36.5"/><rect class="cls-9" x="1445.13" y="631.62" width="4.75" height="36.5"/><rect class="cls-9" x="1440.13" y="631.62" width="4.75" height="36.5"/><rect class="cls-9" x="1435.13" y="631.62" width="4.75" height="36.5"/><rect class="cls-9" x="1430.13" y="631.62" width="4.75" height="36.5"/><rect class="cls-9" x="1425.13" y="631.62" width="4.75" height="36.5"/><rect class="cls-9" x="1420.13" y="631.62" width="4.75" height="36.5"/><rect class="cls-9" x="1415.13" y="631.62" width="4.75" height="36.5"/><rect class="cls-9" x="1410.13" y="631.62" width="4.75" height="36.5"/><rect class="cls-9" x="1319.63" y="540.12" width="4.75" height="36.5" transform="translate(1880.38 -763.63) rotate(90)"/><rect class="cls-9" x="1319.63" y="535.12" width="4.75" height="36.5" transform="translate(1875.38 -768.63) rotate(90)"/><rect class="cls-9" x="1319.63" y="530.12" width="4.75" height="36.5" transform="translate(1870.38 -773.63) rotate(90)"/><rect class="cls-9" x="1319.63" y="525.12" width="4.75" height="36.5" transform="translate(1865.38 -778.63) rotate(90)"/><rect class="cls-9" x="1319.63" y="520.12" width="4.75" height="36.5" transform="translate(1860.38 -783.63) rotate(90)"/><rect class="cls-9" x="1319.63" y="515.12" width="4.75" height="36.5" transform="translate(1855.38 -788.63) rotate(90)"/><rect class="cls-9" x="1319.63" y="510.12" width="4.75" height="36.5" transform="translate(1850.38 -793.63) rotate(90)"/><rect class="cls-9" x="1319.63" y="505.12" width="4.75" height="36.5" transform="translate(1845.38 -798.63) rotate(90)"/><rect class="cls-9" x="1319.63" y="500.12" width="4.75" height="36.5" transform="translate(1840.38 -803.63) rotate(90)"/><rect class="cls-9" x="1319.63" y="495.12" width="4.75" height="36.5" transform="translate(1835.38 -808.63) rotate(90)"/><rect class="cls-9" x="1319.63" y="490.12" width="4.75" height="36.5" transform="translate(1830.38 -813.63) rotate(90)"/><rect class="cls-9" x="1319.63" y="485.12" width="4.75" height="36.5" transform="translate(1825.38 -818.63) rotate(90)"/><rect class="cls-9" x="1319.63" y="480.12" width="4.75" height="36.5" transform="translate(1820.38 -823.63) rotate(90)"/><rect class="cls-9" x="1319.63" y="475.12" width="4.75" height="36.5" transform="translate(1815.38 -828.63) rotate(90)"/><rect class="cls-9" x="1319.63" y="610.12" width="4.75" height="36.5" transform="translate(1950.38 -693.63) rotate(90)"/><rect class="cls-9" x="1319.63" y="605.12" width="4.75" height="36.5" transform="translate(1945.38 -698.63) rotate(90)"/><rect class="cls-9" x="1319.63" y="600.12" width="4.75" height="36.5" transform="translate(1940.38 -703.63) rotate(90)"/><rect class="cls-9" x="1319.63" y="595.12" width="4.75" height="36.5" transform="translate(1935.38 -708.63) rotate(90)"/><rect class="cls-9" x="1319.63" y="590.12" width="4.75" height="36.5" transform="translate(1930.38 -713.63) rotate(90)"/><rect class="cls-9" x="1319.63" y="585.12" width="4.75" height="36.5" transform="translate(1925.38 -718.63) rotate(90)"/><rect class="cls-9" x="1319.63" y="580.12" width="4.75" height="36.5" transform="translate(1920.38 -723.63) rotate(90)"/><rect class="cls-9" x="1319.63" y="575.12" width="4.75" height="36.5" transform="translate(1915.38 -728.63) rotate(90)"/><rect class="cls-9" x="1319.63" y="570.12" width="4.75" height="36.5" transform="translate(1910.38 -733.63) rotate(90)"/><rect class="cls-9" x="1319.63" y="565.12" width="4.75" height="36.5" transform="translate(1905.38 -738.63) rotate(90)"/><rect class="cls-9" x="1319.63" y="560.12" width="4.75" height="36.5" transform="translate(1900.38 -743.63) rotate(90)"/><rect class="cls-9" x="1319.63" y="555.12" width="4.75" height="36.5" transform="translate(1895.38 -748.63) rotate(90)"/><rect class="cls-9" x="1319.63" y="550.12" width="4.75" height="36.5" transform="translate(1890.38 -753.63) rotate(90)"/><rect class="cls-9" x="1319.63" y="545.12" width="4.75" height="36.5" transform="translate(1885.38 -758.63) rotate(90)"/><rect class="cls-9" x="1410.13" y="454.62" width="4.75" height="36.5" transform="translate(2825 945.75) rotate(180)"/><rect class="cls-9" x="1415.13" y="454.62" width="4.75" height="36.5" transform="translate(2835 945.75) rotate(180)"/><rect class="cls-9" x="1420.13" y="454.62" width="4.75" height="36.5" transform="translate(2845 945.75) rotate(180)"/><rect class="cls-9" x="1425.13" y="454.62" width="4.75" height="36.5" transform="translate(2855 945.75) rotate(180)"/><rect class="cls-9" x="1430.13" y="454.62" width="4.75" height="36.5" transform="translate(2865 945.75) rotate(180)"/><rect class="cls-9" x="1435.13" y="454.62" width="4.75" height="36.5" transform="translate(2875 945.75) rotate(180)"/><rect class="cls-9" x="1440.13" y="454.62" width="4.75" height="36.5" transform="translate(2885 945.75) rotate(180)"/><rect class="cls-9" x="1445.13" y="454.62" width="4.75" height="36.5" transform="translate(2895 945.75) rotate(180)"/><rect class="cls-9" x="1450.13" y="454.62" width="4.75" height="36.5" transform="translate(2905 945.75) rotate(180)"/><rect class="cls-9" x="1455.13" y="454.62" width="4.75" height="36.5" transform="translate(2915 945.75) rotate(180)"/><rect class="cls-9" x="1460.13" y="454.62" width="4.75" height="36.5" transform="translate(2925 945.75) rotate(180)"/><rect class="cls-9" x="1465.13" y="454.62" width="4.75" height="36.5" transform="translate(2935 945.75) rotate(180)"/><rect class="cls-9" x="1470.13" y="454.62" width="4.75" height="36.5" transform="translate(2945 945.75) rotate(180)"/><rect class="cls-9" x="1475.13" y="454.62" width="4.75" height="36.5" transform="translate(2955 945.75) rotate(180)"/><rect class="cls-9" x="1340.13" y="454.62" width="4.75" height="36.5" transform="translate(2685 945.75) rotate(180)"/><rect class="cls-9" x="1345.13" y="454.62" width="4.75" height="36.5" transform="translate(2695 945.75) rotate(180)"/><rect class="cls-9" x="1350.13" y="454.62" width="4.75" height="36.5" transform="translate(2705 945.75) rotate(180)"/><rect class="cls-9" x="1355.13" y="454.62" width="4.75" height="36.5" transform="translate(2715 945.75) rotate(180)"/><rect class="cls-9" x="1360.13" y="454.62" width="4.75" height="36.5" transform="translate(2725 945.75) rotate(180)"/><rect class="cls-9" x="1365.13" y="454.62" width="4.75" height="36.5" transform="translate(2735 945.75) rotate(180)"/><rect class="cls-9" x="1370.13" y="454.62" width="4.75" height="36.5" transform="translate(2745 945.75) rotate(180)"/><rect class="cls-9" x="1375.13" y="454.62" width="4.75" height="36.5" transform="translate(2755 945.75) rotate(180)"/><rect class="cls-9" x="1380.13" y="454.62" width="4.75" height="36.5" transform="translate(2765 945.75) rotate(180)"/><rect class="cls-9" x="1385.13" y="454.62" width="4.75" height="36.5" transform="translate(2775 945.75) rotate(180)"/><rect class="cls-9" x="1390.13" y="454.62" width="4.75" height="36.5" transform="translate(2785 945.75) rotate(180)"/><rect class="cls-9" x="1395.13" y="454.62" width="4.75" height="36.5" transform="translate(2795 945.75) rotate(180)"/><rect class="cls-9" x="1400.13" y="454.62" width="4.75" height="36.5" transform="translate(2805 945.75) rotate(180)"/><rect class="cls-9" x="1405.13" y="454.62" width="4.75" height="36.5" transform="translate(2815 945.75) rotate(180)"/><rect class="cls-9" x="1495.63" y="369.12" width="4.75" height="36.5" transform="translate(1110.63 1885.38) rotate(-90)"/><rect class="cls-9" x="1495.63" y="374.12" width="4.75" height="36.5" transform="translate(1105.63 1890.38) rotate(-90)"/><rect class="cls-9" x="1495.63" y="379.12" width="4.75" height="36.5" transform="translate(1100.63 1895.38) rotate(-90)"/><rect class="cls-9" x="1495.63" y="384.12" width="4.75" height="36.5" transform="translate(1095.63 1900.38) rotate(-90)"/><rect class="cls-9" x="1495.63" y="389.12" width="4.75" height="36.5" transform="translate(1090.63 1905.38) rotate(-90)"/><rect class="cls-9" x="1495.63" y="394.12" width="4.75" height="36.5" transform="translate(1085.63 1910.38) rotate(-90)"/><rect class="cls-9" x="1495.63" y="399.12" width="4.75" height="36.5" transform="translate(1080.63 1915.38) rotate(-90)"/><rect class="cls-9" x="1495.63" y="404.12" width="4.75" height="36.5" transform="translate(1075.63 1920.38) rotate(-90)"/><rect class="cls-9" x="1495.63" y="409.12" width="4.75" height="36.5" transform="translate(1070.63 1925.38) rotate(-90)"/><rect class="cls-9" x="1495.63" y="414.12" width="4.75" height="36.5" transform="translate(1065.63 1930.38) rotate(-90)"/><rect class="cls-9" x="1495.63" y="419.12" width="4.75" height="36.5" transform="translate(1060.63 1935.38) rotate(-90)"/><rect class="cls-9" x="1495.63" y="424.12" width="4.75" height="36.5" transform="translate(1055.63 1940.38) rotate(-90)"/><rect class="cls-9" x="1495.63" y="429.12" width="4.75" height="36.5" transform="translate(1050.63 1945.38) rotate(-90)"/><rect class="cls-9" x="1495.63" y="434.12" width="4.75" height="36.5" transform="translate(1045.63 1950.38) rotate(-90)"/><rect class="cls-9" x="1495.63" y="299.12" width="4.75" height="36.5" transform="translate(1180.63 1815.38) rotate(-90)"/><rect class="cls-9" x="1495.63" y="304.12" width="4.75" height="36.5" transform="translate(1175.63 1820.38) rotate(-90)"/><rect class="cls-9" x="1495.63" y="309.12" width="4.75" height="36.5" transform="translate(1170.63 1825.38) rotate(-90)"/><rect class="cls-9" x="1495.63" y="314.12" width="4.75" height="36.5" transform="translate(1165.63 1830.38) rotate(-90)"/><rect class="cls-9" x="1495.63" y="319.12" width="4.75" height="36.5" transform="translate(1160.63 1835.38) rotate(-90)"/><rect class="cls-9" x="1495.63" y="324.12" width="4.75" height="36.5" transform="translate(1155.63 1840.38) rotate(-90)"/><rect class="cls-9" x="1495.63" y="329.12" width="4.75" height="36.5" transform="translate(1150.63 1845.38) rotate(-90)"/><rect class="cls-9" x="1495.63" y="334.12" width="4.75" height="36.5" transform="translate(1145.63 1850.38) rotate(-90)"/><rect class="cls-9" x="1495.63" y="339.12" width="4.75" height="36.5" transform="translate(1140.63 1855.38) rotate(-90)"/><rect class="cls-9" x="1495.63" y="344.12" width="4.75" height="36.5" transform="translate(1135.63 1860.38) rotate(-90)"/><rect class="cls-9" x="1495.63" y="349.12" width="4.75" height="36.5" transform="translate(1130.63 1865.38) rotate(-90)"/><rect class="cls-9" x="1495.63" y="354.12" width="4.75" height="36.5" transform="translate(1125.63 1870.38) rotate(-90)"/><rect class="cls-9" x="1495.63" y="359.12" width="4.75" height="36.5" transform="translate(1120.63 1875.38) rotate(-90)"/><rect class="cls-9" x="1495.63" y="364.12" width="4.75" height="36.5" transform="translate(1115.63 1880.38) rotate(-90)"/><rect class="cls-9" x="1495.63" y="229.12" width="4.75" height="36.5" transform="translate(1250.63 1745.38) rotate(-90)"/><rect class="cls-9" x="1495.63" y="234.12" width="4.75" height="36.5" transform="translate(1245.63 1750.38) rotate(-90)"/><rect class="cls-9" x="1495.63" y="239.12" width="4.75" height="36.5" transform="translate(1240.63 1755.38) rotate(-90)"/><rect class="cls-9" x="1495.63" y="244.12" width="4.75" height="36.5" transform="translate(1235.63 1760.38) rotate(-90)"/><rect class="cls-9" x="1495.63" y="249.12" width="4.75" height="36.5" transform="translate(1230.63 1765.38) rotate(-90)"/><rect class="cls-9" x="1495.63" y="254.12" width="4.75" height="36.5" transform="translate(1225.63 1770.38) rotate(-90)"/><rect class="cls-9" x="1495.63" y="259.12" width="4.75" height="36.5" transform="translate(1220.63 1775.38) rotate(-90)"/><rect class="cls-9" x="1495.63" y="264.12" width="4.75" height="36.5" transform="translate(1215.63 1780.38) rotate(-90)"/><rect class="cls-9" x="1495.63" y="269.12" width="4.75" height="36.5" transform="translate(1210.63 1785.38) rotate(-90)"/><rect class="cls-9" x="1495.63" y="274.12" width="4.75" height="36.5" transform="translate(1205.63 1790.38) rotate(-90)"/><rect class="cls-9" x="1495.63" y="279.12" width="4.75" height="36.5" transform="translate(1200.63 1795.38) rotate(-90)"/><rect class="cls-9" x="1495.63" y="284.12" width="4.75" height="36.5" transform="translate(1195.63 1800.38) rotate(-90)"/><rect class="cls-9" x="1495.63" y="289.12" width="4.75" height="36.5" transform="translate(1190.63 1805.38) rotate(-90)"/><rect class="cls-9" x="1495.63" y="294.12" width="4.75" height="36.5" transform="translate(1185.63 1810.38) rotate(-90)"/><rect class="cls-9" x="1495.63" y="159.12" width="4.75" height="36.5" transform="translate(1320.63 1675.38) rotate(-90)"/><rect class="cls-9" x="1495.63" y="164.12" width="4.75" height="36.5" transform="translate(1315.63 1680.38) rotate(-90)"/><rect class="cls-9" x="1495.63" y="169.12" width="4.75" height="36.5" transform="translate(1310.63 1685.38) rotate(-90)"/><rect class="cls-9" x="1495.63" y="174.12" width="4.75" height="36.5" transform="translate(1305.63 1690.38) rotate(-90)"/><rect class="cls-9" x="1495.63" y="179.12" width="4.75" height="36.5" transform="translate(1300.63 1695.38) rotate(-90)"/><rect class="cls-9" x="1495.63" y="184.12" width="4.75" height="36.5" transform="translate(1295.63 1700.38) rotate(-90)"/><rect class="cls-9" x="1495.63" y="189.12" width="4.75" height="36.5" transform="translate(1290.63 1705.38) rotate(-90)"/><rect class="cls-9" x="1495.63" y="194.12" width="4.75" height="36.5" transform="translate(1285.63 1710.38) rotate(-90)"/><rect class="cls-9" x="1495.63" y="199.12" width="4.75" height="36.5" transform="translate(1280.63 1715.38) rotate(-90)"/><rect class="cls-9" x="1495.63" y="204.12" width="4.75" height="36.5" transform="translate(1275.63 1720.38) rotate(-90)"/><rect class="cls-9" x="1495.63" y="209.12" width="4.75" height="36.5" transform="translate(1270.63 1725.38) rotate(-90)"/><rect class="cls-9" x="1495.63" y="214.12" width="4.75" height="36.5" transform="translate(1265.63 1730.38) rotate(-90)"/><rect class="cls-9" x="1495.63" y="219.12" width="4.75" height="36.5" transform="translate(1260.63 1735.38) rotate(-90)"/><rect class="cls-9" x="1495.63" y="224.12" width="4.75" height="36.5" transform="translate(1255.63 1740.38) rotate(-90)"/><rect class="cls-9" x="1043.87" y="606" width="4.75" height="61" transform="translate(2092.5 1273) rotate(180)"/><rect class="cls-9" x="1048.87" y="606" width="4.75" height="61" transform="translate(2102.5 1273) rotate(180)"/><rect class="cls-9" x="1053.87" y="606" width="4.75" height="61" transform="translate(2112.5 1273) rotate(180)"/><rect class="cls-9" x="1058.87" y="606" width="4.75" height="61" transform="translate(2122.5 1273) rotate(180)"/><rect class="cls-9" x="1063.87" y="606" width="4.75" height="61" transform="translate(2132.5 1273) rotate(180)"/><rect class="cls-9" x="1068.87" y="606" width="4.75" height="61" transform="translate(2142.5 1273) rotate(180)"/><rect class="cls-9" x="1073.87" y="606" width="4.75" height="61" transform="translate(2152.5 1273) rotate(180)"/><rect class="cls-9" x="1078.87" y="606" width="4.75" height="61" transform="translate(2162.5 1273) rotate(180)"/><rect class="cls-9" x="1083.87" y="606" width="4.75" height="61" transform="translate(2172.5 1273) rotate(180)"/><rect class="cls-9" x="1088.87" y="606" width="4.75" height="61" transform="translate(2182.5 1273) rotate(180)"/><rect class="cls-9" x="1093.87" y="606" width="4.75" height="61" transform="translate(2192.5 1273) rotate(180)"/><rect class="cls-9" x="1098.87" y="606" width="4.75" height="61" transform="translate(2202.5 1273) rotate(180)"/><rect class="cls-9" x="1103.87" y="606" width="4.75" height="61" transform="translate(2212.5 1273) rotate(180)"/><rect class="cls-9" x="1108.87" y="606" width="4.75" height="61" transform="translate(2222.5 1273) rotate(180)"/><rect class="cls-9" x="973.87" y="606" width="4.75" height="61" transform="translate(1952.5 1273) rotate(180)"/><rect class="cls-9" x="978.87" y="606" width="4.75" height="61" transform="translate(1962.5 1273) rotate(180)"/><rect class="cls-9" x="983.87" y="606" width="4.75" height="61" transform="translate(1972.5 1273) rotate(180)"/><rect class="cls-9" x="988.87" y="606" width="4.75" height="61" transform="translate(1982.5 1273) rotate(180)"/><rect class="cls-9" x="993.87" y="606" width="4.75" height="61" transform="translate(1992.5 1273) rotate(180)"/><rect class="cls-9" x="998.87" y="606" width="4.75" height="61" transform="translate(2002.5 1273) rotate(180)"/><rect class="cls-9" x="1003.87" y="606" width="4.75" height="61" transform="translate(2012.5 1273) rotate(180)"/><rect class="cls-9" x="1008.87" y="606" width="4.75" height="61" transform="translate(2022.5 1273) rotate(180)"/><rect class="cls-9" x="1013.87" y="606" width="4.75" height="61" transform="translate(2032.5 1273) rotate(180)"/><rect class="cls-9" x="1018.87" y="606" width="4.75" height="61" transform="translate(2042.5 1273) rotate(180)"/><rect class="cls-9" x="1023.87" y="606" width="4.75" height="61" transform="translate(2052.5 1273) rotate(180)"/><rect class="cls-9" x="1028.87" y="606" width="4.75" height="61" transform="translate(2062.5 1273) rotate(180)"/><rect class="cls-9" x="1033.87" y="606" width="4.75" height="61" transform="translate(2072.5 1273) rotate(180)"/><rect class="cls-9" x="1038.87" y="606" width="4.75" height="61" transform="translate(2082.5 1273) rotate(180)"/><rect class="cls-9" x="934.81" y="937.44" width="4.75" height="61"/><rect class="cls-9" x="929.81" y="937.44" width="4.75" height="61"/><rect class="cls-9" x="924.81" y="937.44" width="4.75" height="61"/><rect class="cls-9" x="919.81" y="937.44" width="4.75" height="61"/><rect class="cls-9" x="914.81" y="937.44" width="4.75" height="61"/><rect class="cls-9" x="909.81" y="937.44" width="4.75" height="61"/><rect class="cls-9" x="904.81" y="937.44" width="4.75" height="61"/><rect class="cls-9" x="899.81" y="937.44" width="4.75" height="61"/><rect class="cls-9" x="894.81" y="937.44" width="4.75" height="61"/><rect class="cls-9" x="889.81" y="937.44" width="4.75" height="61"/><rect class="cls-9" x="884.81" y="937.44" width="4.75" height="61"/><rect class="cls-9" x="879.81" y="937.44" width="4.75" height="61"/><rect class="cls-9" x="874.81" y="937.44" width="4.75" height="61"/><rect class="cls-9" x="869.81" y="937.44" width="4.75" height="61"/><rect class="cls-9" x="1004.81" y="937.44" width="4.75" height="61"/><rect class="cls-9" x="999.81" y="937.44" width="4.75" height="61"/><rect class="cls-9" x="994.81" y="937.44" width="4.75" height="61"/><rect class="cls-9" x="989.81" y="937.44" width="4.75" height="61"/><rect class="cls-9" x="984.81" y="937.44" width="4.75" height="61"/><rect class="cls-9" x="979.81" y="937.44" width="4.75" height="61"/><rect class="cls-9" x="974.81" y="937.44" width="4.75" height="61"/><rect class="cls-9" x="969.81" y="937.44" width="4.75" height="61"/><rect class="cls-9" x="964.81" y="937.44" width="4.75" height="61"/><rect class="cls-9" x="959.81" y="937.44" width="4.75" height="61"/><rect class="cls-9" x="954.81" y="937.44" width="4.75" height="61"/><rect class="cls-9" x="949.81" y="937.44" width="4.75" height="61"/><rect class="cls-9" x="944.81" y="937.44" width="4.75" height="61"/><rect class="cls-9" x="939.81" y="937.44" width="4.75" height="61"/><rect class="cls-9" x="934.81" y="1104.44" width="4.75" height="61"/><rect class="cls-9" x="929.81" y="1104.44" width="4.75" height="61"/><rect class="cls-9" x="924.81" y="1104.44" width="4.75" height="61"/><rect class="cls-9" x="919.81" y="1104.44" width="4.75" height="61"/><rect class="cls-9" x="914.81" y="1104.44" width="4.75" height="61"/><rect class="cls-9" x="909.81" y="1104.44" width="4.75" height="61"/><rect class="cls-9" x="904.81" y="1104.44" width="4.75" height="61"/><rect class="cls-9" x="899.81" y="1104.44" width="4.75" height="61"/><rect class="cls-9" x="894.81" y="1104.44" width="4.75" height="61"/><rect class="cls-9" x="889.81" y="1104.44" width="4.75" height="61"/><rect class="cls-9" x="884.81" y="1104.44" width="4.75" height="61"/><rect class="cls-9" x="879.81" y="1104.44" width="4.75" height="61"/><rect class="cls-9" x="874.81" y="1104.44" width="4.75" height="61"/><rect class="cls-9" x="869.81" y="1104.44" width="4.75" height="61"/><rect class="cls-9" x="1004.81" y="1104.44" width="4.75" height="61"/><rect class="cls-9" x="999.81" y="1104.44" width="4.75" height="61"/><rect class="cls-9" x="994.81" y="1104.44" width="4.75" height="61"/><rect class="cls-9" x="989.81" y="1104.44" width="4.75" height="61"/><rect class="cls-9" x="984.81" y="1104.44" width="4.75" height="61"/><rect class="cls-9" x="979.81" y="1104.44" width="4.75" height="61"/><rect class="cls-9" x="974.81" y="1104.44" width="4.75" height="61"/><rect class="cls-9" x="969.81" y="1104.44" width="4.75" height="61"/><rect class="cls-9" x="964.81" y="1104.44" width="4.75" height="61"/><rect class="cls-9" x="959.81" y="1104.44" width="4.75" height="61"/><rect class="cls-9" x="954.81" y="1104.44" width="4.75" height="61"/><rect class="cls-9" x="949.81" y="1104.44" width="4.75" height="61"/><rect class="cls-9" x="944.81" y="1104.44" width="4.75" height="61"/><rect class="cls-9" x="939.81" y="1104.44" width="4.75" height="61"/><rect class="cls-9" x="853.87" y="606" width="4.75" height="61" transform="translate(1712.5 1273) rotate(180)"/><rect class="cls-9" x="858.87" y="606" width="4.75" height="61" transform="translate(1722.5 1273) rotate(180)"/><rect class="cls-9" x="863.87" y="606" width="4.75" height="61" transform="translate(1732.5 1273) rotate(180)"/><rect class="cls-9" x="868.87" y="606" width="4.75" height="61" transform="translate(1742.5 1273) rotate(180)"/><rect class="cls-9" x="873.87" y="606" width="4.75" height="61" transform="translate(1752.5 1273) rotate(180)"/><rect class="cls-9" x="878.87" y="606" width="4.75" height="61" transform="translate(1762.5 1273) rotate(180)"/><rect class="cls-9" x="883.87" y="606" width="4.75" height="61" transform="translate(1772.5 1273) rotate(180)"/><rect class="cls-9" x="888.87" y="606" width="4.75" height="61" transform="translate(1782.5 1273) rotate(180)"/><rect class="cls-9" x="893.87" y="606" width="4.75" height="61" transform="translate(1792.5 1273) rotate(180)"/><rect class="cls-9" x="898.87" y="606" width="4.75" height="61" transform="translate(1802.5 1273) rotate(180)"/><rect class="cls-9" x="903.87" y="606" width="4.75" height="61" transform="translate(1812.5 1273) rotate(180)"/><rect class="cls-9" x="908.87" y="606" width="4.75" height="61" transform="translate(1822.5 1273) rotate(180)"/><rect class="cls-9" x="913.87" y="606" width="4.75" height="61" transform="translate(1832.5 1273) rotate(180)"/><rect class="cls-9" x="918.87" y="606" width="4.75" height="61" transform="translate(1842.5 1273) rotate(180)"/><rect class="cls-9" x="783.87" y="606" width="4.75" height="61" transform="translate(1572.5 1273) rotate(180)"/><rect class="cls-9" x="788.87" y="606" width="4.75" height="61" transform="translate(1582.5 1273) rotate(180)"/><rect class="cls-9" x="793.87" y="606" width="4.75" height="61" transform="translate(1592.5 1273) rotate(180)"/><rect class="cls-9" x="798.87" y="606" width="4.75" height="61" transform="translate(1602.5 1273) rotate(180)"/><rect class="cls-9" x="803.87" y="606" width="4.75" height="61" transform="translate(1612.5 1273) rotate(180)"/><rect class="cls-9" x="808.87" y="606" width="4.75" height="61" transform="translate(1622.5 1273) rotate(180)"/><rect class="cls-9" x="813.87" y="606" width="4.75" height="61" transform="translate(1632.5 1273) rotate(180)"/><rect class="cls-9" x="818.87" y="606" width="4.75" height="61" transform="translate(1642.5 1273) rotate(180)"/><rect class="cls-9" x="823.87" y="606" width="4.75" height="61" transform="translate(1652.5 1273) rotate(180)"/><rect class="cls-9" x="828.87" y="606" width="4.75" height="61" transform="translate(1662.5 1273) rotate(180)"/><rect class="cls-9" x="833.87" y="606" width="4.75" height="61" transform="translate(1672.5 1273) rotate(180)"/><rect class="cls-9" x="838.87" y="606" width="4.75" height="61" transform="translate(1682.5 1273) rotate(180)"/><rect class="cls-9" x="843.87" y="606" width="4.75" height="61" transform="translate(1692.5 1273) rotate(180)"/><rect class="cls-9" x="848.87" y="606" width="4.75" height="61" transform="translate(1702.5 1273) rotate(180)"/><polygon class="cls-4" points="436 613 424 636 436 649 444 641 436 613"/><line class="cls-10" x1="548" y1="1179" x2="579.5" y2="1210.5"/><line class="cls-10" x1="579.5" y1="1179" x2="548" y2="1210.5"/><circle class="cls-10" cx="579" cy="1195" r="4"/><circle class="cls-10" cx="564" cy="1179" r="4"/><circle class="cls-10" cx="548" cy="1195" r="4"/><circle class="cls-10" cx="564" cy="1211" r="4"/><line class="cls-10" x1="778" y1="956" x2="809.5" y2="987.5"/><line class="cls-10" x1="809.5" y1="956" x2="778" y2="987.5"/><circle class="cls-10" cx="809" cy="972" r="4"/><circle class="cls-10" cx="794" cy="956" r="4"/><circle class="cls-10" cx="778" cy="972" r="4"/><circle class="cls-10" cx="794" cy="988" r="4"/><line class="cls-10" x1="1312.5" y1="790.12" x2="1281" y2="821.62"/><line class="cls-10" x1="1312.5" y1="821.62" x2="1281" y2="790.12"/><circle class="cls-10" cx="1296.5" cy="821.12" r="4"/><circle class="cls-10" cx="1312.5" cy="806.12" r="4"/><circle class="cls-10" cx="1296.5" cy="790.12" r="4"/><circle class="cls-10" cx="1280.5" cy="806.12" r="4"/><line class="cls-10" x1="722" y1="322" x2="753.5" y2="353.5"/><line class="cls-10" x1="753.5" y1="322" x2="722" y2="353.5"/><circle class="cls-10" cx="753" cy="338" r="4"/><circle class="cls-10" cx="738" cy="322" r="4"/><circle class="cls-10" cx="722" cy="338" r="4"/><circle class="cls-10" cx="738" cy="354" r="4"/><line class="cls-10" x1="190" y1="684" x2="221.5" y2="715.5"/><line class="cls-10" x1="221.5" y1="684" x2="190" y2="715.5"/><circle class="cls-10" cx="221" cy="700" r="4"/><circle class="cls-10" cx="206" cy="684" r="4"/><circle class="cls-10" cx="190" cy="700" r="4"/><circle class="cls-10" cx="206" cy="716" r="4"/><line class="cls-10" x1="337" y1="450" x2="368.5" y2="481.5"/><line class="cls-10" x1="368.5" y1="450" x2="337" y2="481.5"/><circle class="cls-10" cx="368" cy="466" r="4"/><circle class="cls-10" cx="353" cy="450" r="4"/><circle class="cls-10" cx="337" cy="466" r="4"/><circle class="cls-10" cx="353" cy="482" r="4"/><rect class="cls-9" x="1061.88" y="339" width="4.75" height="16"/><rect class="cls-9" x="725.88" y="218" width="4.75" height="16" transform="translate(954.25 -502.25) rotate(90)"/><rect class="cls-9" x="1290.88" y="717" width="4.75" height="16" transform="translate(2018.25 -568.25) rotate(90)"/><rect class="cls-9" x="1020.81" y="1127.44" width="4.75" height="16" transform="translate(2046.38 2270.88) rotate(180)"/><rect class="cls-9" x="1020.81" y="959.44" width="4.75" height="16" transform="translate(2046.38 1934.88) rotate(180)"/><rect class="cls-9" x="714.81" y="1044.44" width="4.75" height="16" transform="translate(1434.38 2104.88) rotate(180)"/><rect class="cls-9" x="971.88" y="361" width="4.75" height="16" transform="translate(1343.25 -605.25) rotate(90)"/><rect class="cls-9" x="603.88" y="116" width="4.75" height="16" transform="translate(1212.5 248) rotate(180)"/><rect class="cls-9" x="727.88" y="501" width="4.75" height="16" transform="translate(1239.25 -221.25) rotate(90)"/><rect class="cls-9" x="945.88" y="596" width="4.75" height="16" transform="translate(1552.25 -344.25) rotate(90)"/><rect class="cls-9" x="688.88" y="628" width="4.75" height="16"/><rect class="cls-9" x="951.88" y="778" width="4.75" height="16"/><rect class="cls-9" x="1204.88" y="628" width="4.75" height="16"/><rect class="cls-9" x="1307.88" y="345" width="4.75" height="16"/><polygon class="cls-3" points="491 384 491 376.25 499.21 376.25 499.21 367.12 509.25 367.12 509.25 358 517.46 358 517.46 384 491 384"/><polygon class="cls-3" points="692.23 68.77 699.98 68.77 699.98 76.98 709.11 76.98 709.11 87.02 718.23 87.02 718.23 95.23 692.23 95.23 692.23 68.77"/><polygon class="cls-3" points="1064 751 1064 743.25 1072.21 743.25 1072.21 734.12 1082.25 734.12 1082.25 725 1090.46 725 1090.46 751 1064 751"/><polygon class="cls-3" points="1409 619 1409 611.25 1417.21 611.25 1417.21 602.12 1427.25 602.12 1427.25 593 1435.46 593 1435.46 619 1409 619"/><polygon class="cls-3" points="1523.23 766.77 1530.98 766.77 1530.98 774.98 1540.11 774.98 1540.11 785.02 1549.23 785.02 1549.23 793.23 1523.23 793.23 1523.23 766.77"/><polygon class="cls-3" points="1347.23 547.77 1354.98 547.77 1354.98 555.98 1364.11 555.98 1364.11 566.02 1373.23 566.02 1373.23 574.23 1347.23 574.23 1347.23 547.77"/><polygon class="cls-3" points="1523.23 308.77 1530.98 308.77 1530.98 316.98 1540.11 316.98 1540.11 327.02 1549.23 327.02 1549.23 335.23 1523.23 335.23 1523.23 308.77"/><polygon class="cls-3" points="1409.23 406.77 1416.98 406.77 1416.98 414.98 1426.11 414.98 1426.11 425.02 1435.23 425.02 1435.23 433.23 1409.23 433.23 1409.23 406.77"/><polygon class="cls-3" points="846.23 566.77 853.98 566.77 853.98 574.98 863.11 574.98 863.11 585.02 872.23 585.02 872.23 593.23 846.23 593.23 846.23 566.77"/><polygon class="cls-3" points="1036.23 566.77 1043.98 566.77 1043.98 574.98 1053.11 574.98 1053.11 585.02 1062.23 585.02 1062.23 593.23 1036.23 593.23 1036.23 566.77"/><polygon class="cls-1" points="1033.19 870.19 800.19 870.19 869.19 934.19 1033.19 934.19 1033.19 870.19"/><polygon class="cls-1" points="1033.19 1038.19 800.19 1038.19 869.19 1102.19 1033.19 1102.19 1033.19 1038.19"/><polygon class="cls-1" points="1033.19 1168.19 869.19 1168.19 800.19 1228.19 1033.19 1228.19 1033.19 1168.19"/><polygon class="cls-1" points="1033.19 1001.19 869.19 1001.19 800.19 1061.19 1033.19 1061.19 1033.19 1001.19"/><rect class="cls-3" x="1046.52" y="1030.52" width="573" height="405.95" transform="translate(2566.52 -99.52) rotate(90)"/><line class="cls-10" x1="1256" y1="1357" x2="1287.5" y2="1388.5"/><line class="cls-10" x1="1287.5" y1="1357" x2="1256" y2="1388.5"/><circle class="cls-10" cx="1287" cy="1373" r="4"/><circle class="cls-10" cx="1272" cy="1357" r="4"/><circle class="cls-10" cx="1256" cy="1373" r="4"/><circle class="cls-10" cx="1272" cy="1389" r="4"/><line class="cls-10" x1="1445" y1="1197" x2="1476.5" y2="1228.5"/><line class="cls-10" x1="1476.5" y1="1197" x2="1445" y2="1228.5"/><circle class="cls-10" cx="1476" cy="1213" r="4"/><circle class="cls-10" cx="1461" cy="1197" r="4"/><circle class="cls-10" cx="1445" cy="1213" r="4"/><circle class="cls-10" cx="1461" cy="1229" r="4"/><line class="cls-10" x1="1227" y1="1058" x2="1258.5" y2="1089.5"/><line class="cls-10" x1="1258.5" y1="1058" x2="1227" y2="1089.5"/><circle class="cls-10" cx="1258" cy="1074" r="4"/><circle class="cls-10" cx="1243" cy="1058" r="4"/><circle class="cls-10" cx="1227" cy="1074" r="4"/><circle class="cls-10" cx="1243" cy="1090" r="4"/><rect class="cls-9" x="1210.88" y="1512" width="4.75" height="16" transform="translate(2733.25 306.75) rotate(90)"/><rect class="cls-9" x="1494.88" y="109" width="4.75" height="16" transform="translate(1614.25 -1380.25) rotate(90)"/><rect class="cls-3" x="697" y="1346" width="41" height="189"/><rect class="cls-3" x="671" y="1113" width="93" height="605" transform="translate(2133 698) rotate(90)"/><rect class="cls-9" x="579.87" y="1336" width="4.75" height="159" transform="translate(1164.5 2831) rotate(180)"/><rect class="cls-9" x="584.87" y="1336" width="4.75" height="159" transform="translate(1174.5 2831) rotate(180)"/><rect class="cls-9" x="589.87" y="1336" width="4.75" height="159" transform="translate(1184.5 2831) rotate(180)"/><rect class="cls-9" x="594.87" y="1336" width="4.75" height="159" transform="translate(1194.5 2831) rotate(180)"/><rect class="cls-9" x="599.87" y="1336" width="4.75" height="159" transform="translate(1204.5 2831) rotate(180)"/><rect class="cls-9" x="604.87" y="1336" width="4.75" height="159" transform="translate(1214.5 2831) rotate(180)"/><rect class="cls-9" x="609.87" y="1336" width="4.75" height="159" transform="translate(1224.5 2831) rotate(180)"/><rect class="cls-9" x="614.87" y="1336" width="4.75" height="159" transform="translate(1234.5 2831) rotate(180)"/><rect class="cls-9" x="619.87" y="1336" width="4.75" height="159" transform="translate(1244.5 2831) rotate(180)"/><rect class="cls-9" x="624.87" y="1336" width="4.75" height="159" transform="translate(1254.5 2831) rotate(180)"/><rect class="cls-9" x="629.87" y="1336" width="4.75" height="159" transform="translate(1264.5 2831) rotate(180)"/><rect class="cls-9" x="634.87" y="1336" width="4.75" height="159" transform="translate(1274.5 2831) rotate(180)"/><rect class="cls-9" x="639.87" y="1336" width="4.75" height="159" transform="translate(1284.5 2831) rotate(180)"/><rect class="cls-9" x="644.87" y="1336" width="4.75" height="159" transform="translate(1294.5 2831) rotate(180)"/><rect class="cls-9" x="509.87" y="1336" width="4.75" height="159" transform="translate(1024.5 2831) rotate(180)"/><rect class="cls-9" x="514.87" y="1336" width="4.75" height="159" transform="translate(1034.5 2831) rotate(180)"/><rect class="cls-9" x="519.87" y="1336" width="4.75" height="159" transform="translate(1044.5 2831) rotate(180)"/><rect class="cls-9" x="524.87" y="1336" width="4.75" height="159" transform="translate(1054.5 2831) rotate(180)"/><rect class="cls-9" x="529.87" y="1336" width="4.75" height="159" transform="translate(1064.5 2831) rotate(180)"/><rect class="cls-9" x="534.87" y="1336" width="4.75" height="159" transform="translate(1074.5 2831) rotate(180)"/><rect class="cls-9" x="539.87" y="1336" width="4.75" height="159" transform="translate(1084.5 2831) rotate(180)"/><rect class="cls-9" x="544.87" y="1336" width="4.75" height="159" transform="translate(1094.5 2831) rotate(180)"/><rect class="cls-9" x="549.87" y="1336" width="4.75" height="159" transform="translate(1104.5 2831) rotate(180)"/><rect class="cls-9" x="554.87" y="1336" width="4.75" height="159" transform="translate(1114.5 2831) rotate(180)"/><rect class="cls-9" x="559.87" y="1336" width="4.75" height="159" transform="translate(1124.5 2831) rotate(180)"/><rect class="cls-9" x="564.87" y="1336" width="4.75" height="159" transform="translate(1134.5 2831) rotate(180)"/><rect class="cls-9" x="569.87" y="1336" width="4.75" height="159" transform="translate(1144.5 2831) rotate(180)"/><rect class="cls-9" x="574.87" y="1336" width="4.75" height="159" transform="translate(1154.5 2831) rotate(180)"/><rect class="cls-9" x="719.87" y="1336" width="4.75" height="159" transform="translate(1444.5 2831) rotate(180)"/><rect class="cls-9" x="724.87" y="1336" width="4.75" height="159" transform="translate(1454.5 2831) rotate(180)"/><rect class="cls-9" x="729.87" y="1336" width="4.75" height="159" transform="translate(1464.5 2831) rotate(180)"/><rect class="cls-9" x="734.87" y="1336" width="4.75" height="159" transform="translate(1474.5 2831) rotate(180)"/><rect class="cls-9" x="739.87" y="1336" width="4.75" height="159" transform="translate(1484.5 2831) rotate(180)"/><rect class="cls-9" x="744.87" y="1336" width="4.75" height="159" transform="translate(1494.5 2831) rotate(180)"/><rect class="cls-9" x="749.87" y="1336" width="4.75" height="159" transform="translate(1504.5 2831) rotate(180)"/><rect class="cls-9" x="754.87" y="1336" width="4.75" height="159" transform="translate(1514.5 2831) rotate(180)"/><rect class="cls-9" x="759.87" y="1336" width="4.75" height="159" transform="translate(1524.5 2831) rotate(180)"/><rect class="cls-9" x="764.87" y="1336" width="4.75" height="159" transform="translate(1534.5 2831) rotate(180)"/><rect class="cls-9" x="769.87" y="1336" width="4.75" height="159" transform="translate(1544.5 2831) rotate(180)"/><rect class="cls-9" x="774.87" y="1336" width="4.75" height="159" transform="translate(1554.5 2831) rotate(180)"/><rect class="cls-9" x="779.87" y="1336" width="4.75" height="159" transform="translate(1564.5 2831) rotate(180)"/><rect class="cls-9" x="784.87" y="1336" width="4.75" height="159" transform="translate(1574.5 2831) rotate(180)"/><rect class="cls-9" x="649.87" y="1336" width="4.75" height="159" transform="translate(1304.5 2831) rotate(180)"/><rect class="cls-9" x="654.87" y="1336" width="4.75" height="159" transform="translate(1314.5 2831) rotate(180)"/><rect class="cls-9" x="659.87" y="1336" width="4.75" height="159" transform="translate(1324.5 2831) rotate(180)"/><rect class="cls-9" x="664.87" y="1336" width="4.75" height="159" transform="translate(1334.5 2831) rotate(180)"/><rect class="cls-9" x="669.87" y="1336" width="4.75" height="159" transform="translate(1344.5 2831) rotate(180)"/><rect class="cls-9" x="674.87" y="1336" width="4.75" height="159" transform="translate(1354.5 2831) rotate(180)"/><rect class="cls-9" x="679.87" y="1336" width="4.75" height="159" transform="translate(1364.5 2831) rotate(180)"/><rect class="cls-9" x="684.87" y="1336" width="4.75" height="159" transform="translate(1374.5 2831) rotate(180)"/><rect class="cls-9" x="689.87" y="1336" width="4.75" height="159" transform="translate(1384.5 2831) rotate(180)"/><rect class="cls-9" x="694.87" y="1336" width="4.75" height="159" transform="translate(1394.5 2831) rotate(180)"/><rect class="cls-9" x="699.87" y="1336" width="4.75" height="159" transform="translate(1404.5 2831) rotate(180)"/><rect class="cls-9" x="704.87" y="1336" width="4.75" height="159" transform="translate(1414.5 2831) rotate(180)"/><rect class="cls-9" x="709.87" y="1336" width="4.75" height="159" transform="translate(1424.5 2831) rotate(180)"/><rect class="cls-9" x="714.87" y="1336" width="4.75" height="159" transform="translate(1434.5 2831) rotate(180)"/><rect class="cls-9" x="859.87" y="1336" width="4.75" height="159" transform="translate(1724.5 2831) rotate(180)"/><rect class="cls-9" x="864.87" y="1336" width="4.75" height="159" transform="translate(1734.5 2831) rotate(180)"/><rect class="cls-9" x="869.87" y="1336" width="4.75" height="159" transform="translate(1744.5 2831) rotate(180)"/><rect class="cls-9" x="874.87" y="1336" width="4.75" height="159" transform="translate(1754.5 2831) rotate(180)"/><rect class="cls-9" x="879.87" y="1336" width="4.75" height="159" transform="translate(1764.5 2831) rotate(180)"/><rect class="cls-9" x="884.87" y="1336" width="4.75" height="159" transform="translate(1774.5 2831) rotate(180)"/><rect class="cls-9" x="889.87" y="1336" width="4.75" height="159" transform="translate(1784.5 2831) rotate(180)"/><rect class="cls-9" x="894.87" y="1336" width="4.75" height="159" transform="translate(1794.5 2831) rotate(180)"/><rect class="cls-9" x="899.87" y="1336" width="4.75" height="159" transform="translate(1804.5 2831) rotate(180)"/><rect class="cls-9" x="904.87" y="1336" width="4.75" height="159" transform="translate(1814.5 2831) rotate(180)"/><rect class="cls-9" x="909.87" y="1336" width="4.75" height="159" transform="translate(1824.5 2831) rotate(180)"/><rect class="cls-9" x="914.87" y="1336" width="4.75" height="159" transform="translate(1834.5 2831) rotate(180)"/><rect class="cls-9" x="919.87" y="1336" width="4.75" height="159" transform="translate(1844.5 2831) rotate(180)"/><rect class="cls-9" x="924.87" y="1336" width="4.75" height="159" transform="translate(1854.5 2831) rotate(180)"/><rect class="cls-9" x="789.87" y="1336" width="4.75" height="159" transform="translate(1584.5 2831) rotate(180)"/><rect class="cls-9" x="794.87" y="1336" width="4.75" height="159" transform="translate(1594.5 2831) rotate(180)"/><rect class="cls-9" x="799.87" y="1336" width="4.75" height="159" transform="translate(1604.5 2831) rotate(180)"/><rect class="cls-9" x="804.87" y="1336" width="4.75" height="159" transform="translate(1614.5 2831) rotate(180)"/><rect class="cls-9" x="809.87" y="1336" width="4.75" height="159" transform="translate(1624.5 2831) rotate(180)"/><rect class="cls-9" x="814.87" y="1336" width="4.75" height="159" transform="translate(1634.5 2831) rotate(180)"/><rect class="cls-9" x="819.87" y="1336" width="4.75" height="159" transform="translate(1644.5 2831) rotate(180)"/><rect class="cls-9" x="824.87" y="1336" width="4.75" height="159" transform="translate(1654.5 2831) rotate(180)"/><rect class="cls-9" x="829.87" y="1336" width="4.75" height="159" transform="translate(1664.5 2831) rotate(180)"/><rect class="cls-9" x="834.87" y="1336" width="4.75" height="159" transform="translate(1674.5 2831) rotate(180)"/><rect class="cls-9" x="839.87" y="1336" width="4.75" height="159" transform="translate(1684.5 2831) rotate(180)"/><rect class="cls-9" x="844.87" y="1336" width="4.75" height="159" transform="translate(1694.5 2831) rotate(180)"/><rect class="cls-9" x="849.87" y="1336" width="4.75" height="159" transform="translate(1704.5 2831) rotate(180)"/><rect class="cls-9" x="854.87" y="1336" width="4.75" height="159" transform="translate(1714.5 2831) rotate(180)"/><polygon class="cls-3" points="924 928 924 920.25 932.21 920.25 932.21 911.12 942.25 911.12 942.25 902 950.46 902 950.46 928 924 928"/><polygon class="cls-3" points="924 1096 924 1088.25 932.21 1088.25 932.21 1079.12 942.25 1079.12 942.25 1070 950.46 1070 950.46 1096 924 1096"/><polygon class="cls-3" points="780.25 1303.38 788 1303.38 788 1311.59 797.13 1311.59 797.13 1321.62 806.25 1321.62 806.25 1329.83 780.25 1329.83 780.25 1303.38"/><rect class="cls-9" x="1017.81" y="1407.44" width="4.75" height="16" transform="translate(2040.38 2830.88) rotate(180)"/><rect class="cls-9" x="412.81" y="1407.44" width="4.75" height="16" transform="translate(830.38 2830.88) rotate(180)"/><rect class="cls-9" x="713.81" y="1527.44" width="4.75" height="16" transform="translate(-819.25 2251.63) rotate(-90)"/><text class="cls-11" transform="translate(120.71 1491.17)">Start</text><text class="cls-11" transform="translate(1458.71 103.17)">Finish</text><circle class="cls-6" cx="156.91" cy="1426" r="2.57"/><ellipse class="cls-6" cx="156.91" cy="1435.86" rx="3" ry="5.57"/><path class="cls-6" d="M164.62,1438.43c0-3.08-1.34-5.57-3-5.57s.86,2.49.86,5.57-2.51,5.57-.86,5.57S164.62,1441.51,164.62,1438.43Z"/><path class="cls-6" d="M149.06,1438.43c0,3.08,1.34,5.57,3,5.57s-.86-2.49-.86-5.57,2.52-5.57.86-5.57S149.06,1435.35,149.06,1438.43Z"/><polygon class="cls-6" points="159.91 1424.29 159.91 1422.14 164.19 1420.43 162.05 1424.29 159.91 1424.29"/><polygon class="cls-6" points="153.91 1424.29 151.77 1424.29 150.05 1420 153.91 1422.14 153.91 1424.29"/><circle class="cls-6" cx="207.91" cy="943" r="2.57"/><ellipse class="cls-6" cx="207.91" cy="952.86" rx="3" ry="5.57"/><path class="cls-6" d="M215.62,955.43c0-3.08-1.34-5.57-3-5.57s.86,2.49.86,5.57S211,961,212.62,961,215.62,958.51,215.62,955.43Z"/><path class="cls-6" d="M200.06,955.43c0,3.08,1.34,5.57,3,5.57s-.86-2.49-.86-5.57,2.52-5.57.86-5.57S200.06,952.35,200.06,955.43Z"/><polygon class="cls-6" points="210.91 941.29 210.91 939.14 215.19 937.43 213.05 941.29 210.91 941.29"/><polygon class="cls-6" points="204.91 941.29 202.77 941.29 201.05 937 204.91 939.14 204.91 941.29"/><circle class="cls-6" cx="220.91" cy="464" r="2.57"/><ellipse class="cls-6" cx="220.91" cy="473.86" rx="3" ry="5.57"/><path class="cls-6" d="M228.62,476.43c0-3.08-1.34-5.57-3-5.57s.86,2.49.86,5.57S224,482,225.62,482,228.62,479.51,228.62,476.43Z"/><path class="cls-6" d="M213.06,476.43c0,3.08,1.34,5.57,3,5.57s-.86-2.49-.86-5.57,2.52-5.57.86-5.57S213.06,473.35,213.06,476.43Z"/><polygon class="cls-6" points="223.91 462.29 223.91 460.14 228.19 458.43 226.05 462.29 223.91 462.29"/><polygon class="cls-6" points="217.91 462.29 215.77 462.29 214.05 458 217.91 460.14 217.91 462.29"/><circle class="cls-6" cx="463.91" cy="655" r="2.57"/><ellipse class="cls-6" cx="463.91" cy="664.86" rx="3" ry="5.57"/><path class="cls-6" d="M471.62,667.43c0-3.08-1.34-5.57-3-5.57s.86,2.49.86,5.57S467,673,468.62,673,471.62,670.51,471.62,667.43Z"/><path class="cls-6" d="M456.06,667.43c0,3.08,1.34,5.57,3,5.57s-.86-2.49-.86-5.57,2.52-5.57.86-5.57S456.06,664.35,456.06,667.43Z"/><polygon class="cls-6" points="466.91 653.29 466.91 651.14 471.19 649.43 469.05 653.29 466.91 653.29"/><polygon class="cls-6" points="460.91 653.29 458.77 653.29 457.05 649 460.91 651.14 460.91 653.29"/><circle class="cls-6" cx="647.91" cy="1129" r="2.57"/><ellipse class="cls-6" cx="647.91" cy="1138.86" rx="3" ry="5.57"/><path class="cls-6" d="M655.62,1141.43c0-3.08-1.34-5.57-3-5.57s.86,2.49.86,5.57-2.51,5.57-.86,5.57S655.62,1144.51,655.62,1141.43Z"/><path class="cls-6" d="M640.06,1141.43c0,3.08,1.34,5.57,3,5.57s-.86-2.49-.86-5.57,2.52-5.57.86-5.57S640.06,1138.35,640.06,1141.43Z"/><polygon class="cls-6" points="650.91 1127.29 650.91 1125.14 655.2 1123.43 653.05 1127.29 650.91 1127.29"/><polygon class="cls-6" points="644.91 1127.29 642.77 1127.29 641.05 1123 644.91 1125.14 644.91 1127.29"/><circle class="cls-6" cx="745.91" cy="1054" r="2.57"/><ellipse class="cls-6" cx="745.91" cy="1063.86" rx="3" ry="5.57"/><path class="cls-6" d="M753.62,1066.43c0-3.08-1.34-5.57-3-5.57s.86,2.49.86,5.57-2.51,5.57-.86,5.57S753.62,1069.51,753.62,1066.43Z"/><path class="cls-6" d="M738.06,1066.43c0,3.08,1.34,5.57,3,5.57s-.86-2.49-.86-5.57,2.52-5.57.86-5.57S738.06,1063.35,738.06,1066.43Z"/><polygon class="cls-6" points="748.91 1052.29 748.91 1050.14 753.2 1048.43 751.05 1052.29 748.91 1052.29"/><polygon class="cls-6" points="742.91 1052.29 740.77 1052.29 739.05 1048 742.91 1050.14 742.91 1052.29"/><circle class="cls-6" cx="671.91" cy="382" r="2.57"/><ellipse class="cls-6" cx="671.91" cy="391.86" rx="3" ry="5.57"/><path class="cls-6" d="M679.62,394.43c0-3.08-1.34-5.57-3-5.57s.86,2.49.86,5.57S675,400,676.62,400,679.62,397.51,679.62,394.43Z"/><path class="cls-6" d="M664.06,394.43c0,3.08,1.34,5.57,3,5.57s-.86-2.49-.86-5.57,2.52-5.57.86-5.57S664.06,391.35,664.06,394.43Z"/><polygon class="cls-6" points="674.91 380.29 674.91 378.14 679.2 376.43 677.05 380.29 674.91 380.29"/><polygon class="cls-6" points="668.91 380.29 666.77 380.29 665.05 376 668.91 378.14 668.91 380.29"/><circle class="cls-6" cx="941.91" cy="1409" r="2.57"/><ellipse class="cls-6" cx="941.91" cy="1418.86" rx="3" ry="5.57"/><path class="cls-6" d="M949.62,1421.43c0-3.08-1.34-5.57-3-5.57s.86,2.49.86,5.57-2.51,5.57-.86,5.57S949.62,1424.51,949.62,1421.43Z"/><path class="cls-6" d="M934.06,1421.43c0,3.08,1.34,5.57,3,5.57s-.86-2.49-.86-5.57,2.52-5.57.86-5.57S934.06,1418.35,934.06,1421.43Z"/><polygon class="cls-6" points="944.91 1407.29 944.91 1405.14 949.2 1403.43 947.05 1407.29 944.91 1407.29"/><polygon class="cls-6" points="938.91 1407.29 936.77 1407.29 935.05 1403 938.91 1405.14 938.91 1407.29"/><circle class="cls-6" cx="898.91" cy="121" r="2.57"/><ellipse class="cls-6" cx="898.91" cy="130.86" rx="3" ry="5.57"/><path class="cls-6" d="M906.62,133.43c0-3.08-1.34-5.57-3-5.57s.86,2.49.86,5.57S902,139,903.62,139,906.62,136.51,906.62,133.43Z"/><path class="cls-6" d="M891.06,133.43c0,3.08,1.34,5.57,3,5.57s-.86-2.49-.86-5.57,2.52-5.57.86-5.57S891.06,130.35,891.06,133.43Z"/><polygon class="cls-6" points="901.91 119.29 901.91 117.14 906.2 115.43 904.05 119.29 901.91 119.29"/><polygon class="cls-6" points="895.91 119.29 893.77 119.29 892.05 115 895.91 117.14 895.91 119.29"/><circle class="cls-6" cx="1301.91" cy="245" r="2.57"/><ellipse class="cls-6" cx="1301.91" cy="254.86" rx="3" ry="5.57"/><path class="cls-6" d="M1309.62,257.43c0-3.08-1.34-5.57-3-5.57s.86,2.49.86,5.57-2.51,5.57-.86,5.57S1309.62,260.51,1309.62,257.43Z"/><path class="cls-6" d="M1294.06,257.43c0,3.08,1.34,5.57,3,5.57s-.86-2.49-.86-5.57,2.52-5.57.86-5.57S1294.06,254.35,1294.06,257.43Z"/><polygon class="cls-6" points="1304.91 243.29 1304.91 241.14 1309.19 239.43 1307.05 243.29 1304.91 243.29"/><polygon class="cls-6" points="1298.91 243.29 1296.77 243.29 1295.05 239 1298.91 241.14 1298.91 243.29"/><circle class="cls-6" cx="1213.91" cy="1476" r="2.57"/><ellipse class="cls-6" cx="1213.91" cy="1485.86" rx="3" ry="5.57"/><path class="cls-6" d="M1221.62,1488.43c0-3.08-1.34-5.57-3-5.57s.86,2.49.86,5.57-2.51,5.57-.86,5.57S1221.62,1491.51,1221.62,1488.43Z"/><path class="cls-6" d="M1206.06,1488.43c0,3.08,1.34,5.57,3,5.57s-.86-2.49-.86-5.57,2.52-5.57.86-5.57S1206.06,1485.35,1206.06,1488.43Z"/><polygon class="cls-6" points="1216.91 1474.29 1216.91 1472.14 1221.19 1470.43 1219.05 1474.29 1216.91 1474.29"/><polygon class="cls-6" points="1210.91 1474.29 1208.77 1474.29 1207.05 1470 1210.91 1472.14 1210.91 1474.29"/><line class="cls-10" x1="823" y1="1393" x2="854.5" y2="1424.5"/><line class="cls-10" x1="854.5" y1="1393" x2="823" y2="1424.5"/><circle class="cls-10" cx="854" cy="1409" r="4"/><circle class="cls-10" cx="839" cy="1393" r="4"/><circle class="cls-10" cx="823" cy="1409" r="4"/><circle class="cls-10" cx="839" cy="1425" r="4"/><line class="cls-10" x1="584" y1="1393" x2="615.5" y2="1424.5"/><line class="cls-10" x1="615.5" y1="1393" x2="584" y2="1424.5"/><circle class="cls-10" cx="615" cy="1409" r="4"/><circle class="cls-10" cx="600" cy="1393" r="4"/><circle class="cls-10" cx="584" cy="1409" r="4"/><circle class="cls-10" cx="600" cy="1425" r="4"/><text class="cls-12" transform="translate(352.88 717.26)">Complete each room<tspan x="0" y="26.21">to get to artifact</tspan></text><text class="cls-12" transform="translate(1115.88 1548.26)">Upon leaving artifact room, enter here</text><polyline class="cls-13" points="1465 934 1465 683 1288 683 1288 440 1465 440 1465 145.03"/><path class="cls-3" d="M1465,139a30.1,30.1,0,0,0,4.76,8.55l-4.76-1.72-4.75,1.72A30.31,30.31,0,0,0,1465,139Z"/><text class="cls-14" transform="translate(1461.71 909.93) rotate(-90)">Down further into subconscious</text><polygon class="cls-8" points="613 995 605.18 995 600.5 1001.5 595.6 995 588 995 588 1002.77 581 1007.5 588 1012 588 1020 594.86 1020 600.5 1026.5 605.42 1020 613 1020 613 1011.98 606.5 1007.5 613 1003 613 995"/><polygon class="cls-8" points="811 1121 803.18 1121 798.5 1127.5 793.6 1121 786 1121 786 1128.77 779 1133.5 786 1138 786 1146 792.86 1146 798.5 1152.5 803.42 1146 811 1146 811 1137.97 804.5 1133.5 811 1129 811 1121"/><polygon class="cls-8" points="1248 840 1240.18 840 1235.5 846.5 1230.6 840 1223 840 1223 847.77 1216 852.5 1223 857 1223 865 1229.86 865 1235.5 871.5 1240.42 865 1248 865 1248 856.98 1241.5 852.5 1248 848 1248 840"/><polygon class="cls-8" points="1429 1030 1421.18 1030 1416.5 1036.5 1411.6 1030 1404 1030 1404 1037.77 1397 1042.5 1404 1047 1404 1055 1410.86 1055 1416.5 1061.5 1421.42 1055 1429 1055 1429 1046.97 1422.5 1042.5 1429 1038 1429 1030"/><polygon class="cls-8" points="1213 1203 1205.18 1203 1200.5 1209.5 1195.6 1203 1188 1203 1188 1210.77 1181 1215.5 1188 1220 1188 1228 1194.86 1228 1200.5 1234.5 1205.42 1228 1213 1228 1213 1219.97 1206.5 1215.5 1213 1211 1213 1203"/><polygon class="cls-8" points="1454 1403 1446.18 1403 1441.5 1409.5 1436.6 1403 1429 1403 1429 1410.77 1422 1415.5 1429 1420 1429 1428 1435.86 1428 1441.5 1434.5 1446.42 1428 1454 1428 1454 1419.97 1447.5 1415.5 1454 1411 1454 1403"/><polygon class="cls-8" points="476 1400 468.18 1400 463.5 1406.5 458.6 1400 451 1400 451 1407.77 444 1412.5 451 1417 451 1425 457.86 1425 463.5 1431.5 468.42 1425 476 1425 476 1416.97 469.5 1412.5 476 1408 476 1400"/><polygon class="cls-8" points="996 1400 988.18 1400 983.5 1406.5 978.6 1400 971 1400 971 1407.77 964 1412.5 971 1417 971 1425 977.86 1425 983.5 1431.5 988.42 1425 996 1425 996 1416.97 989.5 1412.5 996 1408 996 1400"/><polygon class="cls-8" points="789 274 781.18 274 776.5 280.5 771.6 274 764 274 764 281.77 757 286.5 764 291 764 299 770.86 299 776.5 305.5 781.42 299 789 299 789 290.98 782.5 286.5 789 282 789 274"/><polygon class="cls-8" points="281 422 273.18 422 268.5 428.5 263.6 422 256 422 256 429.77 249 434.5 256 439 256 447 262.86 447 268.5 453.5 273.42 447 281 447 281 438.98 274.5 434.5 281 430 281 422"/><polygon class="cls-8" points="151 644 143.18 644 138.5 650.5 133.6 644 126 644 126 651.77 119 656.5 126 661 126 669 132.86 669 138.5 675.5 143.42 669 151 669 151 660.98 144.5 656.5 151 652 151 644"/></g></svg>