<svg xmlns="http://www.w3.org/2000/svg" viewBox="0 0 1584 1584"><defs><style>.cls-1{fill:#242b35;}.cls-2{font-size:39.02px;}.cls-10,.cls-11,.cls-2,.cls-3{fill:#fff;}.cls-11,.cls-2,.cls-7{font-family:Comfortaa-Regular, Comfortaa;}.cls-4{fill:#00ffa3;}.cls-12,.cls-5{fill:none;}.cls-10,.cls-5{stroke:#890000;}.cls-10,.cls-12,.cls-5,.cls-9{stroke-miterlimit:10;}.cls-5{stroke-width:7px;}.cls-6{fill:#00f3ff;}.cls-7{font-size:18.31px;}.cls-7,.cls-9{fill:#333;}.cls-8{fill:#b400ff;}.cls-12,.cls-9{stroke:#fff;}.cls-10,.cls-9{stroke-width:2px;}.cls-11{font-size:26.45px;}</style></defs><title>Artboard 3</title><g id="Layer_2" data-name="Layer 2"><rect class="cls-1" x="0.5" y="0.5" width="1583" height="1584"/><text class="cls-2" transform="translate(24.12 52.78)">World: Abaddon<tspan x="0" y="46.83">Level: Underwater Cathedral / Crypt</tspan></text><rect class="cls-3" x="57" y="139" width="449" height="186"/><polygon class="cls-4" points="206.54 189.2 179.28 241.46 206.54 271 224.72 252.82 206.54 189.2"/><line class="cls-5" x1="276.76" y1="197.9" x2="331.1" y2="252.24"/><line class="cls-5" x1="331.1" y1="197.9" x2="276.76" y2="252.24"/><circle class="cls-5" cx="330.24" cy="225.5" r="6.9"/><circle class="cls-5" cx="304.36" cy="197.9" r="6.9"/><circle class="cls-5" cx="276.76" cy="225.5" r="6.9"/><circle class="cls-5" cx="304.36" cy="253.1" r="6.9"/><circle class="cls-6" cx="117.03" cy="207" r="7.29"/><ellipse class="cls-6" cx="117.03" cy="234.93" rx="8.5" ry="15.79"/><path class="cls-6" d="M138.89,242.21c0-8.71-3.8-15.78-8.5-15.78s2.43,7.07,2.43,15.78S125.7,258,130.39,258,138.89,250.93,138.89,242.21Z"/><path class="cls-6" d="M94.79,242.21c0,8.72,3.81,15.79,8.5,15.79s-2.43-7.07-2.43-15.79,7.12-15.78,2.43-15.78S94.79,233.5,94.79,242.21Z"/><polygon class="cls-6" points="125.53 202.14 125.53 196.07 137.68 191.21 131.61 202.14 125.53 202.14"/><polygon class="cls-6" points="108.53 202.14 102.46 202.14 97.61 190 108.53 196.07 108.53 202.14"/><text class="cls-7" transform="translate(79.59 160.74)">Dreamer</text><text class="cls-7" transform="translate(169.59 302.74)">Artifact</text><text class="cls-7" transform="translate(395.59 302.74)">Puzzle</text><text class="cls-7" transform="translate(247.59 165.74)">Enemy Spawn</text><polygon class="cls-8" points="466.43 187 445.19 187 432.5 204.64 419.2 187 398.57 187 398.57 208.09 379.57 220.93 398.57 233.14 398.57 254.86 417.2 254.86 432.5 272.5 445.86 254.86 466.43 254.86 466.43 233.07 448.79 220.93 466.43 208.71 466.43 187"/></g><g id="Layer_1" data-name="Layer 1"><rect class="cls-3" x="1279" y="1153" width="230" height="318"/><rect class="cls-3" x="1374" y="1469" width="41" height="79"/><rect class="cls-9" x="1391.5" y="1542" width="4.75" height="16" transform="translate(2943.88 156.13) rotate(90)"/><rect class="cls-1" x="1473" y="1117" width="72" height="72"/><rect class="cls-1" x="1241" y="1117" width="72" height="72"/><polygon class="cls-3" points="1019.7 821 974.53 821 942.59 852.94 942.59 898.11 974.53 930.04 1019.7 930.04 1051.63 898.11 1051.63 852.94 1019.7 821"/><polygon class="cls-3" points="1317 532 1460.39 532 1561.78 430.61 1561.78 287.22 1460.39 185.83 1317 185.83 1215.61 287.22 1215.61 430.61 1317 532"/><rect class="cls-3" x="208" y="1050" width="151" height="151"/><rect class="cls-3" x="753" y="1000" width="213" height="124"/><rect class="cls-1" x="323" y="1014" width="72" height="72"/><rect class="cls-1" x="323" y="1165" width="72" height="72"/><rect class="cls-1" x="172" y="1165" width="72" height="72"/><rect class="cls-1" x="172" y="1014" width="72" height="72"/><rect class="cls-9" x="356.88" y="1118" width="4.75" height="16"/><rect class="cls-9" x="205.88" y="1118" width="4.75" height="16"/><rect class="cls-9" x="280.88" y="1193" width="4.75" height="16" transform="translate(1484.25 917.75) rotate(90)"/><rect class="cls-9" x="280.88" y="1042" width="4.75" height="16" transform="translate(1333.25 766.75) rotate(90)"/><rect class="cls-3" x="849" y="188" width="139" height="143"/><rect class="cls-3" x="707" y="213" width="143" height="93"/><rect class="cls-3" x="1279.39" y="53" width="230" height="623" transform="translate(2788.78 729) rotate(180)"/><path class="cls-3" d="M84,541H628.5A81.5,81.5,0,0,1,710,622.5v0A81.5,81.5,0,0,1,628.5,704H84a0,0,0,0,1,0,0V541a0,0,0,0,1,0,0Z"/><rect class="cls-3" x="988" y="188" width="94" height="143"/><path class="cls-3" d="M1082,213h47.5a46.5,46.5,0,0,1,46.5,46.5v0a46.5,46.5,0,0,1-46.5,46.5H1082a0,0,0,0,1,0,0V213A0,0,0,0,1,1082,213Z"/><path class="cls-3" d="M848.5,95.5H896A46.5,46.5,0,0,1,942.5,142v0A46.5,46.5,0,0,1,896,188.5H848.5a0,0,0,0,1,0,0v-93A0,0,0,0,1,848.5,95.5Z" transform="translate(753.5 1037.5) rotate(-90)"/><path class="cls-3" d="M848.5,331.5H896A46.5,46.5,0,0,1,942.5,378v0A46.5,46.5,0,0,1,896,424.5H848.5a0,0,0,0,1,0,0v-93A0,0,0,0,1,848.5,331.5Z" transform="translate(1273.5 -517.5) rotate(90)"/><rect class="cls-9" x="1052.88" y="190" width="4.75" height="139"/><rect class="cls-9" x="1047.88" y="190" width="4.75" height="139"/><rect class="cls-9" x="1042.88" y="190" width="4.75" height="139"/><rect class="cls-9" x="1037.88" y="190" width="4.75" height="139"/><rect class="cls-9" x="1032.88" y="190" width="4.75" height="139"/><rect class="cls-9" x="1027.88" y="190" width="4.75" height="139"/><rect class="cls-9" x="1022.88" y="190" width="4.75" height="139"/><rect class="cls-9" x="1017.88" y="190" width="4.75" height="139"/><rect class="cls-9" x="1012.88" y="190" width="4.75" height="139"/><rect class="cls-9" x="1007.88" y="190" width="4.75" height="139"/><rect class="cls-9" x="1002.88" y="190" width="4.75" height="139"/><rect class="cls-9" x="997.88" y="190" width="4.75" height="139"/><rect class="cls-9" x="992.88" y="190" width="4.75" height="139"/><rect class="cls-9" x="987.88" y="190" width="4.75" height="139"/><rect class="cls-9" x="621.88" y="543" width="4.75" height="159"/><rect class="cls-9" x="616.88" y="543" width="4.75" height="159"/><rect class="cls-9" x="611.88" y="543" width="4.75" height="159"/><rect class="cls-9" x="606.88" y="543" width="4.75" height="159"/><rect class="cls-9" x="601.88" y="543" width="4.75" height="159"/><rect class="cls-9" x="596.88" y="543" width="4.75" height="159"/><rect class="cls-9" x="591.88" y="543" width="4.75" height="159"/><rect class="cls-9" x="586.88" y="543" width="4.75" height="159"/><rect class="cls-9" x="581.88" y="543" width="4.75" height="159"/><rect class="cls-9" x="576.88" y="543" width="4.75" height="159"/><rect class="cls-9" x="571.88" y="543" width="4.75" height="159"/><rect class="cls-9" x="566.88" y="543" width="4.75" height="159"/><rect class="cls-9" x="561.88" y="543" width="4.75" height="159"/><rect class="cls-9" x="556.88" y="543" width="4.75" height="159"/><rect class="cls-9" x="891.88" y="1048" width="4.75" height="25"/><rect class="cls-9" x="886.88" y="1048" width="4.75" height="25"/><rect class="cls-9" x="881.88" y="1048" width="4.75" height="25"/><rect class="cls-9" x="876.88" y="1048" width="4.75" height="25"/><rect class="cls-9" x="871.88" y="1048" width="4.75" height="25"/><rect class="cls-9" x="866.88" y="1048" width="4.75" height="25"/><rect class="cls-9" x="861.88" y="1048" width="4.75" height="25"/><rect class="cls-9" x="856.88" y="1048" width="4.75" height="25"/><rect class="cls-9" x="851.88" y="1048" width="4.75" height="25"/><rect class="cls-9" x="846.88" y="1048" width="4.75" height="25"/><rect class="cls-9" x="841.88" y="1048" width="4.75" height="25"/><rect class="cls-9" x="836.88" y="1048" width="4.75" height="25"/><rect class="cls-9" x="831.88" y="1048" width="4.75" height="25"/><rect class="cls-9" x="826.88" y="1048" width="4.75" height="25"/><rect class="cls-9" x="893.38" y="102.75" width="4.75" height="86.5" transform="translate(749.75 1041.75) rotate(-90)"/><rect class="cls-9" x="893.38" y="107.75" width="4.75" height="86.5" transform="translate(744.75 1046.75) rotate(-90)"/><rect class="cls-9" x="893.38" y="112.75" width="4.75" height="86.5" transform="translate(739.75 1051.75) rotate(-90)"/><rect class="cls-9" x="893.38" y="117.75" width="4.75" height="86.5" transform="translate(734.75 1056.75) rotate(-90)"/><rect class="cls-9" x="893.38" y="122.75" width="4.75" height="86.5" transform="translate(729.75 1061.75) rotate(-90)"/><rect class="cls-9" x="893.38" y="127.75" width="4.75" height="86.5" transform="translate(724.75 1066.75) rotate(-90)"/><rect class="cls-9" x="893.38" y="132.75" width="4.75" height="86.5" transform="translate(719.75 1071.75) rotate(-90)"/><rect class="cls-9" x="893.38" y="137.75" width="4.75" height="86.5" transform="translate(714.75 1076.75) rotate(-90)"/><rect class="cls-9" x="893.38" y="142.75" width="4.75" height="86.5" transform="translate(709.75 1081.75) rotate(-90)"/><rect class="cls-9" x="893.38" y="289.75" width="4.75" height="86.5" transform="translate(562.75 1228.75) rotate(-90)"/><rect class="cls-9" x="893.38" y="294.75" width="4.75" height="86.5" transform="translate(557.75 1233.75) rotate(-90)"/><rect class="cls-9" x="893.38" y="299.75" width="4.75" height="86.5" transform="translate(552.75 1238.75) rotate(-90)"/><rect class="cls-9" x="893.38" y="304.75" width="4.75" height="86.5" transform="translate(547.75 1243.75) rotate(-90)"/><rect class="cls-9" x="893.38" y="309.75" width="4.75" height="86.5" transform="translate(542.75 1248.75) rotate(-90)"/><rect class="cls-9" x="893.38" y="314.75" width="4.75" height="86.5" transform="translate(537.75 1253.75) rotate(-90)"/><rect class="cls-9" x="893.38" y="319.75" width="4.75" height="86.5" transform="translate(532.75 1258.75) rotate(-90)"/><rect class="cls-9" x="893.38" y="324.75" width="4.75" height="86.5" transform="translate(527.75 1263.75) rotate(-90)"/><rect class="cls-9" x="893.38" y="329.75" width="4.75" height="86.5" transform="translate(522.75 1268.75) rotate(-90)"/><polygon class="cls-4" points="1000 857 988 880 1000 893 1008 885 1000 857"/><line class="cls-10" x1="879" y1="243" x2="910.5" y2="274.5"/><line class="cls-10" x1="910.5" y1="243" x2="879" y2="274.5"/><circle class="cls-10" cx="910" cy="259" r="4"/><circle class="cls-10" cx="895" cy="243" r="4"/><circle class="cls-10" cx="879" cy="259" r="4"/><circle class="cls-10" cx="895" cy="275" r="4"/><line class="cls-10" x1="1429" y1="552" x2="1460.5" y2="583.5"/><line class="cls-10" x1="1460.5" y1="552" x2="1429" y2="583.5"/><circle class="cls-10" cx="1460" cy="568" r="4"/><circle class="cls-10" cx="1445" cy="552" r="4"/><circle class="cls-10" cx="1429" cy="568" r="4"/><circle class="cls-10" cx="1445" cy="584" r="4"/><line class="cls-10" x1="1434" y1="128" x2="1465.5" y2="159.5"/><line class="cls-10" x1="1465.5" y1="128" x2="1434" y2="159.5"/><circle class="cls-10" cx="1465" cy="144" r="4"/><circle class="cls-10" cx="1450" cy="128" r="4"/><circle class="cls-10" cx="1434" cy="144" r="4"/><circle class="cls-10" cx="1450" cy="160" r="4"/><line class="cls-10" x1="1302" y1="313" x2="1333.5" y2="344.5"/><line class="cls-10" x1="1333.5" y1="313" x2="1302" y2="344.5"/><circle class="cls-10" cx="1333" cy="329" r="4"/><circle class="cls-10" cx="1318" cy="313" r="4"/><circle class="cls-10" cx="1302" cy="329" r="4"/><circle class="cls-10" cx="1318" cy="345" r="4"/><line class="cls-10" x1="1106" y1="243" x2="1137.5" y2="274.5"/><line class="cls-10" x1="1137.5" y1="243" x2="1106" y2="274.5"/><circle class="cls-10" cx="1137" cy="259" r="4"/><circle class="cls-10" cx="1122" cy="243" r="4"/><circle class="cls-10" cx="1106" cy="259" r="4"/><circle class="cls-10" cx="1122" cy="275" r="4"/><polygon class="cls-3" points="794.44 154.58 802.19 154.58 802.19 162.79 811.31 162.79 811.31 172.83 820.44 172.83 820.44 181.04 794.44 181.04 794.44 154.58"/><polygon class="cls-3" points="847.21 987.81 847.21 980.06 855.42 980.06 855.42 970.93 865.45 970.93 865.45 961.81 873.66 961.81 873.66 987.81 847.21 987.81"/><polygon class="cls-3" points="259.21 1264.81 259.21 1257.06 267.42 1257.06 267.42 1247.93 277.45 1247.93 277.45 1238.81 285.67 1238.81 285.67 1264.81 259.21 1264.81"/><text class="cls-11" transform="translate(65.03 652.14) rotate(-90)">Start</text><text class="cls-11" transform="translate(1335.71 707.17)">Huge spiral<tspan x="0" y="31.74">Staircase</tspan></text><text class="cls-11" transform="translate(1384.71 787.17)">Finish</text><polygon class="cls-8" points="911 107 903.18 107 898.5 113.5 893.6 107 886 107 886 114.77 879 119.5 886 124 886 132 892.86 132 898.5 138.5 903.42 132 911 132 911 123.97 904.5 119.5 911 115 911 107"/><polygon class="cls-8" points="1372 108 1364.18 108 1359.5 114.5 1354.6 108 1347 108 1347 115.77 1340 120.5 1347 125 1347 133 1353.86 133 1359.5 139.5 1364.42 133 1372 133 1372 124.97 1365.5 120.5 1372 116 1372 108"/><polygon class="cls-8" points="1363 552 1355.18 552 1350.5 558.5 1345.6 552 1338 552 1338 559.77 1331 564.5 1338 569 1338 577 1344.86 577 1350.5 583.5 1355.42 577 1363 577 1363 568.98 1356.5 564.5 1363 560 1363 552"/><polygon class="cls-8" points="1466 370 1458.18 370 1453.5 376.5 1448.6 370 1441 370 1441 377.77 1434 382.5 1441 387 1441 395 1447.86 395 1453.5 401.5 1458.42 395 1466 395 1466 386.98 1459.5 382.5 1466 378 1466 370"/><polygon class="cls-8" points="911 386 903.18 386 898.5 392.5 893.6 386 886 386 886 393.77 879 398.5 886 403 886 411 892.86 411 898.5 417.5 903.42 411 911 411 911 402.98 904.5 398.5 911 394 911 386"/><path class="cls-3" d="M1160.33,244h15.83a15.5,15.5,0,0,1,15.5,15.5v0a15.5,15.5,0,0,1-15.5,15.5h-15.83a0,0,0,0,1,0,0V244A0,0,0,0,1,1160.33,244Z"/><rect class="cls-9" x="1187.88" y="251" width="4.75" height="16"/><rect class="cls-9" x="703.88" y="251" width="4.75" height="16"/><rect class="cls-9" x="750.88" y="1053" width="4.75" height="16"/><rect class="cls-9" x="963.88" y="1053" width="4.75" height="16"/><rect class="cls-9" x="707.88" y="615" width="4.75" height="16"/><rect class="cls-9" x="893.88" y="1053" width="4.75" height="16"/><path class="cls-3" d="M1145.62,211.69h15.83a15.5,15.5,0,0,1,15.5,15.5v0a15.5,15.5,0,0,1-15.5,15.5h-15.83a0,0,0,0,1,0,0v-31A0,0,0,0,1,1145.62,211.69Z" transform="translate(179.48 887.7) rotate(-45)"/><rect class="cls-9" x="1168.34" y="209.06" width="4.75" height="16" transform="translate(189.41 891.4) rotate(-45)"/><path class="cls-3" d="M1145.62,276.31h15.83a15.5,15.5,0,0,1,15.5,15.5v0a15.5,15.5,0,0,1-15.5,15.5h-15.83a0,0,0,0,1,0,0v-31A0,0,0,0,1,1145.62,276.31Z" transform="translate(546.47 -735.69) rotate(45)"/><rect class="cls-9" x="1169.05" y="293.24" width="4.75" height="16" transform="translate(556.11 -740.09) rotate(45)"/><line class="cls-12" x1="800.04" y1="136.56" x2="829.83" y2="167.23"/><path class="cls-3" d="M834,171.56a30.33,30.33,0,0,0-9.37-2.81l4.61-2.08,2.21-4.55A30.41,30.41,0,0,0,834,171.56Z"/><polygon class="cls-3" points="794.44 353.58 802.19 353.58 802.19 361.79 811.31 361.79 811.31 371.83 820.44 371.83 820.44 380.04 794.44 380.04 794.44 353.58"/><polygon class="cls-3" points="579.02 527.6 579.02 519.85 587.23 519.85 587.23 510.73 597.27 510.73 597.27 501.6 605.48 501.6 605.48 527.6 579.02 527.6"/><polygon class="cls-3" points="1010.02 176.6 1010.02 168.85 1018.23 168.85 1018.23 159.72 1028.27 159.72 1028.27 150.6 1036.48 150.6 1036.48 176.6 1010.02 176.6"/><line class="cls-12" x1="800.04" y1="335.56" x2="829.83" y2="366.23"/><path class="cls-3" d="M834,370.56a30.33,30.33,0,0,0-9.37-2.81l4.61-2.08,2.21-4.55A30.41,30.41,0,0,0,834,370.56Z"/><polygon class="cls-3" points="1105.92 1510.34 1113.67 1510.34 1113.67 1518.55 1122.8 1518.55 1122.8 1528.58 1131.92 1528.58 1131.92 1536.79 1105.92 1536.79 1105.92 1510.34"/><line class="cls-12" x1="1111.52" y1="1492.31" x2="1141.32" y2="1522.99"/><path class="cls-3" d="M1145.52,1527.31a30.27,30.27,0,0,0-9.36-2.81l4.61-2.08,2.21-4.55A30.12,30.12,0,0,0,1145.52,1527.31Z"/><line class="cls-12" x1="1172.39" y1="1154.67" x2="1171.77" y2="1197.42"/><path class="cls-3" d="M1171.69,1203.46a30.18,30.18,0,0,0-4.64-8.62l4.73,1.79,4.78-1.65A30.21,30.21,0,0,0,1171.69,1203.46Z"/><line class="cls-12" x1="1029.39" y1="1326.67" x2="1028.77" y2="1369.42"/><path class="cls-3" d="M1028.69,1375.46a30.18,30.18,0,0,0-4.64-8.62l4.73,1.79,4.78-1.65A30.21,30.21,0,0,0,1028.69,1375.46Z"/><line class="cls-12" x1="884.15" y1="1205.4" x2="884.77" y2="1162.64"/><path class="cls-3" d="M884.85,1156.6a30.18,30.18,0,0,0,4.64,8.62l-4.74-1.79-4.77,1.65A30.07,30.07,0,0,0,884.85,1156.6Z"/><line class="cls-12" x1="1024.69" y1="1042.46" x2="1025.31" y2="999.7"/><path class="cls-3" d="M1025.39,993.67a30.48,30.48,0,0,0,4.63,8.61l-4.73-1.79-4.78,1.66A30.13,30.13,0,0,0,1025.39,993.67Z"/><polygon class="cls-3" points="1094.92 1350.34 1102.67 1350.34 1102.67 1358.55 1111.8 1358.55 1111.8 1368.58 1120.92 1368.58 1120.92 1376.79 1094.92 1376.79 1094.92 1350.34"/><line class="cls-12" x1="1134.52" y1="1367.31" x2="1104.73" y2="1336.64"/><path class="cls-3" d="M1100.52,1332.31a30.08,30.08,0,0,0,9.37,2.82l-4.61,2.08-2.21,4.55A30.27,30.27,0,0,0,1100.52,1332.31Z"/><rect class="cls-3" x="364" y="464" width="160" height="317"/><rect class="cls-3" x="789" y="476" width="282" height="160"/><rect class="cls-3" x="789" y="636" width="41" height="79"/><rect class="cls-3" x="1030" y="636" width="41" height="79"/><rect class="cls-3" x="909" y="636" width="41" height="79"/><rect class="cls-3" x="84" y="525" width="105" height="195"/><rect class="cls-9" x="81.88" y="615" width="4.75" height="16"/><rect class="cls-9" x="441.88" y="457" width="4.75" height="16" transform="translate(909.25 20.75) rotate(90)"/><rect class="cls-9" x="441.88" y="773" width="4.75" height="16" transform="translate(1225.25 336.75) rotate(90)"/><rect class="cls-9" x="410.37" y="929.88" width="4.75" height="16"/><rect class="cls-9" x="451.88" y="988" width="4.75" height="16" transform="translate(1450.25 541.75) rotate(90)"/><rect class="cls-9" x="532.88" y="1191" width="4.75" height="16" transform="translate(1734.25 663.75) rotate(90)"/><rect class="cls-9" x="806.88" y="708" width="4.75" height="16" transform="translate(1525.25 -93.25) rotate(90)"/><rect class="cls-9" x="992.88" y="922" width="4.75" height="16" transform="translate(1925.25 -65.25) rotate(90)"/><rect class="cls-9" x="927.88" y="708" width="4.75" height="16" transform="translate(1646.25 -214.25) rotate(90)"/><rect class="cls-9" x="1395.88" y="46" width="4.75" height="16" transform="translate(1452.25 -1344.25) rotate(90)"/><rect class="cls-9" x="1395.88" y="668" width="4.75" height="16" transform="translate(2074.25 -722.25) rotate(90)"/><rect class="cls-9" x="1047.88" y="708" width="4.75" height="16" transform="translate(1766.25 -334.25) rotate(90)"/><path class="cls-3" d="M127.75,1027.13v215h-37v-215h37a70,70,0,0,1,70-70h215v-37h-215a107,107,0,0,0-107,107"/><path class="cls-3" d="M114,1475a70,70,0,0,1,70-70H399v-37H184A107,107,0,0,0,77,1475"/><path class="cls-3" d="M80,1546H507v-37H80"/><path class="cls-3" d="M437,1211V996h37v215H437a70,70,0,0,1-70,70H152v37H367a107,107,0,0,0,107-107"/><path class="cls-3" d="M731,1199H694a70,70,0,0,0-70-70v-37a107,107,0,0,1,0,214v-37a70,70,0,0,0,70-70H554a70,70,0,0,0,70,70v37a107,107,0,0,1-107-107"/><rect class="cls-9" x="798.54" y="1517.16" width="4.75" height="16"/><path class="cls-3" d="M800.92,1329.41v37a70,70,0,0,0-70,70h-37a107,107,0,0,1,214,0h-37a70,70,0,0,0-70-70v140a70,70,0,0,0,70-70h37a107,107,0,0,1-107,107"/><rect class="cls-9" x="621.62" y="1339.25" width="4.75" height="16" transform="translate(1248 2694.5) rotate(180)"/><path class="cls-3" d="M624,1543v-37a70,70,0,0,0,70-70h37a107,107,0,0,1-214,0h37a70,70,0,0,0,70,70V1366a70,70,0,0,0-70,70H517a107,107,0,0,1,107-107"/><circle class="cls-3" cx="712" cy="859" r="107"/><path class="cls-3" d="M448,839A107,107,0,0,1,555,946a70,70,0,0,0,70,70v37h66v-37H625v37A107,107,0,0,1,518,946a70,70,0,0,0-70-70V839H382v37h66"/><rect class="cls-9" x="332.88" y="1283" width="4.75" height="33"/><rect class="cls-9" x="327.88" y="1283" width="4.75" height="33"/><rect class="cls-9" x="322.88" y="1283" width="4.75" height="33"/><rect class="cls-9" x="317.88" y="1283" width="4.75" height="33"/><rect class="cls-9" x="312.88" y="1283" width="4.75" height="33"/><rect class="cls-9" x="307.88" y="1283" width="4.75" height="33"/><rect class="cls-9" x="302.88" y="1283" width="4.75" height="33"/><rect class="cls-9" x="297.88" y="1283" width="4.75" height="33"/><rect class="cls-9" x="292.88" y="1283" width="4.75" height="33"/><rect class="cls-9" x="287.88" y="1283" width="4.75" height="33"/><rect class="cls-9" x="282.88" y="1283" width="4.75" height="33"/><rect class="cls-9" x="277.88" y="1283" width="4.75" height="33"/><rect class="cls-9" x="272.88" y="1283" width="4.75" height="33"/><rect class="cls-9" x="267.88" y="1283" width="4.75" height="33"/><rect class="cls-9" x="262.88" y="1283" width="4.75" height="33"/><rect class="cls-9" x="257.88" y="1283" width="4.75" height="33"/><rect class="cls-9" x="252.88" y="1283" width="4.75" height="33"/><rect class="cls-9" x="247.88" y="1283" width="4.75" height="33"/><rect class="cls-9" x="242.88" y="1283" width="4.75" height="33"/><rect class="cls-9" x="237.88" y="1283" width="4.75" height="33"/><rect class="cls-9" x="232.88" y="1283" width="4.75" height="33"/><rect class="cls-9" x="227.88" y="1283" width="4.75" height="33"/><rect class="cls-9" x="222.88" y="1283" width="4.75" height="33"/><rect class="cls-9" x="217.88" y="1283" width="4.75" height="33"/><rect class="cls-9" x="212.88" y="1283" width="4.75" height="33"/><rect class="cls-9" x="207.88" y="1283" width="4.75" height="33"/><rect class="cls-9" x="202.88" y="1283" width="4.75" height="33"/><rect class="cls-9" x="197.88" y="1283" width="4.75" height="33"/><rect class="cls-9" x="379.88" y="851" width="4.75" height="16"/><rect class="cls-9" x="149.88" y="1292" width="4.75" height="16"/><rect class="cls-9" x="107.37" y="1233.88" width="4.75" height="16" transform="translate(-1132.13 1351.62) rotate(-90)"/><rect class="cls-9" x="621.88" y="1103" width="4.75" height="16"/><path class="cls-3" d="M1213,944h-37a70,70,0,0,0-70-70V837a107,107,0,0,1,107,107"/><rect class="cls-9" x="1103.88" y="848" width="4.75" height="16"/><path class="cls-3" d="M1106,1051v-37a70,70,0,0,0,70-70h37a107,107,0,0,1-107,107"/><rect class="cls-9" x="1103.88" y="1024" width="4.75" height="16"/><rect class="cls-9" x="688.88" y="1027" width="4.75" height="16"/><rect class="cls-9" x="602.88" y="851" width="4.75" height="16"/><rect class="cls-9" x="816.88" y="851" width="4.75" height="16"/><rect class="cls-9" x="709.88" y="744" width="4.75" height="16" transform="translate(1464.25 39.75) rotate(90)"/><rect class="cls-9" x="709.88" y="958" width="4.75" height="16" transform="translate(1678.25 253.75) rotate(90)"/><rect class="cls-9" x="634.21" y="775.34" width="4.75" height="16" transform="translate(740.36 -220.7) rotate(45)"/><rect class="cls-9" x="785.54" y="926.66" width="4.75" height="16" transform="translate(891.68 -283.38) rotate(45)"/><rect class="cls-9" x="785.54" y="775.34" width="4.75" height="16" transform="translate(1898.95 780.11) rotate(135)"/><rect class="cls-9" x="634.21" y="926.66" width="4.75" height="16" transform="translate(1747.63 1145.43) rotate(135)"/><line class="cls-10" x1="696" y1="843" x2="727.5" y2="874.5"/><line class="cls-10" x1="727.5" y1="843" x2="696" y2="874.5"/><circle class="cls-10" cx="727" cy="859" r="4"/><circle class="cls-10" cx="712" cy="843" r="4"/><circle class="cls-10" cx="696" cy="859" r="4"/><circle class="cls-10" cx="712" cy="875" r="4"/><line class="cls-10" x1="781" y1="1024" x2="812.5" y2="1055.5"/><line class="cls-10" x1="812.5" y1="1024" x2="781" y2="1055.5"/><circle class="cls-10" cx="812" cy="1040" r="4"/><circle class="cls-10" cx="797" cy="1024" r="4"/><circle class="cls-10" cx="781" cy="1040" r="4"/><circle class="cls-10" cx="797" cy="1056" r="4"/><line class="cls-10" x1="252" y1="607" x2="283.5" y2="638.5"/><line class="cls-10" x1="283.5" y1="607" x2="252" y2="638.5"/><circle class="cls-10" cx="283" cy="623" r="4"/><circle class="cls-10" cx="268" cy="607" r="4"/><circle class="cls-10" cx="252" cy="623" r="4"/><circle class="cls-10" cx="268" cy="639" r="4"/><line class="cls-10" x1="504" y1="607" x2="535.5" y2="638.5"/><line class="cls-10" x1="535.5" y1="607" x2="504" y2="638.5"/><circle class="cls-10" cx="535" cy="623" r="4"/><circle class="cls-10" cx="520" cy="607" r="4"/><circle class="cls-10" cx="504" cy="623" r="4"/><circle class="cls-10" cx="520" cy="639" r="4"/><polygon class="cls-8" points="790 847 782.18 847 777.5 853.5 772.6 847 765 847 765 854.77 758 859.5 765 864 765 872 771.86 872 777.5 878.5 782.42 872 790 872 790 863.98 783.5 859.5 790 855 790 847"/><polygon class="cls-8" points="940 1029 932.18 1029 927.5 1035.5 922.6 1029 915 1029 915 1036.77 908 1041.5 915 1046 915 1054 921.86 1054 927.5 1060.5 932.42 1054 940 1054 940 1045.97 933.5 1041.5 940 1037 940 1029"/><polygon class="cls-8" points="453 503 445.18 503 440.5 509.5 435.6 503 428 503 428 510.77 421 515.5 428 520 428 528 434.86 528 440.5 534.5 445.42 528 453 528 453 519.98 446.5 515.5 453 511 453 503"/><polygon class="cls-8" points="453 726 445.18 726 440.5 732.5 435.6 726 428 726 428 733.77 421 738.5 428 743 428 751 434.86 751 440.5 757.5 445.42 751 453 751 453 742.98 446.5 738.5 453 734 453 726"/><line class="cls-10" x1="893" y1="540" x2="924.5" y2="571.5"/><line class="cls-10" x1="924.5" y1="540" x2="893" y2="571.5"/><circle class="cls-10" cx="924" cy="556" r="4"/><circle class="cls-10" cx="909" cy="540" r="4"/><circle class="cls-10" cx="893" cy="556" r="4"/><circle class="cls-10" cx="909" cy="572" r="4"/><line class="cls-10" x1="1379" y1="1318" x2="1410.5" y2="1349.5"/><line class="cls-10" x1="1410.5" y1="1318" x2="1379" y2="1349.5"/><circle class="cls-10" cx="1410" cy="1334" r="4"/><circle class="cls-10" cx="1395" cy="1318" r="4"/><circle class="cls-10" cx="1379" cy="1334" r="4"/><circle class="cls-10" cx="1395" cy="1350" r="4"/><polygon class="cls-8" points="987 544 979.18 544 974.5 550.5 969.6 544 962 544 962 551.77 955 556.5 962 561 962 569 968.86 569 974.5 575.5 979.42 569 987 569 987 560.98 980.5 556.5 987 552 987 544"/><polygon class="cls-8" points="1407 1245 1399.18 1245 1394.5 1251.5 1389.6 1245 1382 1245 1382 1252.77 1375 1257.5 1382 1262 1382 1270 1388.86 1270 1394.5 1276.5 1399.42 1270 1407 1270 1407 1261.97 1400.5 1257.5 1407 1253 1407 1245"/><circle class="cls-3" cx="1071" cy="557" r="55"/><rect class="cls-9" x="397.37" y="1378.88" width="4.75" height="16"/><rect class="cls-9" x="504.37" y="1519.88" width="4.75" height="16"/><rect class="cls-9" x="77.37" y="1519.88" width="4.75" height="16"/><path class="cls-3" d="M901,1203h255v-37H901"/><rect class="cls-9" x="1153.37" y="1176.88" width="4.75" height="16"/><rect class="cls-9" x="898.37" y="1176.88" width="4.75" height="16"/><rect class="cls-9" x="93.37" y="1466.88" width="4.75" height="16" transform="translate(-1379.13 1570.62) rotate(-90)"/><path class="cls-3" d="M1009.75,1057.25v255h37v-255"/><rect class="cls-9" x="1025.5" y="1304" width="4.75" height="16" transform="translate(2339.88 284.13) rotate(90)"/><rect class="cls-9" x="1025.5" y="1049" width="4.75" height="16" transform="translate(2084.88 29.13) rotate(90)"/><polyline class="cls-3" points="1104.46 1412.35 976.96 1412.35 976.96 1463.35 1104.89 1463.35"/><rect class="cls-9" x="974.84" y="1429.48" width="4.75" height="16" transform="translate(1954.42 2874.96) rotate(180)"/><path class="cls-3" d="M1107.17,1461.56l100.95-101L1182,1334.44l-101,101"/><rect class="cls-9" x="1192.76" y="1339.96" width="4.75" height="16" transform="translate(-603.11 1239.89) rotate(-45)"/><path class="cls-3" d="M1208.12,1514.75l-103.28-103.28-26.16,26.16L1182,1540.91"/><rect class="cls-9" x="1193.11" y="1519.75" width="4.75" height="16" transform="translate(960.54 3453.36) rotate(-135)"/><rect class="cls-9" x="1117.85" y="1440.37" width="4.75" height="25" transform="translate(885.01 3272.33) rotate(-135)"/><rect class="cls-9" x="1121.39" y="1443.91" width="4.75" height="25" transform="translate(888.55 3280.87) rotate(-135)"/><rect class="cls-9" x="1124.93" y="1447.44" width="4.75" height="25" transform="translate(892.09 3289.4) rotate(-135)"/><rect class="cls-9" x="1128.46" y="1450.98" width="4.75" height="25" transform="translate(895.62 3297.94) rotate(-135)"/><rect class="cls-9" x="1132" y="1454.52" width="4.75" height="25" transform="translate(899.16 3306.47) rotate(-135)"/><rect class="cls-9" x="1135.53" y="1458.05" width="4.75" height="25" transform="translate(902.69 3315.01) rotate(-135)"/><rect class="cls-9" x="1139.07" y="1461.59" width="4.75" height="25" transform="translate(906.23 3323.54) rotate(-135)"/><rect class="cls-9" x="1142.6" y="1465.12" width="4.75" height="25" transform="translate(909.76 3332.08) rotate(-135)"/><rect class="cls-9" x="1146.14" y="1468.66" width="4.75" height="25" transform="translate(913.3 3340.62) rotate(-135)"/><rect class="cls-9" x="1149.67" y="1472.19" width="4.75" height="25" transform="translate(916.83 3349.15) rotate(-135)"/><rect class="cls-9" x="1153.21" y="1475.73" width="4.75" height="25" transform="translate(920.37 3357.69) rotate(-135)"/><rect class="cls-9" x="1156.75" y="1479.26" width="4.75" height="25" transform="translate(923.91 3366.22) rotate(-135)"/><rect class="cls-9" x="1160.28" y="1482.8" width="4.75" height="25" transform="translate(927.44 3374.76) rotate(-135)"/><rect class="cls-9" x="1163.82" y="1486.34" width="4.75" height="25" transform="translate(930.98 3383.29) rotate(-135)"/><rect class="cls-9" x="1026.38" y="1147.75" width="4.75" height="30.5" transform="translate(2191.75 134.25) rotate(90)"/><rect class="cls-9" x="1026.38" y="1142.75" width="4.75" height="30.5" transform="translate(2186.75 129.25) rotate(90)"/><rect class="cls-9" x="1026.38" y="1137.75" width="4.75" height="30.5" transform="translate(2181.75 124.25) rotate(90)"/><rect class="cls-9" x="1026.38" y="1132.75" width="4.75" height="30.5" transform="translate(2176.75 119.25) rotate(90)"/><rect class="cls-9" x="1026.38" y="1127.75" width="4.75" height="30.5" transform="translate(2171.75 114.25) rotate(90)"/><rect class="cls-9" x="1026.38" y="1122.75" width="4.75" height="30.5" transform="translate(2166.75 109.25) rotate(90)"/><rect class="cls-9" x="1026.38" y="1117.75" width="4.75" height="30.5" transform="translate(2161.75 104.25) rotate(90)"/><rect class="cls-9" x="1026.38" y="1112.75" width="4.75" height="30.5" transform="translate(2156.75 99.25) rotate(90)"/><rect class="cls-9" x="1026.38" y="1107.75" width="4.75" height="30.5" transform="translate(2151.75 94.25) rotate(90)"/><rect class="cls-9" x="1026.38" y="1102.75" width="4.75" height="30.5" transform="translate(2146.75 89.25) rotate(90)"/><rect class="cls-9" x="1026.38" y="1097.75" width="4.75" height="30.5" transform="translate(2141.75 84.25) rotate(90)"/><rect class="cls-9" x="1026.38" y="1092.75" width="4.75" height="30.5" transform="translate(2136.75 79.25) rotate(90)"/><rect class="cls-9" x="1026.38" y="1087.75" width="4.75" height="30.5" transform="translate(2131.75 74.25) rotate(90)"/><rect class="cls-9" x="1026.38" y="1082.75" width="4.75" height="30.5" transform="translate(2126.75 69.25) rotate(90)"/><rect class="cls-9" x="1026.38" y="1254.75" width="4.75" height="30.5" transform="translate(2298.75 241.25) rotate(90)"/><rect class="cls-9" x="1026.38" y="1249.75" width="4.75" height="30.5" transform="translate(2293.75 236.25) rotate(90)"/><rect class="cls-9" x="1026.38" y="1244.75" width="4.75" height="30.5" transform="translate(2288.75 231.25) rotate(90)"/><rect class="cls-9" x="1026.38" y="1239.75" width="4.75" height="30.5" transform="translate(2283.75 226.25) rotate(90)"/><rect class="cls-9" x="1026.38" y="1234.75" width="4.75" height="30.5" transform="translate(2278.75 221.25) rotate(90)"/><rect class="cls-9" x="1026.38" y="1229.75" width="4.75" height="30.5" transform="translate(2273.75 216.25) rotate(90)"/><rect class="cls-9" x="1026.38" y="1224.75" width="4.75" height="30.5" transform="translate(2268.75 211.25) rotate(90)"/><rect class="cls-9" x="1026.38" y="1219.75" width="4.75" height="30.5" transform="translate(2263.75 206.25) rotate(90)"/><rect class="cls-9" x="1026.38" y="1214.75" width="4.75" height="30.5" transform="translate(2258.75 201.25) rotate(90)"/><rect class="cls-9" x="1026.38" y="1209.75" width="4.75" height="30.5" transform="translate(2253.75 196.25) rotate(90)"/><rect class="cls-9" x="1026.38" y="1204.75" width="4.75" height="30.5" transform="translate(2248.75 191.25) rotate(90)"/><rect class="cls-9" x="1026.38" y="1199.75" width="4.75" height="30.5" transform="translate(2243.75 186.25) rotate(90)"/><rect class="cls-9" x="1026.38" y="1194.75" width="4.75" height="30.5" transform="translate(2238.75 181.25) rotate(90)"/><rect class="cls-9" x="1026.38" y="1189.75" width="4.75" height="30.5" transform="translate(2233.75 176.25) rotate(90)"/><rect class="cls-9" x="1046.88" y="1169.25" width="4.75" height="30.5" transform="translate(2098.5 2369) rotate(180)"/><rect class="cls-9" x="1051.88" y="1169.25" width="4.75" height="30.5" transform="translate(2108.5 2369) rotate(180)"/><rect class="cls-9" x="1056.88" y="1169.25" width="4.75" height="30.5" transform="translate(2118.5 2369) rotate(180)"/><rect class="cls-9" x="1061.88" y="1169.25" width="4.75" height="30.5" transform="translate(2128.5 2369) rotate(180)"/><rect class="cls-9" x="1066.88" y="1169.25" width="4.75" height="30.5" transform="translate(2138.5 2369) rotate(180)"/><rect class="cls-9" x="1071.88" y="1169.25" width="4.75" height="30.5" transform="translate(2148.5 2369) rotate(180)"/><rect class="cls-9" x="1076.88" y="1169.25" width="4.75" height="30.5" transform="translate(2158.5 2369) rotate(180)"/><rect class="cls-9" x="1081.88" y="1169.25" width="4.75" height="30.5" transform="translate(2168.5 2369) rotate(180)"/><rect class="cls-9" x="1086.88" y="1169.25" width="4.75" height="30.5" transform="translate(2178.5 2369) rotate(180)"/><rect class="cls-9" x="1091.88" y="1169.25" width="4.75" height="30.5" transform="translate(2188.5 2369) rotate(180)"/><rect class="cls-9" x="1096.88" y="1169.25" width="4.75" height="30.5" transform="translate(2198.5 2369) rotate(180)"/><rect class="cls-9" x="1101.88" y="1169.25" width="4.75" height="30.5" transform="translate(2208.5 2369) rotate(180)"/><rect class="cls-9" x="1106.88" y="1169.25" width="4.75" height="30.5" transform="translate(2218.5 2369) rotate(180)"/><rect class="cls-9" x="1111.88" y="1169.25" width="4.75" height="30.5" transform="translate(2228.5 2369) rotate(-180)"/><rect class="cls-9" x="939.88" y="1169.25" width="4.75" height="30.5" transform="translate(1884.5 2369) rotate(180)"/><rect class="cls-9" x="944.88" y="1169.25" width="4.75" height="30.5" transform="translate(1894.5 2369) rotate(180)"/><rect class="cls-9" x="949.88" y="1169.25" width="4.75" height="30.5" transform="translate(1904.5 2369) rotate(180)"/><rect class="cls-9" x="954.88" y="1169.25" width="4.75" height="30.5" transform="translate(1914.5 2369) rotate(180)"/><rect class="cls-9" x="959.88" y="1169.25" width="4.75" height="30.5" transform="translate(1924.5 2369) rotate(180)"/><rect class="cls-9" x="964.88" y="1169.25" width="4.75" height="30.5" transform="translate(1934.5 2369) rotate(180)"/><rect class="cls-9" x="969.88" y="1169.25" width="4.75" height="30.5" transform="translate(1944.5 2369) rotate(180)"/><rect class="cls-9" x="974.88" y="1169.25" width="4.75" height="30.5" transform="translate(1954.5 2369) rotate(180)"/><rect class="cls-9" x="979.88" y="1169.25" width="4.75" height="30.5" transform="translate(1964.5 2369) rotate(180)"/><rect class="cls-9" x="984.88" y="1169.25" width="4.75" height="30.5" transform="translate(1974.5 2369) rotate(180)"/><rect class="cls-9" x="989.88" y="1169.25" width="4.75" height="30.5" transform="translate(1984.5 2369) rotate(180)"/><rect class="cls-9" x="994.88" y="1169.25" width="4.75" height="30.5" transform="translate(1994.5 2369) rotate(180)"/><rect class="cls-9" x="999.88" y="1169.25" width="4.75" height="30.5" transform="translate(2004.5 2369) rotate(180)"/><rect class="cls-9" x="1004.88" y="1169.25" width="4.75" height="30.5" transform="translate(2014.5 2369) rotate(-180)"/><rect class="cls-9" x="1115.85" y="1411.34" width="4.75" height="25" transform="translate(2915.74 1639.93) rotate(135)"/><rect class="cls-9" x="1119.39" y="1407.8" width="4.75" height="25" transform="translate(2919.28 1631.4) rotate(135)"/><rect class="cls-9" x="1122.93" y="1404.26" width="4.75" height="25" transform="translate(2922.81 1622.86) rotate(135)"/><rect class="cls-9" x="1126.46" y="1400.73" width="4.75" height="25" transform="translate(2926.35 1614.32) rotate(135)"/><rect class="cls-9" x="1130" y="1397.19" width="4.75" height="25" transform="translate(2929.88 1605.79) rotate(135)"/><rect class="cls-9" x="1133.53" y="1393.66" width="4.75" height="25" transform="translate(2933.42 1597.25) rotate(135)"/><rect class="cls-9" x="1137.07" y="1390.12" width="4.75" height="25" transform="translate(2936.95 1588.72) rotate(135)"/><rect class="cls-9" x="1140.6" y="1386.59" width="4.75" height="25" transform="translate(2940.49 1580.18) rotate(135)"/><rect class="cls-9" x="1144.14" y="1383.05" width="4.75" height="25" transform="translate(2944.02 1571.65) rotate(135)"/><rect class="cls-9" x="1147.67" y="1379.52" width="4.75" height="25" transform="translate(2947.56 1563.11) rotate(135)"/><rect class="cls-9" x="1151.21" y="1375.98" width="4.75" height="25" transform="translate(2951.1 1554.58) rotate(135)"/><rect class="cls-9" x="1154.75" y="1372.44" width="4.75" height="25" transform="translate(2954.63 1546.04) rotate(135)"/><rect class="cls-9" x="1158.28" y="1368.91" width="4.75" height="25" transform="translate(2958.17 1537.5) rotate(135)"/><rect class="cls-9" x="1161.82" y="1365.37" width="4.75" height="25" transform="translate(2961.7 1528.97) rotate(135)"/></g></svg>